<svg width="6" height="9" viewBox="0 0 6 9" fill="none" xmlns="http://www.w3.org/2000/svg">
<path d="M2.21191 4.92383H3.08105C3.87695 4.92383 4.36035 5.31445 4.36035 5.95898C4.36035 6.55469 3.84277 6.96973 3.10547 6.96973C2.3291 6.96973 1.84082 6.5791 1.79688 5.9834H0.385742C0.454102 7.28223 1.49414 8.15625 3.08594 8.15625C4.71191 8.15625 5.85938 7.31641 5.85938 6.05176C5.85938 5.0752 5.18066 4.44043 4.13086 4.35254V4.32324C4.99512 4.16699 5.58594 3.54199 5.58594 2.67773C5.58594 1.5498 4.58496 0.797852 3.12012 0.797852C1.5918 0.797852 0.576172 1.64746 0.522461 2.95117H1.87988C1.91895 2.33594 2.37305 1.93066 3.05664 1.93066C3.78906 1.93066 4.19434 2.30664 4.19434 2.87793C4.19434 3.45898 3.74023 3.85938 3.06641 3.85938H2.21191V4.92383Z" fill="white"/>
</svg>
