<svg width="56" height="56" viewBox="0 0 56 56" fill="none" xmlns="http://www.w3.org/2000/svg">
<circle cx="28" cy="28" r="28" fill="#F4F7FE"/>
<path d="M41.632 24.0397H35.0773L29.0837 15.063C28.8237 14.6799 28.3858 14.4883 27.9479 14.4883C27.51 14.4883 27.0722 14.6799 26.8122 15.0767L20.8186 24.0397H14.2639C13.5113 24.0397 12.8955 24.6555 12.8955 25.4081C12.8955 25.5313 12.9092 25.6544 12.9502 25.7776L16.426 38.4627C16.7407 39.6122 17.7944 40.4606 19.0533 40.4606H36.8426C38.1015 40.4606 39.1552 39.6122 39.4836 38.4627L42.9593 25.7776L43.0004 25.4081C43.0004 24.6555 42.3846 24.0397 41.632 24.0397ZM27.9479 18.2924L31.7795 24.0397H24.1164L27.9479 18.2924ZM36.8426 37.7238L19.067 37.7374L16.0565 26.7765H39.853L36.8426 37.7238ZM27.9479 29.5133C26.4427 29.5133 25.2111 30.7449 25.2111 32.2501C25.2111 33.7554 26.4427 34.987 27.9479 34.987C29.4532 34.987 30.6847 33.7554 30.6847 32.2501C30.6847 30.7449 29.4532 29.5133 27.9479 29.5133Z" fill="#4318FF"/>
</svg>
