<svg width="24" height="24" viewBox="0 0 24 24" fill="none" xmlns="http://www.w3.org/2000/svg">
<path d="M6.16959 12.0089C6.16869 12.6548 6.69157 13.1792 7.33747 13.1801L10.846 13.1849L10.8411 16.6935C10.8402 17.3394 11.3631 17.8637 12.009 17.8646C12.6549 17.8655 13.1793 17.3426 13.1801 16.6967L13.185 13.1882L16.6935 13.193C17.3394 13.1939 17.8638 12.6711 17.8647 12.0252C17.8656 11.3793 17.3427 10.8549 16.6968 10.854L13.1883 10.8492L13.1931 7.34064C13.194 6.69474 12.6711 6.1704 12.0252 6.16951C11.3793 6.16861 10.855 6.69149 10.8541 7.33739L10.8492 10.8459L7.34072 10.8411C6.69482 10.8402 6.17048 11.363 6.16959 12.0089Z" fill="black" fill-opacity="0.5"/>
<rect x="0.5" y="0.5" width="23" height="23" rx="3.5" stroke="black" stroke-opacity="0.5" stroke-dasharray="1 1"/>
</svg>
