<svg id="calendar" xmlns="http://www.w3.org/2000/svg" width="17.812" height="17.811" viewBox="0 0 17.812 17.811">
  <path id="Path_599" data-name="Path 599" d="M15.771,59H2.041A2.043,2.043,0,0,1,0,56.954V44.709a2.043,2.043,0,0,1,2.041-2.041h13.73a2.043,2.043,0,0,1,2.041,2.041V56.954A2.043,2.043,0,0,1,15.771,59ZM2.041,43.781a.929.929,0,0,0-.928.928V56.954a.929.929,0,0,0,.928.928h13.73a.929.929,0,0,0,.928-.928V44.709a.929.929,0,0,0-.928-.928Zm0,0" transform="translate(0 -41.184)" fill="#707070"/>
  <path id="Path_600" data-name="Path 600" d="M17.255,171.781H.557a.557.557,0,0,1,0-1.113h16.7a.557.557,0,0,1,0,1.113Zm0,0" transform="translate(0 -164.731)" fill="#707070"/>
  <path id="Path_601" data-name="Path 601" d="M107.225,4.453a.557.557,0,0,1-.557-.557V.557a.557.557,0,1,1,1.113,0V3.9A.557.557,0,0,1,107.225,4.453Zm0,0" transform="translate(-102.957)" fill="#707070"/>
  <path id="Path_602" data-name="Path 602" d="M373.889,4.453a.557.557,0,0,1-.557-.557V.557a.557.557,0,1,1,1.113,0V3.9A.557.557,0,0,1,373.889,4.453Zm0,0" transform="translate(-360.344)" fill="#707070"/>
</svg>
