<svg width="53" height="53" viewBox="0 0 53 53" fill="none" xmlns="http://www.w3.org/2000/svg">
<path d="M35.0476 30.0754C35.0476 34.7888 31.2134 38.623 26.5 38.623C21.7866 38.623 17.9538 34.7888 17.9538 30.0754C17.9538 25.3621 21.7866 21.5278 26.5 21.5278C31.2134 21.5278 35.0476 25.3635 35.0476 30.0754ZM53 17.9382V42.2156C53 45.4521 50.3759 48.0761 47.1394 48.0761H5.86056C2.62407 48.0761 0 45.4521 0 42.2156V17.9382C0 14.7017 2.62407 12.0776 5.86056 12.0776H13.0691V10.0499C13.0691 7.21775 15.3635 4.92188 18.197 4.92188H34.803C37.6365 4.92188 39.9309 7.21775 39.9309 10.0499V12.0762H47.1394C50.3759 12.0776 53 14.7017 53 17.9382ZM39.4431 30.0754C39.4431 22.9387 33.6367 17.1324 26.5 17.1324C19.3648 17.1324 13.5584 22.9387 13.5584 30.0754C13.5584 37.2121 19.3648 43.0185 26.5 43.0185C33.6367 43.0185 39.4431 37.2121 39.4431 30.0754Z" fill="#828282"/>
</svg>
