<svg width="51" height="50" viewBox="0 0 51 50" fill="none" xmlns="http://www.w3.org/2000/svg">
<circle cx="25.5" cy="25" r="25" fill="#55B88D"/>
<path d="M26.6411 18H15.2352C13.7309 18 12.5 19.2309 12.5 20.7352V29.953C12.5 31.4573 13.7309 32.6882 15.2352 32.6882H26.6411C28.1455 32.6882 29.3764 31.4573 29.3764 29.953V20.7352C29.3764 19.2035 28.1455 18 26.6411 18Z" fill="white"/>
<path d="M35.4761 19.505C35.312 19.5323 35.1479 19.6144 35.0111 19.6965L30.7441 22.1582V28.5039L35.0385 30.9656C35.8317 31.4306 36.8164 31.1571 37.2813 30.3638C37.4181 30.1177 37.5002 29.8442 37.5002 29.5433V21.0914C37.5002 20.0794 36.5428 19.2588 35.4761 19.505Z" fill="white"/>
</svg>
