<svg width="33" height="30" viewBox="0 0 33 30" fill="none" xmlns="http://www.w3.org/2000/svg">
<path d="M24.75 7.5V7.5125" stroke="#1F162D" stroke-width="2" stroke-linecap="round" stroke-linejoin="round"/>
<path d="M24.75 16.2487L19.9375 9.99874C19.4742 9.23753 19.2374 8.37961 19.2505 7.50973C19.2636 6.63986 19.5261 5.78815 20.0121 5.03874C20.4981 4.28934 21.1908 3.66818 22.0217 3.23664C22.8527 2.80511 23.7931 2.57812 24.75 2.57812C25.7069 2.57812 26.6473 2.80511 27.4783 3.23664C28.3092 3.66818 29.0019 4.28934 29.4879 5.03874C29.9739 5.78815 30.2364 6.63986 30.2495 7.50973C30.2626 8.37961 30.0258 9.23753 29.5625 9.99874L24.75 16.2487Z" stroke="#1F162D" stroke-width="2" stroke-linecap="round" stroke-linejoin="round"/>
<path d="M14.4375 5.9375L12.375 5L4.125 8.75V25L12.375 21.25L20.625 25L28.875 21.25V18.75" stroke="#1F162D" stroke-width="2" stroke-linecap="round" stroke-linejoin="round"/>
<path d="M12.375 5V21.25" stroke="#1F162D" stroke-width="2" stroke-linecap="round" stroke-linejoin="round"/>
<path d="M20.625 18.75V25" stroke="#1F162D" stroke-width="2" stroke-linecap="round" stroke-linejoin="round"/>
</svg>
