<svg width="51" height="50" viewBox="0 0 51 50" fill="none" xmlns="http://www.w3.org/2000/svg">
<circle cx="25.5" cy="25" r="25" fill="#FF6363"/>
<path d="M17.1667 33.3333C18.0871 34.2538 19.5795 34.2538 20.5 33.3333L25.5 28.3333L30.5 33.3333C31.4205 34.2538 32.9129 34.2538 33.8333 33.3333C34.7538 32.4129 34.7538 30.9205 33.8333 30L28.8333 25L33.8333 20C34.7538 19.0795 34.7538 17.5871 33.8333 16.6667C32.9129 15.7462 31.4205 15.7462 30.5 16.6667L25.5 21.6667L20.5 16.6667C19.5795 15.7462 18.0871 15.7462 17.1667 16.6667C16.2462 17.5871 16.2462 19.0795 17.1667 20L22.1667 25L17.1667 30C16.2462 30.9205 16.2462 32.4129 17.1667 33.3333Z" fill="white"/>
</svg>
