<svg width="28" height="29" viewBox="0 0 28 29" fill="none" xmlns="http://www.w3.org/2000/svg">
<path d="M15.0442 10.8691H12.9559C12.2439 10.8691 11.6667 11.4463 11.6667 12.1583V23.58C11.6667 24.292 12.2439 24.8691 12.9559 24.8691H15.0442C15.7562 24.8691 16.3334 24.292 16.3334 23.58V12.1583C16.3334 11.4463 15.7562 10.8691 15.0442 10.8691Z" stroke="black" stroke-width="2" stroke-linecap="round" stroke-linejoin="round"/>
<path d="M23.2108 3.86914H21.1224C20.4104 3.86914 19.8333 4.44632 19.8333 5.15831V23.58C19.8333 24.292 20.4104 24.8691 21.1224 24.8691H23.2108C23.9227 24.8691 24.4999 24.292 24.4999 23.58V5.15831C24.4999 4.44632 23.9227 3.86914 23.2108 3.86914Z" stroke="black" stroke-width="2" stroke-linecap="round" stroke-linejoin="round"/>
<path d="M5.83333 24.8688C7.122 24.8688 8.16667 23.8241 8.16667 22.5355C8.16667 21.2468 7.122 20.2021 5.83333 20.2021C4.54467 20.2021 3.5 21.2468 3.5 22.5355C3.5 23.8241 4.54467 24.8688 5.83333 24.8688Z" stroke="black" stroke-width="2" stroke-linecap="round" stroke-linejoin="round"/>
</svg>
