<svg width="30" height="30" viewBox="0 0 30 30" fill="none" xmlns="http://www.w3.org/2000/svg">
<path d="M22.5471 7.19434L20.9295 26.8107H9.07076L7.45353 7.19434L5.4043 7.3855L7.05106 27.3576C7.13773 28.2781 7.88827 28.9999 8.76016 28.9999H21.2402C22.1117 28.9999 22.8625 28.2785 22.9506 27.3445L24.5964 7.3855L22.5471 7.19434Z" fill="black"/>
<path d="M18.7718 2H11.229C10.2837 2 9.51465 2.8184 9.51465 3.82439V7.2907H11.5718V4.18921H18.4289V7.29065H20.486V3.82434C20.4861 2.8184 19.7171 2 18.7718 2Z" fill="black"/>
<path d="M25.9714 6.19531H4.02858C3.46045 6.19531 3 6.68533 3 7.28995C3 7.89456 3.46045 8.38458 4.02858 8.38458H25.9714C26.5395 8.38458 27 7.89456 27 7.28995C27 6.68533 26.5395 6.19531 25.9714 6.19531Z" fill="black"/>
</svg>
