<svg xmlns="http://www.w3.org/2000/svg" width="21.723" height="28.964" viewBox="0 0 21.723 28.964">
  <path id="downfile-ico" d="M12.672,7.693V0H1.358A1.354,1.354,0,0,0,0,1.358V27.606a1.354,1.354,0,0,0,1.358,1.358H20.365a1.354,1.354,0,0,0,1.358-1.358V9.051H14.029A1.362,1.362,0,0,1,12.672,7.693ZM17,19.65l-5.454,5.414a.965.965,0,0,1-1.36,0L4.728,19.65A.9.9,0,0,1,5.364,18.1H9.051V13.577a.9.9,0,0,1,.905-.905h1.81a.9.9,0,0,1,.905.905V18.1h3.687A.905.905,0,0,1,17,19.65Zm4.33-13.71L15.789.4a1.357,1.357,0,0,0-.962-.4h-.345V7.241h7.241V6.9A1.353,1.353,0,0,0,21.327,5.94Z" fill="#55a57f"/>
</svg>
