<svg width="56" height="56" viewBox="0 0 56 56" fill="none" xmlns="http://www.w3.org/2000/svg">
<circle cx="28" cy="28" r="28" fill="#F4F7FE"/>
<path d="M20.2834 24.3132H20.5571C21.6108 24.3132 22.4729 25.1753 22.4729 26.229V35.8078C22.4729 36.8615 21.6108 37.7236 20.5571 37.7236H20.2834C19.2298 37.7236 18.3677 36.8615 18.3677 35.8078V26.229C18.3677 25.1753 19.2298 24.3132 20.2834 24.3132ZM27.9465 18.5659C29.0002 18.5659 29.8623 19.428 29.8623 20.4817V35.8078C29.8623 36.8615 29.0002 37.7236 27.9465 37.7236C26.8928 37.7236 26.0307 36.8615 26.0307 35.8078V20.4817C26.0307 19.428 26.8928 18.5659 27.9465 18.5659ZM35.6096 29.5131C36.6632 29.5131 37.5253 30.3752 37.5253 31.4289V35.8078C37.5253 36.8615 36.6632 37.7236 35.6096 37.7236C34.5559 37.7236 33.6938 36.8615 33.6938 35.8078V31.4289C33.6938 30.3752 34.5559 29.5131 35.6096 29.5131Z" fill="#4318FF"/>
</svg>
