<svg width="32" height="32" viewBox="0 0 32 32" fill="none" xmlns="http://www.w3.org/2000/svg">
<g opacity="0.7">
<path d="M4 4L28 28" stroke="black" stroke-width="2" stroke-linecap="round" stroke-linejoin="round"/>
<path d="M14.112 14.1162C13.6116 14.6162 13.3303 15.2945 13.3301 16.0019C13.3298 16.7093 13.6106 17.3878 14.1106 17.8882C14.6106 18.3886 15.289 18.6698 15.9963 18.6701C16.7037 18.6703 17.3822 18.3896 17.8826 17.8895" stroke="black" stroke-width="2" stroke-linecap="round" stroke-linejoin="round"/>
<path d="M23.1425 23.1324C20.9678 24.5991 18.5892 25.3337 15.9998 25.3337C10.6665 25.3337 6.2225 22.2231 2.6665 16.0004C4.49184 12.8071 6.5505 10.4337 8.8425 8.87907M12.4838 7.15374C13.6271 6.8267 14.8108 6.66286 15.9998 6.66707C21.3332 6.66707 25.7772 9.77774 29.3332 16.0004C28.2958 17.8151 27.1838 19.3657 25.9958 20.6511L12.4838 7.15374Z" stroke="black" stroke-width="2" stroke-linecap="round" stroke-linejoin="round"/>
</g>
</svg>
