<svg width="25" height="26" viewBox="0 0 25 26" fill="none" xmlns="http://www.w3.org/2000/svg">
<path d="M18.1291 0.222536L18.1291 0.222508L18.1262 0.222278C17.5413 0.176136 17.0553 0.637464 17.0071 1.24341L17.0071 1.24343L16.5663 6.79683H9.41283L9.83642 1.43567C9.83644 1.43554 9.83645 1.4354 9.83646 1.43527C9.88557 0.831643 9.47605 0.279589 8.89965 0.222543L8.89965 0.222511L8.89659 0.222272C8.30821 0.176181 7.82458 0.637536 7.77642 1.24341L7.77642 1.24346L7.33679 6.79683H2.80697C2.22297 6.79683 1.77236 7.31338 1.77236 7.91698C1.77236 8.52059 2.22297 9.03713 2.80697 9.03713H7.15969L6.53475 16.9213H1.88462C1.30074 16.9213 0.85 17.4364 0.85 18.0415C0.85 18.6465 1.30074 19.1616 1.88462 19.1616H6.35762L5.9317 24.5257C5.9317 24.5257 5.9317 24.5257 5.9317 24.5257C5.88373 25.128 6.29207 25.6802 6.87094 25.7372L6.87092 25.7374L6.87817 25.7377L6.95602 25.7416L6.95601 25.7418H6.96349C7.50672 25.7418 7.94753 25.2887 7.99292 24.7163L8.43369 19.1629H15.5872L15.1635 24.5244C15.1635 24.5244 15.1635 24.5244 15.1635 24.5245C15.1156 25.1279 15.5238 25.6802 16.1028 25.7372L16.1028 25.7374L16.11 25.7377L16.1879 25.7416L16.1879 25.7418H16.1953C16.7386 25.7418 17.1794 25.2887 17.2248 24.7163L17.2248 24.7163L17.6644 19.1629H22.193C22.7757 19.1629 23.2276 18.6465 23.2276 18.0427C23.2276 17.439 22.7757 16.9226 22.193 16.9226H17.8403L18.4652 9.03842H23.1154C23.6993 9.03842 24.15 8.52331 24.15 7.91828C24.15 7.31324 23.6993 6.79813 23.1154 6.79813H18.6424L19.0683 1.43407C19.1163 0.831756 18.7079 0.27955 18.1291 0.222536ZM16.3892 9.03842L15.7642 16.9213H8.61082L9.23576 9.03842H16.3892Z" fill="black" stroke="black" stroke-width="0.3"/>
</svg>
