<svg width="65" height="41" viewBox="0 0 65 41" fill="none" xmlns="http://www.w3.org/2000/svg">
<g clip-path="url(#clip0)">
<path d="M0 4C0 1.79086 1.79086 0 4 0H60.9167C63.1258 0 64.9167 1.79086 64.9167 4V37C64.9167 39.2091 63.1258 41 60.9167 41H4C1.79086 41 0 39.2091 0 37V4Z" fill="#012169"/>
<path d="M68.3335 3.41699H1.7085V41.0003H68.3335V3.41699Z" fill="#012169"/>
<path d="M47.2212 10.1855V11.6635L50.4386 10.1855H47.2212Z" fill="white"/>
<path d="M47.8444 11.8556L46.8843 10.7176L50.4386 10.1855L47.8444 11.8556Z" fill="white"/>
<path d="M47.2215 10.1855V11.6635L43.9873 10.1855H47.2215Z" fill="white"/>
<path d="M46.6151 11.8556L47.5584 10.7176L43.9873 10.1855L46.6151 11.8556Z" fill="white"/>
<path d="M48.2135 10.8203L46.6807 11.2637L49.2074 13.5101L48.2135 10.8203Z" fill="white"/>
<path d="M46.6152 11.8558L47.5585 10.7178L49.243 13.511L46.6152 11.8558Z" fill="white"/>
<path d="M46.228 10.8212L47.7609 11.2645L47.2219 8.07227L46.228 10.8212Z" fill="white"/>
<path d="M48.2155 10.8212L46.6826 11.2645L47.2217 8.07227L48.2155 10.8212Z" fill="white"/>
<path d="M46.2277 10.8203L47.7606 11.2637L45.2339 13.5101L46.2277 10.8203Z" fill="white"/>
<path d="M47.8448 11.8558L46.8847 10.7178L45.2002 13.511L47.8448 11.8558Z" fill="white"/>
<path d="M47.2207 10.5098V11.4408L49.3432 10.5098H47.2207Z" fill="#C8102E"/>
<path d="M47.6252 11.6034L47.002 10.8497L49.3434 10.5098L47.6252 11.6034Z" fill="#C8102E"/>
<path d="M47.2216 10.5107V11.4418L45.0991 10.5107H47.2216Z" fill="#C8102E"/>
<path d="M46.8173 11.6044L47.4406 10.8507L45.0991 10.5107L46.8173 11.6044Z" fill="#C8102E"/>
<path d="M47.8774 10.9238L46.8667 11.2046L48.5512 12.6825L47.8774 10.9238Z" fill="#C8102E"/>
<path d="M46.8174 11.6043L47.4406 10.8506L48.5356 12.698L46.8174 11.6043Z" fill="#C8102E"/>
<path d="M46.5649 10.9239L47.5756 11.2047L47.2219 9.15039L46.5649 10.9239Z" fill="#C8102E"/>
<path d="M47.8789 10.9239L46.8682 11.2047L47.2219 9.15039L47.8789 10.9239Z" fill="#C8102E"/>
<path d="M46.5644 10.9238L47.5751 11.2046L45.8906 12.6825L46.5644 10.9238Z" fill="#C8102E"/>
<path d="M47.6264 11.6043L47.0031 10.8506L45.9082 12.698L47.6264 11.6043Z" fill="#C8102E"/>
<path d="M55.6606 16.7334V17.9896L58.5243 16.7334H55.6606Z" fill="white"/>
<path d="M56.1997 18.2113L55.3574 17.1915L58.5243 16.7334L56.1997 18.2113Z" fill="white"/>
<path d="M55.661 16.7334V17.9896L52.7974 16.7334H55.661Z" fill="white"/>
<path d="M55.1051 18.2113L55.9474 17.1915L52.7974 16.7334L55.1051 18.2113Z" fill="white"/>
<path d="M56.5353 17.2949L55.1709 17.6792L57.4618 19.6891L56.5353 17.2949Z" fill="white"/>
<path d="M55.1055 18.2112L55.9477 17.1914L57.4638 19.6891L55.1055 18.2112Z" fill="white"/>
<path d="M54.7681 17.2946L56.1325 17.6789L55.6608 14.9004L54.7681 17.2946Z" fill="white"/>
<path d="M56.5368 17.2946L55.1724 17.6789L55.6609 14.9004L56.5368 17.2946Z" fill="white"/>
<path d="M54.768 17.2949L56.1325 17.6792L53.8921 19.6891L54.768 17.2949Z" fill="white"/>
<path d="M56.1998 18.2112L55.3576 17.1914L53.8921 19.6891L56.1998 18.2112Z" fill="white"/>
<path d="M55.6616 17.0439V17.8125L57.3461 17.0439H55.6616Z" fill="#C8102E"/>
<path d="M55.9983 17.9602L55.4761 17.3247L57.4638 17.0439L55.9983 17.9602Z" fill="#C8102E"/>
<path d="M55.6596 17.0439V17.8125L53.874 17.0439H55.6596Z" fill="#C8102E"/>
<path d="M55.3241 17.9602L55.779 17.3247L53.8081 17.0439L55.3241 17.9602Z" fill="#C8102E"/>
<path d="M56.2002 17.3838L55.3579 17.635L56.756 18.8617L56.2002 17.3838Z" fill="#C8102E"/>
<path d="M55.3242 17.9597L55.779 17.3242L56.6887 18.8021L55.3242 17.9597Z" fill="#C8102E"/>
<path d="M55.106 17.3832L55.9482 17.6344L55.6618 15.9053L55.106 17.3832Z" fill="#C8102E"/>
<path d="M56.2002 17.3832L55.3579 17.6344L55.6611 15.9053L56.2002 17.3832Z" fill="#C8102E"/>
<path d="M55.1059 17.3838L55.9482 17.635L54.5669 18.8617L55.1059 17.3838Z" fill="#C8102E"/>
<path d="M55.9987 17.9597L55.4765 17.3242L54.5669 18.8021L55.9987 17.9597Z" fill="#C8102E"/>
<path d="M37.3838 18.875V20.3529L40.6012 18.875H37.3838Z" fill="white"/>
<path d="M37.9902 20.545L37.0469 19.3923L40.618 18.875L37.9902 20.545Z" fill="white"/>
<path d="M37.3844 18.875V20.3529L34.167 18.875H37.3844Z" fill="white"/>
<path d="M36.7611 20.545L37.7213 19.3923L34.167 18.875L36.7611 20.545Z" fill="white"/>
<path d="M38.3776 19.5107L36.8447 19.9541L39.3715 22.2005L38.3776 19.5107Z" fill="white"/>
<path d="M36.7612 20.5453L37.7214 19.3926L39.4059 22.2006L36.7612 20.5453Z" fill="white"/>
<path d="M36.3901 19.5111L37.923 19.9544L37.384 16.8213L36.3901 19.5111Z" fill="white"/>
<path d="M38.3776 19.5111L36.8447 19.9544L37.3838 16.8213L38.3776 19.5111Z" fill="white"/>
<path d="M36.3898 19.5107L37.9227 19.9541L35.396 22.2005L36.3898 19.5107Z" fill="white"/>
<path d="M37.9906 20.5453L37.0473 19.3926L35.3628 22.2006L37.9906 20.5453Z" fill="white"/>
<path d="M37.3838 19.1855V20.1166L39.5062 19.1855H37.3838Z" fill="#C8102E"/>
<path d="M37.7881 20.294L37.249 19.5255L39.5905 19.1855L37.7881 20.294Z" fill="#C8102E"/>
<path d="M37.3837 19.1855V20.1166L35.2612 19.1855H37.3837Z" fill="#C8102E"/>
<path d="M36.9794 20.294L37.6027 19.5255L35.2612 19.1855L36.9794 20.294Z" fill="#C8102E"/>
<path d="M38.0395 19.6143L37.0288 19.8951L38.7133 21.373L38.0395 19.6143Z" fill="#C8102E"/>
<path d="M36.9795 20.2949L37.6028 19.5264L38.6977 21.3737L36.9795 20.2949Z" fill="#C8102E"/>
<path d="M36.7271 19.6154L37.7377 19.8962L37.384 17.8271L36.7271 19.6154Z" fill="#C8102E"/>
<path d="M38.0415 19.6154L37.0308 19.8962L37.3845 17.8271L38.0415 19.6154Z" fill="#C8102E"/>
<path d="M36.727 19.6143L37.7377 19.8951L36.0532 21.373L36.727 19.6143Z" fill="#C8102E"/>
<path d="M37.7895 20.2949L37.2504 19.5264L36.0713 21.3737L37.7895 20.2949Z" fill="#C8102E"/>
<path d="M47.2212 32.502V34.0833L50.7249 32.502H47.2212Z" fill="white"/>
<path d="M47.9118 34.3493L46.8506 33.0783L50.7249 32.502L47.9118 34.3493Z" fill="white"/>
<path d="M47.2215 32.502V34.0833L43.6504 32.502H47.2215Z" fill="white"/>
<path d="M46.5477 34.3493L47.5921 33.0783L43.6504 32.502L46.5477 34.3493Z" fill="white"/>
<path d="M48.3324 33.1973L46.6479 33.685L49.4274 36.1531L48.3324 33.1973Z" fill="white"/>
<path d="M46.5474 34.3501L47.5917 33.0791L49.4278 36.1531L46.5474 34.3501Z" fill="white"/>
<path d="M46.1094 33.196L47.7939 33.6838L47.2211 30.2402L46.1094 33.196Z" fill="white"/>
<path d="M48.3329 33.196L46.6484 33.6838L47.2212 30.2402L48.3329 33.196Z" fill="white"/>
<path d="M46.11 33.1973L47.7945 33.685L45.0151 36.1531L46.11 33.1973Z" fill="white"/>
<path d="M47.9125 34.3501L46.8512 33.0791L45.0151 36.1531L47.9125 34.3501Z" fill="white"/>
<path d="M47.2222 32.8291V33.908L49.7152 32.8291H47.2222Z" fill="#C8102E"/>
<path d="M47.6936 34.0984L46.9692 33.1969L49.715 32.7979L47.6936 34.0984Z" fill="#C8102E"/>
<path d="M47.2213 32.8271V33.906L44.7451 32.8271H47.2213Z" fill="#C8102E"/>
<path d="M46.7497 34.0981L47.474 33.2262L44.7451 32.8271L46.7497 34.0981Z" fill="#C8102E"/>
<path d="M47.9946 33.3154L46.8154 33.6406L48.7526 35.3845L47.9946 33.3154Z" fill="#C8102E"/>
<path d="M46.7495 34.0985L47.4738 33.2266L48.7541 35.3843L46.7495 34.0985Z" fill="#C8102E"/>
<path d="M46.4468 33.3153L47.6428 33.6404L47.2216 31.2314L46.4468 33.3153Z" fill="#C8102E"/>
<path d="M47.9965 33.3153L46.8174 33.6404L47.2217 31.2314L47.9965 33.3153Z" fill="#C8102E"/>
<path d="M46.4462 33.3154L47.6422 33.6406L45.6714 35.3845L46.4462 33.3154Z" fill="#C8102E"/>
<path d="M47.6928 34.0988L46.9684 33.1973L45.6714 35.3846L47.6928 34.0988Z" fill="#C8102E"/>
<g clip-path="url(#clip1)">
<path d="M-0.499512 0.188477L28.8674 18.4598L-0.499512 0.188477ZM-0.499512 18.4598L28.8674 0.188477L-0.499512 18.4598Z" fill="black"/>
<path d="M28.2053 20.0928L14.184 11.3619L0.151062 20.0928L-1.16162 16.826L10.8965 9.32376L-1.16162 1.82155L0.151062 -1.44531L14.184 7.28559L28.2053 -1.44531L29.518 1.82155L17.4599 9.32376L29.518 16.826L28.2053 20.0928Z" fill="white"/>
<path d="M-0.499512 0.188477L28.8674 18.4598L-0.499512 0.188477ZM-0.499512 18.4598L28.8674 0.188477L-0.499512 18.4598Z" fill="black"/>
<path d="M28.426 19.5585L14.184 10.6831L-0.069668 19.5585L-0.940918 17.3758L11.9884 9.32427L-0.940918 1.27276L-0.069668 -0.895508L14.184 7.96549L28.426 -0.895508L29.2973 1.27276L16.3679 9.32427L29.2973 17.3758L28.426 19.5585Z" fill="#C8102E"/>
<path d="M14.1849 0.188477V18.4598V0.188477ZM-0.498535 9.32412H28.8684H-0.498535Z" fill="black"/>
<path d="M16.6234 18.4598H11.7327V12.3742H-0.51123V6.27409H11.7327V0.188477H16.6234V6.27409H28.8673V12.3742H16.6234V18.4598Z" fill="white"/>
<path d="M14.1849 0.188477V18.4598V0.188477ZM-0.498535 9.32412H28.8684H-0.498535Z" fill="black"/>
<path d="M15.6476 18.4598H12.7085V11.1455H-0.51123V7.50277H12.7085V0.188477H15.6476V7.50277H28.8673V11.1455H15.6476V18.4598Z" fill="#C8102E"/>
</g>
</g>
<defs>
<clipPath id="clip0">
<path d="M0 4C0 1.79086 1.79086 0 4 0H60.9167C63.1258 0 64.9167 1.79086 64.9167 4V37C64.9167 39.2091 63.1258 41 60.9167 41H4C1.79086 41 0 39.2091 0 37V4Z" fill="white"/>
</clipPath>
<clipPath id="clip1">
<rect width="29.0417" height="18.7917" fill="white"/>
</clipPath>
</defs>
</svg>
