<svg width="30" height="31" viewBox="0 0 30 31" fill="none" xmlns="http://www.w3.org/2000/svg">
<path d="M15 27.0645C21.2132 27.0645 26.25 22.0277 26.25 15.8145C26.25 9.60125 21.2132 4.56445 15 4.56445C8.7868 4.56445 3.75 9.60125 3.75 15.8145C3.75 22.0277 8.7868 27.0645 15 27.0645Z" stroke="#0038FF" stroke-width="2.5" stroke-linecap="round" stroke-linejoin="round"/>
<path d="M15 22.0645V22.077" stroke="#0038FF" stroke-width="2.5" stroke-linecap="round" stroke-linejoin="round"/>
<path d="M15 17.6894C14.977 17.2836 15.0864 16.8814 15.3119 16.5432C15.5373 16.205 15.8666 15.9492 16.25 15.8144C16.7198 15.6347 17.1416 15.3485 17.482 14.9781C17.8224 14.6078 18.0721 14.1634 18.2117 13.6802C18.3512 13.1969 18.3766 12.6878 18.2859 12.193C18.1952 11.6982 17.991 11.2312 17.6891 10.8288C17.3873 10.4264 16.9962 10.0995 16.5466 9.87394C16.097 9.64836 15.6012 9.53022 15.0982 9.52882C14.5951 9.52743 14.0987 9.64281 13.6478 9.8659C13.197 10.089 12.804 10.4137 12.5 10.8144" stroke="#0038FF" stroke-width="2.5" stroke-linecap="round" stroke-linejoin="round"/>
</svg>
