<svg width="17" height="18" viewBox="0 0 17 18" fill="none" xmlns="http://www.w3.org/2000/svg">
<path d="M8.5 15.375C12.0208 15.375 14.875 12.5208 14.875 9C14.875 5.47918 12.0208 2.625 8.5 2.625C4.97918 2.625 2.125 5.47918 2.125 9C2.125 12.5208 4.97918 15.375 8.5 15.375Z" stroke="#FF6363" stroke-width="2" stroke-linecap="round" stroke-linejoin="round"/>
<path d="M8.5 12.543V12.5501" stroke="#FF6363" stroke-width="2" stroke-linecap="round" stroke-linejoin="round"/>
<path d="M8.50016 10.0618C8.48712 9.8319 8.54915 9.60394 8.6769 9.41231C8.80466 9.22068 8.99122 9.07575 9.2085 8.99934C9.47474 8.89753 9.71372 8.7353 9.90661 8.52544C10.0995 8.31557 10.241 8.06379 10.3201 7.78993C10.3992 7.51606 10.4136 7.22758 10.3622 6.94721C10.3108 6.66683 10.195 6.4022 10.024 6.17417C9.85298 5.94613 9.63136 5.7609 9.37658 5.63307C9.1218 5.50524 8.84083 5.4383 8.55579 5.43751C8.27074 5.43672 7.9894 5.5021 7.73392 5.62852C7.47844 5.75493 7.25579 5.93893 7.0835 6.16601" stroke="#FF6363" stroke-width="2" stroke-linecap="round" stroke-linejoin="round"/>
</svg>
