<svg width="137" height="93" viewBox="0 0 137 93" fill="none" xmlns="http://www.w3.org/2000/svg">
<path d="M115.08 0C122.646 0 128.78 6.12316 128.78 13.6765V68.3824C128.78 81.9783 117.739 93 104.12 93C95.5343 93 87.9737 88.6202 83.5575 81.9767L83.6133 82.0602L21.9197 82.0588C14.3534 82.0588 8.21973 75.9357 8.21973 68.3824V13.6765C8.21973 6.12316 14.3534 0 21.9197 0H115.08ZM104.12 49.2353C93.5269 49.2353 84.9397 57.8077 84.9397 68.3824C84.9397 78.957 93.5269 87.5294 104.12 87.5294C114.713 87.5294 123.3 78.957 123.3 68.3824C123.3 57.8077 114.713 49.2353 104.12 49.2353ZM115.628 60.9583C116.651 61.96 116.721 63.5671 115.825 64.6508L115.667 64.8264L102.239 78.5028C101.221 79.5396 99.5834 79.5941 98.5004 78.6663L98.3252 78.5025L92.5726 72.6412C91.5135 71.5621 91.5312 69.8303 92.6121 68.7731C93.6362 67.7715 95.247 67.7347 96.3143 68.651L96.4869 68.8126L100.282 72.6795L111.753 60.9972C112.812 59.9183 114.547 59.9009 115.628 60.9583ZM115.388 5.47625L115.08 5.47059H21.9197C17.4831 5.47059 13.8675 8.97939 13.7054 13.3688L13.6997 13.6765V68.3824C13.6997 72.8113 17.2146 76.4208 21.6116 76.5826L21.9197 76.5882L80.8631 76.5887L80.8563 76.5695C79.9518 74.0081 79.4597 71.2526 79.4597 68.3824C79.4597 66.4692 79.6783 64.607 80.092 62.8193L80.0707 62.9122L73.9797 62.9118C72.4665 62.9118 71.2397 61.6871 71.2397 60.1765C71.2397 58.6658 72.4665 57.4412 73.9797 57.4412L82.0227 57.4419L82.2122 57.0691C86.3162 49.1653 94.5862 43.7647 104.12 43.7647C111.914 43.7647 118.864 47.3748 123.383 53.0114L123.302 52.9104L123.3 13.6765C123.3 9.24749 119.785 5.63803 115.388 5.47625ZM38.3597 57.4412C39.873 57.4412 41.0997 58.6658 41.0997 60.1765C41.0997 61.6871 39.873 62.9118 38.3597 62.9118H24.6597C23.1465 62.9118 21.9197 61.6871 21.9197 60.1765C21.9197 58.6658 23.1465 57.4412 24.6597 57.4412H38.3597ZM63.0197 57.4412C64.533 57.4412 65.7597 58.6658 65.7597 60.1765C65.7597 61.6871 64.533 62.9118 63.0197 62.9118H49.3197C47.8065 62.9118 46.5797 61.6871 46.5797 60.1765C46.5797 58.6658 47.8065 57.4412 49.3197 57.4412H63.0197ZM41.0997 19.1471C45.6395 19.1471 49.3197 22.821 49.3197 27.3529V38.2941C49.3197 42.8261 45.6395 46.5 41.0997 46.5H30.1397C25.5999 46.5 21.9197 42.8261 21.9197 38.2941V27.3529C21.9197 22.821 25.5999 19.1471 30.1397 19.1471H41.0997ZM43.8397 35.5588H27.3997V38.2941C27.3997 39.7361 28.5175 40.9175 29.9352 41.0219L30.1397 41.0294H41.0997C42.5442 41.0294 43.7276 39.9136 43.8322 38.4983L43.8397 38.2941V35.5588ZM41.0997 24.6176H30.1397C28.6953 24.6176 27.5118 25.7335 27.4072 27.1488L27.3997 27.3529V30.0882H43.8397V27.3529C43.8397 25.9109 42.722 24.7296 41.3042 24.6251L41.0997 24.6176ZM112.34 19.1471C113.853 19.1471 115.08 20.3717 115.08 21.8824C115.08 23.393 113.853 24.6176 112.34 24.6176H98.6397C97.1265 24.6176 95.8997 23.393 95.8997 21.8824C95.8997 20.3717 97.1265 19.1471 98.6397 19.1471H112.34Z" fill="#1EC096"/>
</svg>
