<svg width="137" height="93" viewBox="0 0 137 93" fill="none" xmlns="http://www.w3.org/2000/svg">
<path fill-rule="evenodd" clip-rule="evenodd" d="M128.78 13.6765C128.78 6.12316 122.647 0 115.08 0H21.9202C14.3539 0 8.22021 6.12316 8.22021 13.6765V68.3824C8.22021 75.9357 14.3539 82.0588 21.9202 82.0588L83.6138 82.0602C88.0377 88.6569 95.5709 93 104.12 93C117.74 93 128.78 81.9783 128.78 68.3824V13.6765ZM115.08 5.47059L115.388 5.47625C119.785 5.63803 123.3 9.24749 123.3 13.6765L123.302 52.9104L123.303 52.9114C118.782 47.3321 111.869 43.7647 104.12 43.7647C94.5867 43.7647 86.3167 49.1653 82.2127 57.0691L82.0232 57.4419L73.9802 57.4412C72.467 57.4412 71.2402 58.6658 71.2402 60.1765C71.2402 61.6871 72.467 62.9118 73.9802 62.9118L80.0712 62.9122C79.6713 64.6715 79.4602 66.5023 79.4602 68.3824C79.4602 71.2526 79.9523 74.0081 80.8568 76.5695L80.8636 76.5887L21.9202 76.5882L21.612 76.5826C17.2151 76.4208 13.7002 72.8113 13.7002 68.3824V13.6765L13.7059 13.3688C13.8679 8.97939 17.4836 5.47059 21.9202 5.47059H115.08ZM41.1002 60.1765C41.1002 58.6658 39.8735 57.4412 38.3602 57.4412H24.6602C23.147 57.4412 21.9202 58.6658 21.9202 60.1765C21.9202 61.6871 23.147 62.9118 24.6602 62.9118H38.3602C39.8735 62.9118 41.1002 61.6871 41.1002 60.1765ZM65.7602 60.1765C65.7602 58.6658 64.5335 57.4412 63.0202 57.4412H49.3202C47.807 57.4412 46.5802 58.6658 46.5802 60.1765C46.5802 61.6871 47.807 62.9118 49.3202 62.9118H63.0202C64.5335 62.9118 65.7602 61.6871 65.7602 60.1765ZM49.3202 27.3529C49.3202 22.821 45.64 19.1471 41.1002 19.1471H30.1402C25.6004 19.1471 21.9202 22.821 21.9202 27.3529V38.2941C21.9202 42.8261 25.6004 46.5 30.1402 46.5H41.1002C45.64 46.5 49.3202 42.8261 49.3202 38.2941V27.3529ZM27.4002 35.5588H43.8402V38.2941L43.8327 38.4983C43.7281 39.9136 42.5447 41.0294 41.1002 41.0294H30.1402L29.9357 41.0219C28.518 40.9175 27.4002 39.7361 27.4002 38.2941V35.5588ZM30.1402 24.6176H41.1002L41.3047 24.6251C42.7225 24.7296 43.8402 25.9109 43.8402 27.3529V30.0882H27.4002V27.3529L27.4077 27.1488C27.5123 25.7335 28.6957 24.6176 30.1402 24.6176ZM115.08 21.8824C115.08 20.3717 113.853 19.1471 112.34 19.1471H98.6402C97.127 19.1471 95.9002 20.3717 95.9002 21.8824C95.9002 23.393 97.127 24.6176 98.6402 24.6176H112.34C113.853 24.6176 115.08 23.393 115.08 21.8824Z" fill="#FF6363"/>
<path d="M104 71V71.01M104 65V67V65Z" stroke="white" stroke-width="2" stroke-linecap="round" stroke-linejoin="round"/>
<path d="M97.0002 75.0005H111C111.326 74.9982 111.647 74.9161 111.935 74.7614C112.222 74.6066 112.467 74.3839 112.648 74.1127C112.83 73.8415 112.942 73.53 112.976 73.2054C113.009 72.8809 112.963 72.553 112.84 72.2505L105.74 60.0005C105.567 59.6879 105.314 59.4273 105.006 59.2459C104.698 59.0644 104.347 58.9688 103.99 58.9688C103.633 58.9688 103.282 59.0644 102.974 59.2459C102.667 59.4273 102.413 59.6879 102.24 60.0005L95.1402 72.2505C95.0201 72.5461 94.9725 72.8661 95.0013 73.1838C95.0302 73.5015 95.1346 73.8078 95.3058 74.0769C95.4771 74.3461 95.7103 74.5703 95.9859 74.731C96.2615 74.8917 96.5716 74.9841 96.8902 75.0005" stroke="white" stroke-width="2" stroke-linecap="round" stroke-linejoin="round"/>
</svg>
