<svg width="30" height="28" viewBox="0 0 30 28" fill="none" xmlns="http://www.w3.org/2000/svg">
<path d="M0.960354 12.5889L0.960368 12.5888C0.969811 12.5648 0.983715 12.545 0.992 12.5337C1.00201 12.5201 1.0138 12.5059 1.02633 12.4916C1.0515 12.4629 1.08504 12.428 1.1257 12.3875C1.20735 12.3061 1.32379 12.1966 1.47343 12.0601C1.77305 11.7867 2.21056 11.4008 2.7799 10.9075C3.91884 9.92072 5.58837 8.50165 7.74438 6.68847L7.84093 6.80327L7.74439 6.68847C9.57052 5.15274 11.2499 3.74409 12.4847 2.7117C13.102 2.19551 13.6083 1.7733 13.9661 1.47626C14.145 1.32777 14.287 1.21041 14.3874 1.12818C14.4375 1.0871 14.4775 1.05455 14.5066 1.03119C14.5318 1.01093 14.5568 0.991104 14.5706 0.982097M0.960354 12.5889L14.5706 0.982094C14.5706 0.982095 14.5706 0.982096 14.5706 0.982097M0.960354 12.5889C0.812039 12.966 0.815146 13.3411 0.958095 13.6401C1.10251 13.9421 1.38317 14.1514 1.75333 14.1989L1.75335 14.1989C1.84491 14.2107 1.93332 14.2203 2.0239 14.21C2.11859 14.1993 2.2069 14.1683 2.30627 14.1125C2.49377 14.0072 2.74636 13.7973 3.19299 13.4213L3.88991 12.8347L3.93079 19.6532L3.97359 26.7914L3.97395 26.8515L4.01573 26.8947L4.29528 27.184L4.2953 27.184L4.57485 27.4734L4.61908 27.5191H4.68273H8.53994H12.3971H12.4658L12.5107 27.4672L12.7609 27.1773L13.0111 26.8874L13.0476 26.8452V26.7894V21.8234V17.0074H14.9948H16.942V21.8052V26.7531V26.806L16.9752 26.8473L17.2235 27.1553L17.4718 27.4633L17.5169 27.5191H17.5886H21.4521C23.5021 27.5191 24.5491 27.5186 25.106 27.4574C25.3828 27.427 25.5669 27.3795 25.6953 27.2893C25.8282 27.1961 25.882 27.0696 25.9303 26.9562L25.9325 26.951C25.9325 26.951 25.9325 26.951 25.9325 26.9509C25.9429 26.9266 25.946 26.9007 25.9468 26.8948C25.9486 26.882 25.9501 26.867 25.9515 26.8508C25.9543 26.8181 25.9569 26.7742 25.9596 26.7206C25.9649 26.6128 25.9702 26.4607 25.9756 26.2696C25.9863 25.8871 25.9972 25.3455 26.0075 24.685C26.0282 23.3637 26.047 21.5646 26.0587 19.6066L26.0996 12.8099L26.7491 13.3629L26.8463 13.2487L26.7491 13.3629C27.0251 13.5979 27.2584 13.7839 27.4599 13.9222C27.6604 14.0598 27.8371 14.1557 27.9996 14.2035C28.1663 14.2526 28.3206 14.2517 28.4675 14.1933C28.6099 14.1366 28.7304 14.0316 28.843 13.9012C29.2183 13.4664 29.2575 12.8043 28.9165 12.362L28.9165 12.3619C28.9008 12.3416 28.8714 12.3135 28.8443 12.2882C28.8126 12.2586 28.7696 12.2196 28.7165 12.1722C28.6101 12.0772 28.4607 11.9464 28.2748 11.7852C27.9028 11.4626 27.3827 11.0166 26.7636 10.4887C25.5253 9.43286 23.8901 8.04826 22.2493 6.66496C20.6086 5.28165 18.962 3.89945 17.7012 2.84836C17.0708 2.32285 16.5366 1.87991 16.1476 1.56093C15.9532 1.40148 15.7946 1.27269 15.6784 1.17994C15.5675 1.09143 15.4844 1.02698 15.449 1.00578L15.449 1.00576C15.2955 0.913822 15.1486 0.855994 14.9983 0.850439C14.8444 0.844758 14.7057 0.894325 14.5706 0.982097M0.960354 12.5889L14.5706 0.982097M18.9539 25.2371L21.4775 25.2124L24.0044 25.1877L24.0259 18.1765L24.0476 11.0874L19.5853 7.32834C18.3434 6.28221 17.2045 5.32431 16.3701 4.62372C15.9528 4.27341 15.6118 3.98749 15.372 3.78705C15.2521 3.68682 15.1576 3.60805 15.0917 3.55333C15.0812 3.54466 15.0717 3.53674 15.063 3.52954C15.06 3.53165 15.0568 3.53385 15.0536 3.53612C14.9896 3.58157 14.8962 3.65182 14.7757 3.74519C14.5352 3.93152 14.1922 4.20568 13.7717 4.54743C12.931 5.23072 11.783 6.18202 10.5308 7.23634L6.02924 11.0267L6.02881 18.1714L6.02839 25.2358H8.53198H11.0356V20.5216C11.0356 17.9279 11.0372 16.598 11.0915 15.8859C11.1185 15.5324 11.1595 15.3101 11.2313 15.1571C11.3098 14.9901 11.42 14.9168 11.5298 14.8487L18.9539 25.2371ZM18.9539 25.2371V20.4212V15.4538V15.398L18.9175 15.3557L18.6673 15.0659L18.4171 14.776L18.3722 14.724H18.3035H15.0385C14.0001 14.724 13.1672 14.7333 12.5801 14.7508C12.2869 14.7595 12.0533 14.7704 11.8855 14.7832C11.8019 14.7897 11.7323 14.7968 11.6789 14.8048C11.6523 14.8088 11.6274 14.8133 11.6055 14.8188C11.5877 14.8232 11.5574 14.8316 11.5298 14.8487L18.9539 25.2371Z" fill="#0038FF" stroke="#0038FF" stroke-width="0.3"/>
</svg>
