<svg width="32" height="30" viewBox="0 0 32 30" fill="none" xmlns="http://www.w3.org/2000/svg">
<path fill-rule="evenodd" clip-rule="evenodd" d="M7.65222 0.037652C7.4814 0.0902277 7.33733 0.183101 7.20037 0.328927C6.93653 0.609846 6.92763 0.647508 6.91434 1.53719L6.90239 2.3375H5.30867C3.56127 2.3375 3.35374 2.35562 2.75961 2.56001C1.40429 3.02622 0.374132 4.20951 0.0679596 5.65173C0.00312795 5.95716 0 6.4401 0 16.1782C0 25.9372 0.00297893 26.3985 0.0683319 26.7046C0.403699 28.2757 1.52784 29.4591 3.10305 29.8994L3.46315 30H15.9938H28.5244L28.8845 29.8994C30.1215 29.5537 31.0214 28.815 31.5607 27.7026C31.8055 27.1978 31.9153 26.82 31.9714 26.2903C31.9963 26.0542 32.0051 22.5263 31.9972 15.9145L31.9851 5.89653L31.906 5.5764C31.5457 4.11765 30.551 3.00607 29.1964 2.54829C28.6271 2.35592 28.4072 2.3375 26.6789 2.3375H25.0852L25.0732 1.53719C25.0599 0.647545 25.051 0.609959 24.7872 0.328814C24.3832 -0.101696 23.767 -0.105801 23.3468 0.319248C23.0618 0.607436 23.0318 0.730514 23.0318 1.6098V2.3375H15.9938H8.95577V1.62878C8.95577 0.744712 8.92226 0.603933 8.64517 0.323655C8.37058 0.0459376 7.98565 -0.0649384 7.65222 0.037652ZM6.90768 5.26841C6.90768 6.24723 6.93065 6.36771 7.16972 6.64242C7.46647 6.98337 7.96464 7.08223 8.37154 6.88085C8.59404 6.77077 8.72337 6.63963 8.85516 6.3905C8.93209 6.24505 8.93786 6.17907 8.94885 5.32219L8.96058 4.40889H15.9938H23.027L23.0387 5.32219C23.0504 6.23127 23.0509 6.23639 23.151 6.42831C23.4844 7.06758 24.3509 7.17887 24.8178 6.64242C25.0569 6.36771 25.0799 6.24723 25.0799 5.26841V4.40889H26.6175C27.8718 4.40889 28.1959 4.41944 28.377 4.46621C29.0877 4.64974 29.6326 5.17617 29.8572 5.89653C29.9348 6.14517 29.9395 6.22761 29.9395 7.3465V8.53285H15.9938H2.0481V7.3465C2.0481 6.04009 2.05547 5.98258 2.2824 5.51991C2.44923 5.17979 2.82142 4.8028 3.15068 4.64047C3.59843 4.41974 3.6528 4.41409 5.35298 4.41138L6.90768 4.40889V5.26841ZM29.9494 18.4284C29.9399 25.9011 29.9365 26.2427 29.8708 26.441C29.6849 27.0011 29.3266 27.4428 28.8557 27.6925C28.3357 27.9682 29.4437 27.9463 15.9938 27.9463C2.54389 27.9463 3.65183 27.9682 3.13184 27.6925C2.66093 27.4428 2.30266 27.0011 2.1168 26.441C2.05104 26.2427 2.04769 25.9011 2.03819 18.4284L2.02829 10.6231H15.9938H29.9593L29.9494 18.4284ZM4.85958 15.3967V17.8541H7.41039H9.9612V15.4249C9.9612 14.0889 9.96541 12.9874 9.97051 12.9772C9.97561 12.967 8.82775 12.9542 7.4197 12.9489L4.85958 12.9393V15.3967ZM13.3126 15.3967V17.8541H15.8634H18.4143V15.4061C18.4143 13.4728 18.4045 12.9581 18.3677 12.9581C18.3421 12.958 17.1942 12.9538 15.8169 12.9486L13.3126 12.9393V15.3967ZM22.0042 12.9555C21.9953 12.9643 21.9888 14.0702 21.9897 15.4129L21.9912 17.8541H24.5596H27.128V15.3967V12.9393H24.5741C23.1694 12.9393 22.013 12.9465 22.0042 12.9555ZM4.85958 23.1644V25.6124H7.40987H9.96012L9.96999 23.1644L9.97982 20.7164H7.4197H4.85958V23.1644ZM13.3126 23.1644V25.6124H15.8634H18.4143V23.1644V20.7164H15.8634H13.3126V23.1644ZM21.9891 23.1644V25.6124H24.5586H27.128V23.1644V20.7164H24.5586H21.9891V23.1644Z" fill="black"/>
</svg>
