<svg width="39" height="36" viewBox="0 0 39 36" fill="none" xmlns="http://www.w3.org/2000/svg">
<path d="M24.748 12H24.7639" stroke="#484848" stroke-opacity="0.5" stroke-width="1.5" stroke-linecap="round" stroke-linejoin="round"/>
<path d="M27.9154 6H12.082C9.45868 6 7.33203 8.01472 7.33203 10.5V25.5C7.33203 27.9853 9.45868 30 12.082 30H27.9154C30.5387 30 32.6654 27.9853 32.6654 25.5V10.5C32.6654 8.01472 30.5387 6 27.9154 6Z" stroke="#484848" stroke-opacity="0.5" stroke-width="1.5" stroke-linecap="round" stroke-linejoin="round"/>
<path d="M7.33203 22.4999L13.6654 16.4999C14.3875 15.8417 15.2066 15.4951 16.0404 15.4951C16.8742 15.4951 17.6933 15.8417 18.4154 16.4999L26.332 23.9999" stroke="#484848" stroke-opacity="0.5" stroke-width="1.5" stroke-linecap="round" stroke-linejoin="round"/>
<path d="M23.1641 20.9999L24.7474 19.4999C25.4695 18.8417 26.2886 18.4951 27.1224 18.4951C27.9562 18.4951 28.7753 18.8417 29.4974 19.4999L32.6641 22.4999" stroke="#484848" stroke-opacity="0.5" stroke-width="1.5" stroke-linecap="round" stroke-linejoin="round"/>
</svg>
