<svg width="27" height="27" viewBox="0 0 27 27" fill="none" xmlns="http://www.w3.org/2000/svg">
<path d="M24.443 19.27H24.4688C24.6511 19.27 24.826 19.1976 24.9549 19.0687C25.0838 18.9397 25.1562 18.7649 25.1562 18.5825V8.41747C25.1562 8.30292 25.1276 8.19019 25.073 8.08951L25.9519 7.61246L25.073 8.08951C25.0183 7.98883 24.9394 7.90341 24.8433 7.84099C24.7473 7.77858 24.6372 7.74115 24.523 7.73212C24.4138 7.72349 24.3042 7.74105 24.2034 7.78327L19.8543 10.8446C19.8543 10.8446 19.8542 10.8446 19.8542 10.8446C19.7641 10.9081 19.6906 10.9922 19.6398 11.0901C19.5891 11.1878 19.5626 11.2963 19.5625 11.4064L24.443 19.27ZM24.443 19.27C24.3607 19.2668 24.2795 19.2488 24.2035 19.2168L19.8543 16.1554C19.8543 16.1554 19.8542 16.1554 19.8542 16.1554C19.7641 16.0919 19.6906 16.0078 19.6398 15.9099C19.5891 15.8122 19.5626 15.7037 19.5625 15.5936C19.5625 15.5935 19.5625 15.5934 19.5625 15.5933V11.4067L24.443 19.27Z" stroke="white" stroke-width="2"/>
<path d="M14.1318 20.0938H4.43072C4.43045 20.0938 4.43018 20.0938 4.42991 20.0938C3.74431 20.0928 3.08704 19.8201 2.60223 19.3353C2.11735 18.8504 1.84458 18.193 1.84375 17.5073V9.49274C1.84458 8.80702 2.11735 8.14962 2.60223 7.66473C3.08712 7.17985 3.74452 6.90708 4.43024 6.90625H14.1575C14.8365 6.9072 15.4874 7.17735 15.9675 7.65747C16.4476 8.13756 16.7178 8.78841 16.7188 9.46734C16.7188 9.46758 16.7188 9.46782 16.7188 9.46806V17.5068C16.7188 17.5071 16.7188 17.5073 16.7188 17.5076C16.7178 18.1932 16.4451 18.8505 15.9603 19.3353C15.4755 19.8201 14.8182 20.0928 14.1326 20.0938C14.1323 20.0938 14.1321 20.0938 14.1318 20.0938Z" stroke="white" stroke-width="2"/>
</svg>
