<svg width="164" height="46" viewBox="0 0 164 46" fill="none" xmlns="http://www.w3.org/2000/svg">
<path d="M34.6976 11.9043C32.9307 11.9043 31.4951 13.3399 31.4951 15.1068V18.4418C31.4951 19.1927 31.3847 19.9216 31.1638 20.6283H31.1417C30.2583 23.5216 27.6521 25.686 24.56 25.9069C24.5159 25.9069 24.4717 25.9069 24.4275 25.9069C24.3392 25.9069 24.2508 25.9069 24.1846 25.929C24.1183 25.929 24.0521 25.929 23.9858 25.929C23.9195 25.929 23.8533 25.929 23.787 25.929C23.6987 25.929 23.6103 25.929 23.5441 25.9069C23.4999 25.9069 23.4557 25.9069 23.4116 25.9069C20.3195 25.664 17.7133 23.4995 16.8299 20.6283H16.8078C16.5869 19.9437 16.4765 19.2148 16.4765 18.4418V15.2393C16.4765 13.4724 15.0409 12.0368 13.274 12.0368C11.5071 12.0368 10.0715 13.4724 10.0715 15.2393V18.243C10.0715 19.0602 10.1378 19.8553 10.2703 20.6283H10.2482C11.1758 26.5032 15.7918 31.1634 21.6447 32.1573C21.733 32.1794 21.7993 32.1794 21.8876 32.2015C22.0201 32.2235 22.1526 32.2456 22.2852 32.2677C22.3956 32.2898 22.506 32.2898 22.6385 32.3119C22.749 32.3119 22.8594 32.334 22.9698 32.334C23.0803 32.334 23.1907 32.3561 23.3011 32.3561C23.4116 32.3561 23.5441 32.3782 23.6545 32.3782C23.6987 32.3782 23.7208 32.3782 23.7649 32.3782C23.8312 32.3782 23.9195 32.3782 23.9858 32.3782C24.0521 32.3782 24.1404 32.3782 24.2067 32.3782C24.2508 32.3782 24.2729 32.3782 24.3171 32.3782C24.4275 32.3782 24.56 32.3782 24.6705 32.3561C24.7809 32.3561 24.8913 32.3561 25.0018 32.334C25.1122 32.334 25.2226 32.3119 25.333 32.3119C25.4435 32.2898 25.5539 32.2898 25.6864 32.2677C25.8189 32.2456 25.9515 32.2235 26.084 32.2015C26.1723 32.1794 26.2607 32.1794 26.3269 32.1573C32.1797 31.1634 36.7958 26.5032 37.7234 20.6283H37.7013C37.8338 19.8553 37.9001 19.0602 37.9001 18.243V15.1068C37.9221 13.3399 36.4645 11.9043 34.6976 11.9043Z" fill="#7900F8"/>
<path d="M33.8139 42.5379H14.1572C6.36081 42.5379 0 36.1771 0 28.3807V14.1793C0 6.36081 6.36081 0 14.1793 0H33.836C35.5587 0 36.9722 1.41351 36.9722 3.13623C36.9722 4.85895 35.5587 6.27246 33.836 6.27246H14.1793C9.82833 6.27246 6.27246 9.82833 6.27246 14.1793V28.3807C6.27246 32.7316 9.82833 36.2875 14.1793 36.2875H33.836C38.1869 36.2875 41.7428 32.7316 41.7428 28.3807V14.1793C41.7428 12.4566 43.1563 11.0431 44.879 11.0431C46.6017 11.0431 48.0153 12.4566 48.0153 14.1793V28.3807C47.9932 36.1771 41.6324 42.5379 33.8139 42.5379Z" fill="#7900F8"/>
<path d="M42.5157 8.72431C44.2844 8.72431 45.7182 7.29051 45.7182 5.52182C45.7182 3.75314 44.2844 2.31934 42.5157 2.31934C40.747 2.31934 39.3132 3.75314 39.3132 5.52182C39.3132 7.29051 40.747 8.72431 42.5157 8.72431Z" fill="#FF118D"/>
<path d="M66.7852 12.7705V25.1162C66.7852 26.4014 67.1452 27.4222 67.8652 28.1787C68.5944 28.9261 69.6152 29.2998 70.9277 29.2998C72.2311 29.2998 73.2428 28.9261 73.9629 28.1787C74.6921 27.4222 75.0566 26.4014 75.0566 25.1162V12.7705H79.1855V25.5264C79.1855 27.7139 78.4336 29.4821 76.9297 30.8311C75.4349 32.1709 73.4342 32.8408 70.9277 32.8408C68.4121 32.8408 66.4023 32.1709 64.8984 30.8311C63.4036 29.4821 62.6562 27.7139 62.6562 25.5264V12.7705H66.7852ZM82.2344 32.499V12.7705H86.2266V32.499H82.2344ZM94.5801 29.8467C95.4642 29.8467 96.2116 29.5915 96.8223 29.0811C97.4421 28.5615 97.752 27.9098 97.752 27.126V26.0596L94.6621 26.251C93.9147 26.3057 93.3359 26.4925 92.9258 26.8115C92.5247 27.1305 92.3242 27.5498 92.3242 28.0693C92.3242 28.6162 92.5293 29.0492 92.9395 29.3682C93.3496 29.6872 93.8965 29.8467 94.5801 29.8467ZM93.2676 32.7314C91.8548 32.7314 90.6836 32.3167 89.7539 31.4873C88.8242 30.6579 88.3594 29.5915 88.3594 28.2881C88.3594 26.9574 88.8516 25.9137 89.8359 25.1572C90.8203 24.4007 92.2285 23.9678 94.0605 23.8584L97.752 23.6396V22.6689C97.752 21.9945 97.5286 21.4658 97.082 21.083C96.6445 20.7002 96.0475 20.5088 95.291 20.5088C94.5618 20.5088 93.9648 20.6729 93.5 21.001C93.0443 21.3291 92.7663 21.7712 92.666 22.3271H89.0156C89.0885 20.887 89.7038 19.7295 90.8613 18.8545C92.0189 17.9704 93.5547 17.5283 95.4688 17.5283C97.3464 17.5283 98.8503 17.9749 99.9805 18.8682C101.111 19.7614 101.676 20.9463 101.676 22.4229V32.499H97.8203V30.2568H97.7383C97.3372 31.0225 96.7266 31.6286 95.9062 32.0752C95.0859 32.5127 94.2064 32.7314 93.2676 32.7314ZM104.355 32.499V12.7705H108.348V32.499H104.355ZM111.109 32.499V17.8428H115.102V32.499H111.109ZM114.623 15.6279C114.213 16.029 113.707 16.2295 113.105 16.2295C112.504 16.2295 111.998 16.029 111.588 15.6279C111.178 15.2269 110.973 14.7393 110.973 14.165C110.973 13.5817 111.178 13.0941 111.588 12.7021C111.998 12.3011 112.504 12.1006 113.105 12.1006C113.707 12.1006 114.213 12.3011 114.623 12.7021C115.033 13.0941 115.238 13.5817 115.238 14.165C115.238 14.7393 115.033 15.2269 114.623 15.6279ZM131.166 17.8428L126.135 32.499H121.623L116.551 17.8428H120.83L123.879 28.9717H123.961L126.996 17.8428H131.166ZM138.727 20.4814C137.861 20.4814 137.136 20.7777 136.553 21.3701C135.979 21.9626 135.655 22.7191 135.582 23.6396H141.803C141.757 22.7008 141.452 21.9398 140.887 21.3564C140.331 20.7731 139.611 20.4814 138.727 20.4814ZM141.857 28.0146H145.521C145.303 29.4548 144.583 30.6169 143.361 31.501C142.149 32.376 140.641 32.8135 138.836 32.8135C136.585 32.8135 134.816 32.139 133.531 30.79C132.255 29.4411 131.617 27.5908 131.617 25.2393C131.617 22.8968 132.255 21.0283 133.531 19.6338C134.807 18.2301 136.525 17.5283 138.686 17.5283C140.809 17.5283 142.5 18.1937 143.758 19.5244C145.016 20.8551 145.645 22.637 145.645 24.8701V26.0869H135.541V26.333C135.541 27.3812 135.846 28.2334 136.457 28.8896C137.077 29.5368 137.893 29.8604 138.904 29.8604C139.633 29.8604 140.262 29.6963 140.791 29.3682C141.32 29.0309 141.675 28.5798 141.857 28.0146Z" fill="#7900F8"/>
</svg>
