<svg width="51" height="50" viewBox="0 0 51 50" fill="none" xmlns="http://www.w3.org/2000/svg">
<circle cx="25.5" cy="25" r="25" fill="#E1E1E1"/>
<path d="M12.6136 20.549L12.5049 12.7194C12.4998 12.3209 12.8258 11.9949 13.2243 12.0001L21.0539 12.1139C21.68 12.1243 21.9905 12.8798 21.5455 13.3248L19.3668 15.5035L22.9893 19.1259L19.6256 22.4896L16.0032 18.8671L13.8245 21.0458C13.3847 21.4856 12.624 21.1751 12.6136 20.549Z" fill="#455A64"/>
<path d="M34.302 18.9127L36.4806 21.0914C36.9257 21.5364 37.6812 21.2259 37.6916 20.5998L37.8054 12.7702C37.8106 12.3717 37.4846 12.0457 37.0861 12.0508L29.2565 12.1647C28.6303 12.175 28.3198 12.9306 28.7649 13.3756L30.9383 15.5439L27.3159 19.1663L30.6796 22.53L34.302 18.9127Z" fill="#455A64"/>
<path d="M28.7595 35.6752C28.3145 36.1202 28.625 36.8757 29.2511 36.8861L37.0807 36.9999C37.4792 37.0051 37.8052 36.6791 37.8 36.2806L37.6862 28.451C37.6758 27.8249 36.9203 27.5144 36.4753 27.9594L34.2966 30.138L30.6742 26.5156L27.3105 29.8793L30.933 33.5017L28.7595 35.6752Z" fill="#455A64"/>
<path d="M13.2245 36.9492L21.0541 36.8353C21.6802 36.825 21.9907 36.0694 21.5457 35.6244L19.3671 33.4509L22.9895 29.8285L19.6258 26.4648L16.0034 30.0873L13.8248 27.9086C13.3797 27.4636 12.6242 27.7741 12.6138 28.4003L12.5 36.2299C12.5 36.6283 12.826 36.9543 13.2245 36.9492Z" fill="#455A64"/>
</svg>
