<svg width="36" height="34" viewBox="0 0 36 34" fill="none" xmlns="http://www.w3.org/2000/svg">
<path d="M25 6.5H5C3.62125 6.5 2.5 7.62125 2.5 9V31.5L9.16625 26.5H25C26.3787 26.5 27.5 25.3787 27.5 24V9C27.5 7.62125 26.3787 6.5 25 6.5ZM25 24H8.33375L5 26.5V9H25V24Z" fill="#0E0023"/>
<path d="M18.75 19C20.1307 19 21.25 17.8807 21.25 16.5C21.25 15.1193 20.1307 14 18.75 14C17.3693 14 16.25 15.1193 16.25 16.5C16.25 17.8807 17.3693 19 18.75 19Z" fill="#1F162D"/>
<path d="M11.25 19C12.6307 19 13.75 17.8807 13.75 16.5C13.75 15.1193 12.6307 14 11.25 14C9.86929 14 8.75 15.1193 8.75 16.5C8.75 17.8807 9.86929 19 11.25 19Z" fill="#1F162D"/>
<circle cx="28" cy="8" r="8" fill="#FF6363"/>
<path d="M27.2119 8.92383H28.0811C28.877 8.92383 29.3604 9.31445 29.3604 9.95898C29.3604 10.5547 28.8428 10.9697 28.1055 10.9697C27.3291 10.9697 26.8408 10.5791 26.7969 9.9834H25.3857C25.4541 11.2822 26.4941 12.1562 28.0859 12.1562C29.7119 12.1562 30.8594 11.3164 30.8594 10.0518C30.8594 9.0752 30.1807 8.44043 29.1309 8.35254V8.32324C29.9951 8.16699 30.5859 7.54199 30.5859 6.67773C30.5859 5.5498 29.585 4.79785 28.1201 4.79785C26.5918 4.79785 25.5762 5.64746 25.5225 6.95117H26.8799C26.9189 6.33594 27.373 5.93066 28.0566 5.93066C28.7891 5.93066 29.1943 6.30664 29.1943 6.87793C29.1943 7.45898 28.7402 7.85938 28.0664 7.85938H27.2119V8.92383Z" fill="white"/>
</svg>
