<svg width="51" height="50" viewBox="0 0 51 50" fill="none" xmlns="http://www.w3.org/2000/svg">
<circle cx="25.5" cy="25" r="25" fill="#55B88D"/>
<path d="M25.1929 30.956C27.6547 30.956 29.6575 28.9532 29.6575 26.4917V16.4643C29.6575 14.0025 27.6547 12 25.1929 12C22.731 12 20.7285 14.0025 20.7285 16.4643V26.4919C20.7285 28.9535 22.731 30.956 25.1929 30.956Z" fill="white"/>
<path d="M32.3682 23.8223H31.4793C31.1938 23.8223 30.9621 24.054 30.9621 24.3395V26.1574C30.9621 29.3384 28.3738 31.9267 25.1925 31.9267C22.0112 31.9267 19.4234 29.3384 19.4234 26.1574V24.3395C19.4234 24.054 19.1916 23.8223 18.9061 23.8223H18.0172C17.7317 23.8223 17.5 24.054 17.5 24.3395V26.1574C17.5 29.9609 20.4568 33.3127 24.2309 33.7883V35.0762H20.2611C19.9755 35.0762 19.7438 35.3079 19.7438 35.5935V36.4821C19.7438 36.7676 19.9755 36.9993 20.2611 36.9993H30.1244C30.4099 36.9993 30.6416 36.7676 30.6416 36.4821V35.5935C30.6416 35.3079 30.4099 35.0762 30.1244 35.0762H26.1543V33.7883C29.9286 33.3129 32.8852 29.9609 32.8852 26.1574V24.3395C32.8855 24.0537 32.6537 23.8223 32.3682 23.8223Z" fill="white"/>
</svg>
