<svg id="operation-icon" xmlns="http://www.w3.org/2000/svg" width="28" height="28" viewBox="0 0 28 28">
  <path id="Path_668" data-name="Path 668" d="M0,0H28V28H0Z" fill="none"/>
  <path id="Path_669" data-name="Path 669" d="M6.745,15.8l1.4,2.415a.357.357,0,0,0,.432.152l1.738-.7a4.951,4.951,0,0,0,1.178.688l.257,1.855a.362.362,0,0,0,.35.292h2.8a.361.361,0,0,0,.35-.3l.257-1.855a5.192,5.192,0,0,0,1.178-.688l1.738.7a.357.357,0,0,0,.432-.152l1.4-2.415a.36.36,0,0,0-.082-.455l-1.482-1.155a4.4,4.4,0,0,0,.047-.677,6.82,6.82,0,0,0-.047-.688l1.482-1.155a.357.357,0,0,0,.082-.455l-1.4-2.415a.357.357,0,0,0-.432-.152l-1.738.7a4.951,4.951,0,0,0-1.178-.688L15.25,6.792A.362.362,0,0,0,14.9,6.5H12.1a.361.361,0,0,0-.35.3l-.257,1.855a4.911,4.911,0,0,0-1.178.677l-1.738-.7a.357.357,0,0,0-.432.152L6.745,11.2a.36.36,0,0,0,.082.455l1.482,1.155a4.568,4.568,0,0,0-.058.688,6.82,6.82,0,0,0,.047.688L6.815,15.343a.357.357,0,0,0-.07.455ZM13.5,11.5a2,2,0,1,1-2,2A2,2,0,0,1,13.5,11.5ZM21.667,3H5.333A2.333,2.333,0,0,0,3,5.333V21.667A2.333,2.333,0,0,0,5.333,24H21.667A2.333,2.333,0,0,0,24,21.667V5.333A2.333,2.333,0,0,0,21.667,3Zm0,18.667H5.333V5.333H21.667Z" transform="translate(0.5 0.5)" fill="#55a57f"/>
</svg>
