<svg width="72" height="72" viewBox="0 0 72 72" fill="none" xmlns="http://www.w3.org/2000/svg">
<g clip-path="url(#clip0)">
<path d="M56.25 27H54V18C54 8.073 45.927 0 36 0C26.073 0 18 8.073 18 18V27H15.75C12.03 27 9 30.027 9 33.75V65.25C9 68.973 12.03 72 15.75 72H56.25C59.97 72 63 68.973 63 65.25V33.75C63 30.027 59.97 27 56.25 27ZM24 18C24 11.382 29.382 6 36 6C42.618 6 48 11.382 48 18V27H24V18ZM39 50.166V57C39 58.656 37.659 60 36 60C34.341 60 33 58.656 33 57V50.166C31.215 49.125 30 47.211 30 45C30 41.691 32.691 39 36 39C39.309 39 42 41.691 42 45C42 47.211 40.785 49.125 39 50.166Z" fill="white"/>
</g>
<defs>
<clipPath id="clip0">
<rect width="72" height="72" fill="white"/>
</clipPath>
</defs>
</svg>
