<svg width="43" height="52" viewBox="0 0 43 52" fill="none" xmlns="http://www.w3.org/2000/svg">
<path d="M20.4851 37.8178C21.7388 37.8178 22.9412 37.3198 23.8278 36.4332C24.7143 35.5467 25.2124 34.3443 25.2124 33.0906C25.2124 31.8368 24.7143 30.6344 23.8278 29.7479C22.9412 28.8613 21.7388 28.3633 20.4851 28.3633C19.2313 28.3633 18.0289 28.8613 17.1424 29.7479C16.2559 30.6344 15.7578 31.8368 15.7578 33.0906C15.7578 34.3443 16.2559 35.5467 17.1424 36.4332C18.0289 37.3198 19.2313 37.8178 20.4851 37.8178Z" fill="#0E0023"/>
<path d="M10.2424 11.0303C10.2424 8.10489 11.4045 5.29928 13.4731 3.2307C15.5417 1.16212 18.3473 0 21.2727 0C24.1981 0 27.0037 1.16212 29.0723 3.2307C31.1409 5.29928 32.303 8.10489 32.303 11.0303V14.1818H35.4545C37.3352 14.1818 39.1388 14.9289 40.4686 16.2587C41.7984 17.5885 42.5455 19.3921 42.5455 21.2727V44.9091C42.5455 46.7897 41.7984 48.5933 40.4686 49.9231C39.1388 51.2529 37.3352 52 35.4545 52H7.09091C5.21028 52 3.40668 51.2529 2.07688 49.9231C0.747076 48.5933 0 46.7897 0 44.9091V21.2727C0 19.3921 0.747076 17.5885 2.07688 16.2587C3.40668 14.9289 5.21028 14.1818 7.09091 14.1818H10.2424V11.0303ZM27.5758 11.0303C27.5758 9.35864 26.9117 7.75543 25.7296 6.57339C24.5476 5.39134 22.9444 4.72727 21.2727 4.72727C19.6011 4.72727 17.9979 5.39134 16.8158 6.57339C15.6338 7.75543 14.9697 9.35864 14.9697 11.0303V14.1818H27.5758V11.0303ZM4.72727 21.2727V44.9091C4.72727 46.2138 5.78618 47.2727 7.09091 47.2727H35.4545C36.0814 47.2727 36.6826 47.0237 37.1259 46.5804C37.5692 46.1372 37.8182 45.536 37.8182 44.9091V21.2727C37.8182 20.6459 37.5692 20.0447 37.1259 19.6014C36.6826 19.1581 36.0814 18.9091 35.4545 18.9091H7.09091C6.46403 18.9091 5.86283 19.1581 5.41957 19.6014C4.9763 20.0447 4.72727 20.6459 4.72727 21.2727Z" fill="#0E0023"/>
</svg>
