<svg width="27" height="21" viewBox="0 0 27 21" fill="none" xmlns="http://www.w3.org/2000/svg">
<path d="M4.45833 1.27246H22.5417C23.2268 1.27246 23.8839 1.54463 24.3684 2.0291C24.8528 2.51357 25.125 3.17065 25.125 3.85579V7.7308C24.4399 7.7308 23.7828 8.00297 23.2983 8.48744C22.8138 8.97191 22.5417 9.62899 22.5417 10.3141C22.5417 10.9993 22.8138 11.6564 23.2983 12.1408C23.7828 12.6253 24.4399 12.8975 25.125 12.8975V16.7725C25.125 17.4576 24.8528 18.1147 24.3684 18.5992C23.8839 19.0836 23.2268 19.3558 22.5417 19.3558H4.45833C3.77319 19.3558 3.11611 19.0836 2.63164 18.5992C2.14717 18.1147 1.875 17.4576 1.875 16.7725V12.8975C2.56014 12.8975 3.21722 12.6253 3.70169 12.1408C4.18616 11.6564 4.45833 10.9993 4.45833 10.3141C4.45833 9.62899 4.18616 8.97191 3.70169 8.48744C3.21722 8.00297 2.56014 7.7308 1.875 7.7308V3.85579C1.875 3.17065 2.14717 2.51357 2.63164 2.0291C3.11611 1.54463 3.77319 1.27246 4.45833 1.27246" stroke="#1F162D" stroke-width="2.5" stroke-linecap="round" stroke-linejoin="round"/>
</svg>
