<svg width="29" height="26" viewBox="0 0 29 26" fill="none" xmlns="http://www.w3.org/2000/svg">
<path d="M2.35368 24.6053C3.06416 25.2364 4.11193 25.0728 5.32015 24.4517L26.8103 13.3427C27.3919 13.0474 27.8507 12.7313 28.1493 12.3965C28.7202 11.7563 28.6768 11.0118 28.0353 10.4421C27.6998 10.1441 27.2074 9.88322 26.5954 9.6573L3.83519 1.07158C2.72526 0.650463 1.63595 0.582996 0.994831 1.3019C0.186845 2.20792 0.605335 3.12676 1.29795 4.25378L5.18624 10.6019C5.64213 11.3598 6.00507 11.6469 6.79055 11.6386L26.6077 11.1507C26.8413 11.1464 26.9718 11.2976 27.0013 11.4827C27.0121 11.6688 26.8903 11.8253 26.6577 11.8481L6.90332 13.7331C6.16827 13.8038 5.84006 14.1124 5.43912 14.9387L2.37097 21.5321C1.77997 22.7897 1.43597 23.7902 2.35368 24.6053Z" fill="black"/>
</svg>
