<svg width="23" height="23" viewBox="0 0 23 23" fill="none" xmlns="http://www.w3.org/2000/svg">
<path d="M13.1079 23H9.92038C9.15372 23 8.47621 22.4557 8.30951 21.7053L7.90609 19.9113C7.24858 19.6324 6.62178 19.2683 6.03341 18.8237L4.28637 19.3755C3.53691 19.6084 2.72235 19.2903 2.34665 18.6194L0.757894 15.872C0.377286 15.1915 0.505734 14.3539 1.0655 13.8268L2.41948 12.582C2.37841 12.2168 2.35824 11.8546 2.35824 11.5C2.35824 11.1454 2.37841 10.7832 2.4186 10.418L1.07217 9.17898C0.505734 8.64606 0.376409 7.80851 0.75298 7.13679L2.35157 4.37199C2.72235 3.70869 3.53884 3.39353 4.28356 3.62253L6.03341 4.17545C6.62178 3.7308 7.24858 3.36668 7.90609 3.08768L8.31038 1.29185C8.47621 0.544327 9.15372 0 9.92038 0H13.1079C13.8746 0 14.5521 0.544327 14.7188 1.29466L15.1222 3.08873C15.7797 3.36756 16.4065 3.73167 16.9949 4.17633L18.7419 3.62446C19.4933 3.39353 20.3059 3.70974 20.6816 4.38058L22.2706 7.12801C22.651 7.80851 22.5225 8.64606 21.9628 9.17319L20.6088 10.418C20.649 10.7832 20.6692 11.1464 20.6692 11.5C20.6692 11.8536 20.649 12.2168 20.6088 12.582L21.9561 13.8201C21.958 13.8221 21.96 13.824 21.9628 13.8259C22.5225 14.3529 22.6519 15.1906 22.2753 15.8623L20.6767 18.6271C20.3059 19.2903 19.4914 19.6075 18.7438 19.3755L16.9938 18.8226C16.4054 19.2673 15.7786 19.6314 15.1213 19.9104L14.7168 21.7062C14.5521 22.4557 13.8746 23 13.1079 23ZM6.1801 17.3065C6.34488 17.3065 6.50684 17.363 6.63722 17.4704C7.29561 18.0119 8.0133 18.4297 8.77329 18.7096C9.00229 18.7938 9.17197 18.9884 9.22567 19.226L9.71349 21.3919C9.73542 21.4916 9.82264 21.5625 9.92143 21.5625H13.1088C13.2076 21.5625 13.2948 21.4916 13.3158 21.3939L13.8045 19.226C13.8582 18.9884 14.0279 18.7938 14.2569 18.7096C15.0159 18.4297 15.7346 18.0119 16.393 17.4704C16.5809 17.3151 16.8338 17.2653 17.0668 17.3391L19.176 18.0052C19.2766 18.0368 19.384 17.9995 19.43 17.917L21.0285 15.1522C21.0764 15.0669 21.0591 14.95 20.9826 14.8753L19.3648 13.3879C19.1894 13.2269 19.1051 12.9882 19.1406 12.7525C19.2038 12.3281 19.2355 11.9064 19.2355 11.4991C19.2355 11.0917 19.2038 10.67 19.1406 10.2455C19.1051 10.0099 19.1894 9.77209 19.3648 9.61012L20.9862 8.11893C21.0591 8.05102 21.0764 7.93204 21.0236 7.83729L19.4347 5.08968C19.3831 4.99861 19.2738 4.96229 19.1741 4.99387L17.0677 5.65893C16.8357 5.7328 16.5829 5.68297 16.394 5.52767C15.7357 4.98615 15.0178 4.56834 14.2578 4.28846C14.0288 4.20423 13.8591 4.00963 13.8056 3.77203L13.3178 1.60613C13.2937 1.50839 13.2065 1.4375 13.1079 1.4375H9.92038C9.82176 1.4375 9.73455 1.50839 9.71349 1.60613L9.22461 3.77396C9.17109 4.01156 9.00141 4.20511 8.77241 4.29039C8.0133 4.57027 7.29455 4.98808 6.63722 5.5296C6.44841 5.6849 6.19344 5.73368 5.96357 5.66086L3.85417 4.99475C3.75555 4.96422 3.64623 5.00054 3.60026 5.08302L2.00167 7.84676C1.95376 7.9331 1.97114 8.0519 2.05063 8.12665L3.66641 9.61118C3.84171 9.77209 3.92611 10.0107 3.89067 10.2466C3.82732 10.6711 3.79574 11.0927 3.79574 11.5C3.79574 11.9073 3.82732 12.3289 3.89067 12.7534C3.92611 12.9893 3.84171 13.2269 3.66641 13.3888L2.04484 14.88C1.97201 14.9481 1.95482 15.0669 2.00746 15.1618L3.59639 17.9093C3.64711 18.0003 3.75643 18.0358 3.85698 18.0052L5.96357 17.34C6.03446 17.317 6.10728 17.3065 6.1801 17.3065Z" fill="black" stroke="black" stroke-width="0.5"/>
</svg>
