<svg xmlns="http://www.w3.org/2000/svg" width="42" height="42" viewBox="0 0 42 42">
  <g id="Group_669" data-name="Group 669" transform="translate(-588.325 -642.325)">
    <g id="Group_623" data-name="Group 623" transform="translate(598.453 652.453)">
      <g id="Group_622" data-name="Group 622" transform="translate(0 0)">
        <path id="Path_375" data-name="Path 375" d="M711,775.87A10.872,10.872,0,1,1,721.87,765,10.884,10.884,0,0,1,711,775.87Zm0-18.725A7.852,7.852,0,1,0,718.849,765,7.861,7.861,0,0,0,711,757.145Z" transform="translate(-700.125 -754.125)" fill="#707070"/>
      </g>
    </g>
    <g id="Group_625" data-name="Group 625" transform="translate(588.325 642.325)">
      <g id="Group_624" data-name="Group 624" transform="translate(0 0)">
        <path id="Path_376" data-name="Path 376" d="M614.217,684.325h-9.783A1.433,1.433,0,0,1,603,682.892v-3.743q-.2-.079-.392-.162l-2.647,2.647a1.434,1.434,0,0,1-2.027,0l-6.918-6.918a1.433,1.433,0,0,1,0-2.027l2.647-2.647q-.084-.2-.163-.392h-3.743a1.433,1.433,0,0,1-1.433-1.433v-9.784A1.433,1.433,0,0,1,589.758,657H593.5q.079-.2.163-.392l-2.647-2.647a1.433,1.433,0,0,1,0-2.027l6.918-6.918a1.433,1.433,0,0,1,2.027,0l2.647,2.647q.195-.084.392-.162v-3.743a1.433,1.433,0,0,1,1.433-1.433h9.783a1.433,1.433,0,0,1,1.433,1.433V647.5q.2.079.392.162l2.647-2.647a1.433,1.433,0,0,1,2.027,0l6.918,6.918a1.433,1.433,0,0,1,0,2.027l-2.647,2.647q.084.2.162.392h3.743a1.433,1.433,0,0,1,1.433,1.433v9.784a1.433,1.433,0,0,1-1.433,1.433h-3.743q-.079.2-.162.392l2.647,2.647a1.433,1.433,0,0,1,0,2.027l-6.918,6.918a1.434,1.434,0,0,1-2.027,0l-2.647-2.647q-.195.084-.392.162v3.743A1.433,1.433,0,0,1,614.217,684.325Zm-8.35-2.866h6.917v-3.312a1.433,1.433,0,0,1,.984-1.361,14.167,14.167,0,0,0,1.933-.8,1.433,1.433,0,0,1,1.659.266l2.342,2.342,4.891-4.891-2.342-2.342a1.433,1.433,0,0,1-.266-1.659,14.118,14.118,0,0,0,.8-1.933,1.433,1.433,0,0,1,1.361-.984h3.312v-6.917h-3.312a1.433,1.433,0,0,1-1.361-.984,14.134,14.134,0,0,0-.8-1.933,1.433,1.433,0,0,1,.266-1.659l2.342-2.342-4.891-4.891L617.36,650.4a1.434,1.434,0,0,1-1.659.266,14.145,14.145,0,0,0-1.933-.8,1.433,1.433,0,0,1-.984-1.361v-3.312h-6.917V648.5a1.433,1.433,0,0,1-.984,1.361,14.119,14.119,0,0,0-1.933.8,1.434,1.434,0,0,1-1.659-.266l-2.342-2.342-4.892,4.891,2.342,2.342a1.433,1.433,0,0,1,.266,1.659,14.157,14.157,0,0,0-.8,1.933,1.433,1.433,0,0,1-1.361.984h-3.312v6.917H594.5a1.433,1.433,0,0,1,1.361.984,14.141,14.141,0,0,0,.8,1.933,1.433,1.433,0,0,1-.266,1.659l-2.342,2.342,4.892,4.891,2.342-2.342a1.433,1.433,0,0,1,1.659-.266,14.141,14.141,0,0,0,1.933.8,1.433,1.433,0,0,1,.984,1.361Z" transform="translate(-588.325 -642.325)" fill="#707070"/>
      </g>
    </g>
  </g>
</svg>
