<svg width="32" height="32" viewBox="0 0 32 32" fill="none" xmlns="http://www.w3.org/2000/svg">
<path d="M29.3337 15.9936L17.1766 4V11.1843H15.7643C12.266 11.1843 8.97694 12.41 6.50315 14.6357C4.02936 16.8613 2.66699 19.8205 2.66699 22.9681V28L5.00015 25.7C8.12114 22.6237 12.5514 20.8441 17.1766 20.8036V27.9874L29.3337 15.9936ZM4.23023 24.3844V22.9681C4.23023 20.1962 5.42999 17.5901 7.60847 15.6301C9.78695 13.6702 12.6835 12.5908 15.7643 12.5908H18.7396V7.62933L27.2183 15.9936L18.7396 24.358V19.3966H17.3372C12.403 19.3966 7.65813 21.2084 4.23023 24.3844Z" fill="black" stroke="black" stroke-width="0.5"/>
</svg>
