<svg width="51" height="50" viewBox="0 0 51 50" fill="none" xmlns="http://www.w3.org/2000/svg">
<circle cx="25.5" cy="25" r="25" fill="#C4C4C4"/>
<path d="M10.5 35.137C10.5 34.2927 10.5 33.4477 10.5 32.6035C12.0231 32.6035 13.5462 32.6035 15.0686 32.6035C13.7305 32.2359 13.0072 31.3134 13.0064 29.9157C13.0042 25.8412 13.0042 21.7668 13.0094 17.6916C13.0094 17.4193 13.0263 17.1366 13.0975 16.8761C13.4258 15.6776 14.3775 15.0016 15.7133 15.0009C22.2397 14.9994 28.7661 14.9994 35.2925 15.0038C35.5635 15.0038 35.8441 15.0208 36.104 15.0902C37.3099 15.4119 38.0105 16.3337 38.0119 17.6208C38.0156 21.7542 38.0149 25.8877 37.9921 30.0212C37.9899 30.419 37.8805 30.8426 37.7197 31.2087C37.3833 31.9717 36.74 32.3909 35.9454 32.616C37.4648 32.616 38.9842 32.616 40.5 32.616C40.5 33.4625 40.5 34.2809 40.5 35.1222C40.3436 35.1222 40.2085 35.1222 40.0733 35.1222C30.3517 35.1222 20.6307 35.1222 10.909 35.123C10.7725 35.123 10.6366 35.1318 10.5 35.137ZM19.3279 28.715C21.1947 26.225 23.7775 25.4058 26.7664 25.4294C26.7664 26.332 26.7664 27.2095 26.7664 28.1615C28.4614 26.5689 30.1034 25.025 31.7646 23.4642C30.0976 21.9026 28.4555 20.3646 26.8142 18.8266C26.7921 18.8407 26.7701 18.8539 26.7481 18.868C26.7481 19.7277 26.7481 20.5875 26.7481 21.4421C21.7433 22.1705 19.8758 25.766 19.3279 28.715Z" fill="#263238"/>
</svg>
