<svg width="56" height="56" viewBox="0 0 56 56" fill="none" xmlns="http://www.w3.org/2000/svg">
<circle cx="28" cy="28" r="28" fill="url(#paint0_linear)"/>
<path fill-rule="evenodd" clip-rule="evenodd" d="M33.4482 29.3184C35.0466 30.4034 36.1666 31.8734 36.1666 33.8334V37.3334H39.6666C40.3082 37.3334 40.8332 36.8084 40.8332 36.1667V33.8334C40.8332 31.29 36.6682 29.785 33.4482 29.3184Z" fill="white"/>
<path d="M24.5002 27.9998C27.0775 27.9998 29.1668 25.9105 29.1668 23.3332C29.1668 20.7558 27.0775 18.6665 24.5002 18.6665C21.9228 18.6665 19.8335 20.7558 19.8335 23.3332C19.8335 25.9105 21.9228 27.9998 24.5002 27.9998Z" fill="white"/>
<path fill-rule="evenodd" clip-rule="evenodd" d="M31.4999 27.9998C34.0782 27.9998 36.1666 25.9115 36.1666 23.3332C36.1666 20.7548 34.0782 18.6665 31.4999 18.6665C30.9516 18.6665 30.4382 18.7832 29.9482 18.9465C30.9166 20.1482 31.4999 21.6765 31.4999 23.3332C31.4999 24.9898 30.9166 26.5182 29.9482 27.7198C30.4382 27.8832 30.9516 27.9998 31.4999 27.9998Z" fill="white"/>
<path fill-rule="evenodd" clip-rule="evenodd" d="M24.5003 29.1665C21.3853 29.1665 15.167 30.7298 15.167 33.8332V36.1665C15.167 36.8082 15.692 37.3332 16.3337 37.3332H32.667C33.3087 37.3332 33.8337 36.8082 33.8337 36.1665V33.8332C33.8337 30.7298 27.6153 29.1665 24.5003 29.1665Z" fill="white"/>
<defs>
<linearGradient id="paint0_linear" x1="0" y1="0" x2="56" y2="56" gradientUnits="userSpaceOnUse">
<stop stop-color="#868CFF"/>
<stop offset="1" stop-color="#4318FF"/>
</linearGradient>
</defs>
</svg>
