<svg width="102" height="100" viewBox="0 0 102 100" fill="none" xmlns="http://www.w3.org/2000/svg">
<path d="M41.0906 93.0214L33.2081 91.4056L28.647 96.1295L13.0991 83.8582L23.4685 76.7815L34.4942 64.7157C36.3419 62.6935 39.6083 62.9851 41.0681 65.3037L54.1307 80.2846C56.1049 82.5488 55.5464 86.0487 52.9649 87.5861L45.2693 92.1689C43.9258 92.981 42.6467 93.0501 41.0906 93.0214Z" fill="#FFE7CF"/>
<path d="M54.1305 80.2842L50.9432 76.6284L37.651 84.5498C36.3075 85.3619 35.0284 85.4309 33.4716 85.4022L26.568 84.6591L20.6045 89.781L28.6476 96.1292L33.2079 91.4045L41.0904 93.021C42.6465 93.049 43.9263 92.9807 45.2691 92.1686L52.9647 87.5858C55.5462 86.0484 56.1047 82.5485 54.1305 80.2842Z" fill="#EFD5BD"/>
<path d="M53.747 80.604C52.208 78.2172 50.3331 79.425 48.7942 77.0374C47.2552 74.6506 49.1301 73.4421 47.5911 71.0553C46.0513 68.6677 44.1773 69.8762 42.6383 67.4887C41.0986 65.1003 42.9734 63.8918 41.4337 61.5042C40.4928 60.0452 38.7886 57.0324 37.7507 56.6182L29.4438 60.7223L43.8996 83.5214C45.3098 85.7096 48.2271 86.3402 50.4154 84.9293L53.1815 83.1467C54.0262 82.6014 54.3008 81.472 53.7594 80.6242C53.7555 80.6172 53.7516 80.611 53.747 80.604Z" fill="#344A5D"/>
<path d="M29.8515 64.2516L23.3257 68.2782C22.0877 69.0423 20.4641 68.6575 19.7001 67.4195L16.0109 61.4405C15.2469 60.2025 15.6316 58.579 16.8696 57.8149L23.3955 53.7883C24.1619 53.316 25.1664 53.5533 25.6395 54.3197L30.3829 62.0075C30.8561 62.7739 30.6179 63.7784 29.8515 64.2516Z" fill="#344A5D"/>
<path d="M33.8559 42.8914L20.6102 51.0649C18.8665 52.14 18.3258 54.4252 19.4009 56.1681L25.933 66.7547C27.0089 68.4977 29.2933 69.0391 31.037 67.9632L44.2827 59.7906L86.1784 50.6708L60.7986 9.5376L33.8559 42.8914Z" fill="#FED066"/>
<path d="M80.1987 40.9795L38.5186 50.4499C38.5186 50.4499 24.1684 59.3036 22.1167 60.5703L25.9331 66.7549C27.0082 68.4978 29.2934 69.0393 31.0363 67.9634L44.2828 59.7907L86.1785 50.6709L80.1987 40.9795Z" fill="#F5B556"/>
<path d="M44.2826 59.7908L31.0361 67.9634C29.2932 69.0393 27.008 68.4979 25.9329 66.7549L19.4008 56.1683C18.3249 54.4253 18.8664 52.1401 20.6093 51.065L33.8558 42.8916L44.2826 59.7908Z" fill="#FD715C"/>
<path d="M38.5186 50.4497C38.5186 50.4497 24.1684 59.3034 22.1167 60.5701L25.9331 66.7547C27.0082 68.4977 29.2934 69.0391 31.0363 67.9632L37.6592 63.8769L44.2828 59.7906L38.5186 50.4497Z" fill="#D83E3A"/>
<path d="M88.6915 53.5935L86.8834 54.709C85.9464 55.2869 84.7177 54.996 84.1398 54.0589L56.8557 9.84003C56.277 8.90223 56.5679 7.67431 57.5057 7.09565L59.3139 5.98021C60.2509 5.40154 61.4796 5.69243 62.0575 6.63023L89.3415 50.8491C89.9202 51.7862 89.6285 53.0149 88.6915 53.5935Z" fill="#FD715C"/>
<path d="M89.3416 50.8494L84.8534 43.5742L79.6509 46.7848L84.1398 54.0592C84.7177 54.9962 85.9464 55.2871 86.8834 54.7092L88.6915 53.5938C89.6286 53.0151 89.9202 51.7864 89.3416 50.8494Z" fill="#D83E3A"/>
<path d="M49.6355 86.6241C50.6214 88.2383 52.7297 88.7479 54.3439 87.7613L59.3355 84.7097C60.9489 83.7238 61.4577 81.617 60.4718 80.0036C59.4859 78.3894 57.3776 77.8805 55.7642 78.8664L50.7718 81.918C49.1592 82.9039 48.6503 85.0107 49.6355 86.6241Z" fill="#FFE7CF"/>
<path d="M60.4722 80.0035C60.068 79.3418 59.4739 78.8694 58.8044 78.6064C58.9797 79.9104 58.3933 81.2562 57.198 81.9869L52.2057 85.0385C51.2531 85.6202 50.1307 85.6776 49.1665 85.2991C49.2278 85.7552 49.3806 86.2066 49.6358 86.6247C50.6217 88.2389 52.73 88.7478 54.3442 87.7611L59.3358 84.7096C60.9492 83.7237 61.4573 81.6169 60.4722 80.0035Z" fill="#EFD5BD"/>
<path d="M47.498 79.8857C48.4986 81.5247 50.6387 82.0414 52.277 81.0399L57.1801 78.0427C58.8176 77.042 59.3342 74.9035 58.3343 73.2652C57.3337 71.627 55.1936 71.1104 53.5553 72.1118L48.6514 75.109C47.0139 76.1097 46.4973 78.2482 47.498 79.8857Z" fill="#FFE7CF"/>
<path d="M58.3341 73.2651C57.9354 72.6127 57.3552 72.1419 56.6982 71.8696C56.8649 73.1852 56.27 74.5372 55.0653 75.2734L50.1614 78.2706C49.1755 78.8733 48.0097 78.923 47.0176 78.5126C47.0773 78.985 47.2332 79.4528 47.4977 79.8856C48.4984 81.5246 50.6385 82.0412 52.2767 81.0398L57.1799 78.0426C58.8174 77.0419 59.334 74.9033 58.3341 73.2651Z" fill="#EFD5BD"/>
<path d="M43.8427 73.9929C44.8433 75.6312 46.9835 76.1485 48.6217 75.1471L53.5256 72.1491C55.1631 71.1485 55.6789 69.0099 54.6791 67.3724C53.6784 65.7334 51.5383 65.2168 49.9 66.2182L44.9961 69.2154C43.3587 70.2161 42.842 72.3547 43.8427 73.9929Z" fill="#FFE7CF"/>
<path d="M54.6791 67.3721C54.2889 66.733 53.7242 66.2668 53.0843 65.9922C53.2285 67.2915 52.6344 68.6179 51.4452 69.3447L46.5421 72.342C45.5422 72.9532 44.3578 72.9959 43.3579 72.5677C43.4122 73.0572 43.5681 73.5435 43.8419 73.9919C44.8434 75.6309 46.9827 76.1475 48.6217 75.1461L53.5256 72.1488C55.1631 71.1482 55.6789 69.0096 54.6791 67.3721Z" fill="#EFD5BD"/>
<path d="M40.397 67.9485C41.3977 69.5868 43.5378 70.1034 45.176 69.102L50.08 66.1047C51.7174 65.1041 52.234 62.9655 51.2334 61.3272C50.2328 59.689 48.0926 59.1724 46.4544 60.1738L41.5505 63.171C39.913 64.1717 39.3972 66.3103 40.397 67.9485Z" fill="#FFE7CF"/>
<path d="M51.2334 61.3275C50.7734 60.5735 50.0706 60.0608 49.2872 59.8203C49.5866 61.2228 48.9963 62.7206 47.704 63.511L42.8001 66.5083C41.9158 67.049 40.8857 67.1436 39.9673 66.8612C40.0472 67.2359 40.1868 67.6036 40.397 67.9488C41.3977 69.587 43.5378 70.1036 45.176 69.1022L50.0799 66.1049C51.7174 65.1043 52.234 62.9657 51.2334 61.3275Z" fill="#EFD5BD"/>
<path d="M47.754 72.1537L46.8449 72.7091C45.4138 73.5841 43.5645 73.1645 42.7128 71.7729L41.2064 69.3093C40.4687 68.1039 38.8638 67.7455 37.6297 68.5111C36.3909 77.6037 23.4688 76.7815 23.4688 76.7815L31.4762 64.7211C32.0044 63.8073 32.7545 63.0347 33.6574 62.4747L38.1766 59.6721C40.3733 58.31 43.2294 58.9461 44.5442 61.0916L48.8035 68.0426C49.6568 69.4365 49.1867 71.278 47.754 72.1537Z" fill="#FFE7CF"/>
<path d="M48.8027 68.0432L48.7678 67.9858C48.5211 68.3822 48.1813 68.7304 47.7539 68.9918L46.8441 69.548C45.4137 70.4222 43.5644 70.0033 42.7127 68.611L41.2063 66.1482C40.4687 64.942 38.8638 64.5844 37.6296 65.3492C37.1099 69.1625 34.7782 72.8168 32.1758 75.3199C34.8085 74.1634 37.1379 72.1171 37.6296 68.5109C38.8638 67.7453 40.4687 68.1037 41.2063 69.3091L42.7127 71.7727C43.5644 73.1643 45.4137 73.5839 46.8441 72.7097L47.7539 72.1536C49.1866 71.2778 49.6567 69.4363 48.8027 68.0432Z" fill="#EFD5BD"/>
<path d="M28.8975 96.4263L16.1606 81.2911L20.3548 77.7617C20.4867 77.6508 20.6845 77.6678 20.7962 77.7997L33.1296 92.4563C33.2405 92.5882 33.2235 92.786 33.0916 92.8977L28.8975 96.4263Z" fill="#CDD6DF"/>
<path d="M33.1289 92.4564L26.5681 84.6592L22.1343 88.3902L28.8975 96.4272L33.0909 92.8978C33.2235 92.7861 33.2406 92.5883 33.1289 92.4564Z" fill="#96A4AA"/>
<path d="M81.4418 25.4424C80.9337 25.4424 80.438 25.1864 80.1526 24.7225C79.7151 24.0112 79.9369 23.0804 80.6482 22.6429L88.8411 17.6033C89.5524 17.1658 90.4832 17.3876 90.9199 18.0989C91.3574 18.8095 91.1356 19.7403 90.425 20.1778L82.2322 25.2174C81.9848 25.3702 81.7117 25.4424 81.4418 25.4424Z" fill="#DBD9D1"/>
<path d="M100.326 37.7813C100.277 37.7813 100.227 37.7789 100.178 37.7743L88.1662 36.6069C87.3354 36.5262 86.7273 35.7877 86.808 34.9562C86.8886 34.1262 87.6279 33.5165 88.4586 33.5987L100.47 34.7654C101.301 34.846 101.909 35.5853 101.828 36.416C101.752 37.1972 101.095 37.7813 100.326 37.7813Z" fill="#DBD9D1"/>
<path d="M74.5673 14.2701C74.385 14.2701 74.1996 14.2368 74.0196 14.1669C73.2416 13.8644 72.8569 12.9879 73.1594 12.2107L77.5343 0.963172C77.8368 0.185156 78.7133 -0.19881 79.4906 0.102933C80.2686 0.405452 80.6541 1.2812 80.3516 2.05922L75.9767 13.3059C75.744 13.904 75.1723 14.2701 74.5673 14.2701Z" fill="#DBD9D1"/>
<path d="M29.8067 96.2853L16.0406 80.137C15.9312 80.0083 15.7419 79.9827 15.6015 80.0781L0.940239 91.6513C0.45078 92.0376 0.164551 92.6279 0.164551 93.2524V97.9608C0.164551 99.0871 1.07754 100 2.20461 100H26.1881C26.8056 100 27.3904 99.7201 27.7783 99.2384L29.7928 96.7306C29.9114 96.608 29.9169 96.4149 29.8067 96.2853Z" fill="#3C5666"/>
<path d="M29.8069 96.285L23.2794 88.6274L13.6694 99.9998H26.1883C26.8057 99.9998 27.3906 99.7198 27.7784 99.2381L29.7929 96.7303C29.9116 96.6077 29.917 96.4146 29.8069 96.285Z" fill="#194451"/>
</svg>
