<svg width="60" height="43" viewBox="0 0 60 43" fill="none" xmlns="http://www.w3.org/2000/svg">
<path d="M1.77441 8.99916C1.77441 6.87765 2.79928 4.84303 4.62356 3.3429C6.44783 1.84277 8.92208 1 11.502 1H40.6847C43.2647 1 45.7389 1.84277 47.5632 3.3429C49.3875 4.84303 50.4123 6.87765 50.4123 8.99916V32.9966C50.4123 35.1181 49.3875 37.1527 47.5632 38.6529C45.7389 40.153 43.2647 40.9958 40.6847 40.9958H11.502C8.92208 40.9958 6.44783 40.153 4.62356 38.6529C2.79928 37.1527 1.77441 35.1181 1.77441 32.9966V8.99916Z" stroke="#828282" stroke-width="2" stroke-linecap="round" stroke-linejoin="round"/>
<path d="M21.8641 18.9989C24.7839 18.9989 27.1508 16.7606 27.1508 13.9995C27.1508 11.2383 24.7839 9 21.8641 9C18.9443 9 16.5774 11.2383 16.5774 13.9995C16.5774 16.7606 18.9443 18.9989 21.8641 18.9989Z" stroke="#828282" stroke-width="2" stroke-linecap="round" stroke-linejoin="round"/>
<path d="M31.6434 22.3025L10.2329 40.9959H41.0453C43.5295 40.9959 45.912 40.2127 47.6686 38.8185C49.4252 37.4243 50.4121 35.5333 50.4121 33.5616C50.4121 32.6328 49.9726 31.7379 49.1816 31.0503L39.0614 22.2906C38.5898 21.8822 38.0161 21.5564 37.3769 21.3338C36.7377 21.1113 36.0471 20.9969 35.3491 20.9981C34.6511 20.9992 33.9611 21.1158 33.323 21.3404C32.685 21.565 32.1129 21.8927 31.6434 22.3025V22.3025Z" stroke="#828282" stroke-width="2" stroke-linecap="round" stroke-linejoin="round"/>
<path d="M21.9779 30.2689C18.507 28.02 16.415 26.6645 13.2081 24.5865C12.5613 24.1674 11.7309 24.1571 11.074 24.5604L1.77441 30.2689" stroke="#828282" stroke-width="2"/>
<path d="M58.7339 32.6717C58.7339 37.6044 54.497 41.6501 49.2109 41.6501C43.9249 41.6501 39.688 37.6044 39.688 32.6717C39.688 27.7391 43.9249 23.6934 49.2109 23.6934C54.497 23.6934 58.7339 27.7391 58.7339 32.6717Z" fill="#828282" stroke="white"/>
<path d="M50.1264 32.9943V36.7531H48.7205V32.9943H45.0146V31.6647H48.7205V27.9961H50.1264V31.6647H53.8322V32.9943H50.1264Z" fill="white"/>
</svg>
