<svg width="30" height="31" viewBox="0 0 30 31" fill="none" xmlns="http://www.w3.org/2000/svg">
<path d="M25 3H5C3.62125 3 2.5 4.12125 2.5 5.5V28L9.16625 23H25C26.3788 23 27.5 21.8788 27.5 20.5V5.5C27.5 4.12125 26.3788 3 25 3ZM25 20.5H8.33375L5 23V5.5H25V20.5Z" fill="#0E0023"/>
<path d="M18.75 15.5C20.1307 15.5 21.25 14.3807 21.25 13C21.25 11.6193 20.1307 10.5 18.75 10.5C17.3693 10.5 16.25 11.6193 16.25 13C16.25 14.3807 17.3693 15.5 18.75 15.5Z" fill="#1F162D"/>
<path d="M11.25 15.5C12.6307 15.5 13.75 14.3807 13.75 13C13.75 11.6193 12.6307 10.5 11.25 10.5C9.86929 10.5 8.75 11.6193 8.75 13C8.75 14.3807 9.86929 15.5 11.25 15.5Z" fill="#1F162D"/>
</svg>
