<svg width="20" height="20" viewBox="0 0 20 20" fill="none" xmlns="http://www.w3.org/2000/svg">
<path d="M18.3335 3.33332H16.6668H14.1668V0.83332C14.1668 0.37332 13.7943 0 13.3335 0H6.66682C6.206 0 5.8335 0.37332 5.8335 0.83332V3.33332H3.3335H1.66682C1.206 3.33332 0.833496 3.70664 0.833496 4.16664C0.833496 4.62664 1.20596 5 1.66682 5H2.50014V17.5C2.50014 18.8783 3.62182 20 5.00014 20H15.0001C16.3785 20 17.5001 18.8783 17.5001 17.5V5H18.3335C18.7943 5 19.1668 4.62668 19.1668 4.16668C19.1668 3.70668 18.7943 3.33332 18.3335 3.33332ZM7.50014 1.66668H12.5001V3.33336H7.50014V1.66668ZM15.8335 17.5C15.8335 17.9592 15.4601 18.3333 15.0001 18.3333H5.00014C4.54014 18.3333 4.16682 17.9591 4.16682 17.5V5H6.66682H13.3335H15.8335V17.5H15.8335Z" fill="#696969"/>
<path d="M7.49885 6.66675C7.03803 6.66675 6.66553 7.04007 6.66553 7.50007V15.0001C6.66553 15.4601 7.03803 15.8334 7.49885 15.8334C7.95967 15.8334 8.33217 15.4601 8.33217 15.0001V7.50007C8.33217 7.04007 7.95967 6.66675 7.49885 6.66675Z" fill="#696969"/>
<path d="M12.4988 6.66675C12.038 6.66675 11.6655 7.04007 11.6655 7.50007V15.0001C11.6655 15.4601 12.038 15.8334 12.4988 15.8334C12.9597 15.8334 13.3322 15.4601 13.3322 15.0001V7.50007C13.3322 7.04007 12.9597 6.66675 12.4988 6.66675Z" fill="#696969"/>
</svg>
