<svg width="24" height="26" viewBox="0 0 24 26" fill="none" xmlns="http://www.w3.org/2000/svg">
<path d="M23.0139 4.59228H4.24885L3.96992 1.02916C3.9243 0.446473 3.49841 0 2.98822 0H0.985638C0.441284 0 0 0.505996 0 1.13018C0 1.75435 0.441284 2.26035 0.985638 2.26035H2.08711C2.68906 9.94995 1.13334 -9.92482 3.22074 16.7421C3.30118 17.7859 3.79302 18.9185 4.64029 19.6881C3.11269 21.925 4.50845 25.2227 6.99334 25.2227C9.05576 25.2227 10.5104 22.864 9.80316 20.6302H15.1977C14.4913 22.8612 15.9428 25.2227 18.0075 25.2227C19.6552 25.2227 20.9957 23.6856 20.9957 21.7962C20.9957 19.9069 19.6552 18.3698 18.0075 18.3698H7C6.25129 18.3698 5.59885 17.8519 5.31724 17.0972L21.0691 16.0357C21.4991 16.0068 21.8629 15.6608 21.9674 15.1816L23.9702 5.99655C24.1254 5.28432 23.6552 4.59228 23.0139 4.59228ZM6.99334 22.9623C6.43265 22.9623 5.97644 22.4392 5.97644 21.7962C5.97644 21.1533 6.43265 20.6302 6.99334 20.6302C7.55407 20.6302 8.01028 21.1533 8.01028 21.7962C8.01028 22.4392 7.55407 22.9623 6.99334 22.9623ZM18.0075 22.9623C17.4467 22.9623 16.9905 22.4392 16.9905 21.7962C16.9905 21.1533 17.4467 20.6302 18.0075 20.6302C18.5682 20.6302 19.0244 21.1533 19.0244 21.7962C19.0244 22.4392 18.5682 22.9623 18.0075 22.9623ZM20.2306 13.828L5.05191 14.8508L4.4258 6.85258H21.7515L20.2306 13.828Z" fill="black"/>
</svg>
