<svg width="26" height="30" viewBox="0 0 26 30" fill="none" xmlns="http://www.w3.org/2000/svg">
<path d="M16.125 30H4.93359C2.34883 30 0.246094 27.8973 0.246094 25.3125V9.43359C0.246094 6.84883 2.34883 4.74609 4.93359 4.74609H16.125C18.7098 4.74609 20.8125 6.84883 20.8125 9.43359V25.3125C20.8125 27.8973 18.7098 30 16.125 30ZM4.93359 7.08984C3.64133 7.08984 2.58984 8.14133 2.58984 9.43359V25.3125C2.58984 26.6048 3.64133 27.6562 4.93359 27.6562H16.125C17.4173 27.6562 18.4688 26.6048 18.4688 25.3125V9.43359C18.4688 8.14133 17.4173 7.08984 16.125 7.08984H4.93359ZM25.5 22.3828V4.6875C25.5 2.10274 23.3973 0 20.8125 0H7.80469C7.15741 0 6.63281 0.524597 6.63281 1.17188C6.63281 1.81915 7.15741 2.34375 7.80469 2.34375H20.8125C22.1048 2.34375 23.1562 3.39523 23.1562 4.6875V22.3828C23.1562 23.0301 23.6808 23.5547 24.3281 23.5547C24.9754 23.5547 25.5 23.0301 25.5 22.3828Z" fill="white"/>
</svg>
