<svg width="24" height="24" viewBox="0 0 24 24" fill="none" xmlns="http://www.w3.org/2000/svg">
<path d="M8.4539 22L8.2189 21.8002L2.20981 15.8396C1.93006 15.551 1.93006 15.4178 2.20981 15.1403C4.76116 12.6243 7.29012 10.101 9.79671 7.57021C9.86104 7.50199 9.93912 7.44796 10.0259 7.41163C10.1126 7.3753 10.2061 7.35747 10.3003 7.35931H13.4111C13.4744 7.36623 13.538 7.34964 13.5897 7.31274C13.6414 7.27583 13.6774 7.22124 13.6909 7.15952C14.1378 5.97804 14.7684 4.8732 15.5596 3.88506C16.1458 3.14524 16.9175 2.57109 17.7976 2.22009C18.219 2.05112 18.6732 1.97789 19.1268 2.00579C19.5804 2.03368 20.0219 2.16199 20.419 2.38129C20.8161 2.60058 21.1587 2.90531 21.4215 3.27309C21.6844 3.64087 21.8608 4.06238 21.938 4.50665C22.0935 5.2979 21.9543 6.11823 21.5463 6.81542C21.0194 7.72496 20.2434 8.46775 19.3083 8.95769C18.5356 9.3886 17.7126 9.72409 16.8577 9.95668H16.5891V10.1787C16.5891 11.2887 16.6674 12.4985 16.7122 13.664C16.7318 13.7676 16.7234 13.8745 16.6881 13.9739C16.6527 14.0733 16.5916 14.1617 16.5108 14.2301L8.92388 21.7891L8.6777 22H8.4539ZM13.3775 8.0586H10.5353C10.4696 8.05837 10.4046 8.07213 10.3448 8.09893C10.285 8.12574 10.2316 8.16498 10.1884 8.214L3.00431 15.3401L2.87003 15.4733L8.58818 21.1453L8.6777 21.0454L15.9289 13.8416C15.9974 13.7692 16.0372 13.6745 16.0408 13.5752L15.9177 9.34618C15.9177 8.92439 15.9177 8.5026 15.9177 8.0586H14.2728C14.2546 8.06069 14.2372 8.06675 14.2217 8.07635C14.2062 8.08595 14.1931 8.09884 14.1832 8.1141L13.7916 9.22409H13.937C14.0936 9.26999 14.2368 9.35214 14.3551 9.46378C14.4733 9.57542 14.563 9.71333 14.6169 9.86615C14.6708 10.019 14.6873 10.1823 14.665 10.3427C14.6428 10.5031 14.5824 10.6559 14.4888 10.7886C14.3953 10.9213 14.2713 11.03 14.1271 11.1058C13.9829 11.1816 13.8225 11.2222 13.6593 11.2245C13.4961 11.2267 13.3347 11.1904 13.1885 11.1186C13.0422 11.0467 12.9152 10.9414 12.818 10.8114C12.6854 10.635 12.6138 10.4209 12.6138 10.2009C12.6138 9.98087 12.6854 9.76674 12.818 9.59038C12.818 9.59038 12.8852 9.52378 12.8964 9.47938L13.3775 8.0586ZM14.4966 7.35931H16.0632C16.4436 7.35931 16.5332 7.45921 16.5443 7.83661C16.5555 8.214 16.5443 8.76899 16.6003 9.26849C16.9584 9.14639 17.2941 9.04649 17.6186 8.92439C18.6754 8.58021 19.6317 7.98589 20.4049 7.19282C20.7055 6.88834 20.9376 6.52421 21.0861 6.12438C21.2346 5.72454 21.2961 5.29805 21.2666 4.87295C21.2485 4.55645 21.1623 4.24745 21.0138 3.96674C20.8653 3.68604 20.6579 3.44014 20.4056 3.24559C20.1533 3.05103 19.8619 2.91234 19.551 2.83884C19.2401 2.76534 18.917 2.75874 18.6033 2.81948C17.8758 2.9662 17.2094 3.32576 16.6898 3.85176C15.7081 4.82986 14.9455 6.00237 14.4518 7.29271L14.4966 7.35931Z" fill="black" stroke="black" stroke-width="0.5"/>
<path d="M8.68719 16.1698C8.62067 16.134 8.56896 16.1001 8.49902 16.0536C8.50356 16.0559 8.50811 16.0581 8.51269 16.0603L8.53626 16.0717L8.5609 16.0806C8.73429 16.1429 8.92012 16.1627 9.10276 16.1383C9.28539 16.1138 9.45947 16.0458 9.61035 15.94C9.76122 15.8343 9.88446 15.6938 9.9697 15.5304C10.0549 15.3671 10.0997 15.1856 10.1001 15.0013L10.1002 14.978L10.0981 14.9548C10.076 14.7115 10.0232 14.472 9.941 14.2419L9.93812 14.2338L9.93496 14.2258C9.7848 13.847 9.66727 13.4561 9.58363 13.0573C9.56399 12.8918 9.586 12.724 9.64778 12.5691C9.71154 12.4092 9.8155 12.2684 9.94959 12.1605C10.0837 12.0525 10.2434 11.981 10.4132 11.9529C10.583 11.9248 10.7572 11.9409 10.919 11.9999L10.9342 12.0054L10.9497 12.0099C11.25 12.0979 11.5191 12.2693 11.7257 12.5044C11.9298 12.7367 12.0644 13.0216 12.1144 13.3266C12.1335 13.5118 12.1057 13.699 12.0334 13.8708C12.017 13.9099 11.9983 13.9479 11.9777 13.9846L11.7333 13.7429C11.7513 13.7123 11.7692 13.6798 11.7863 13.6458C11.9024 13.4179 11.9286 13.1547 11.8598 12.9083C11.7953 12.6775 11.6518 12.4773 11.4551 12.3422C11.2784 12.1918 11.0534 12.1086 10.8201 12.1086C10.5807 12.1086 10.35 12.1963 10.1712 12.3543C9.96853 12.51 9.8222 12.7281 9.75506 12.9753C9.68742 13.2243 9.70407 13.4885 9.80199 13.7267C9.90266 14.0275 10.0125 14.327 10.1194 14.6187L10.1207 14.6222L10.1205 14.6223L10.1256 14.6351C10.2262 14.8876 10.2604 15.1615 10.2249 15.4309C10.2005 15.5958 10.1364 15.7522 10.0382 15.8869C9.93943 16.0223 9.8091 16.1315 9.65853 16.2052C9.50795 16.2788 9.34169 16.3146 9.17416 16.3094C9.00663 16.3042 8.8429 16.2582 8.69717 16.1754L8.69724 16.1753L8.68719 16.1698ZM7.88205 15.314C7.91758 15.4365 7.97234 15.5523 8.04406 15.6572C7.90201 15.5024 7.79604 15.3181 7.73381 15.1175C7.67181 14.9175 7.65478 14.7064 7.68391 14.4992C7.70337 14.3912 7.73601 14.2866 7.78067 14.1877L7.98713 14.3942C7.91425 14.5245 7.86627 14.6675 7.84582 14.8158C7.82282 14.9826 7.83517 15.1523 7.88205 15.314Z" fill="black" stroke="black"/>
</svg>
