<svg width="13" height="13" viewBox="0 0 13 13" fill="none" xmlns="http://www.w3.org/2000/svg">
<path d="M0.874706 6.49125C0.873847 7.1371 1.37463 7.66135 1.99328 7.66224L5.35421 7.66711L5.34955 11.1758C5.34869 11.8216 5.84948 12.3459 6.46813 12.3468V12.3468C7.08689 12.3477 7.58923 11.8247 7.59008 11.1787L7.59474 7.67035L10.9554 7.67522C11.5742 7.67611 12.0765 7.15315 12.0774 6.50719V6.50719C12.0782 5.86134 11.5774 5.3371 10.9588 5.3362L7.59785 5.33134L7.60251 1.82267C7.60337 1.17683 7.10258 0.652581 6.48393 0.651685V0.651685C5.86517 0.65079 5.36284 1.17375 5.36198 1.81971L5.35732 5.32809L1.99666 5.32323C1.3779 5.32233 0.875564 5.8453 0.874706 6.49125V6.49125Z" fill="black"/>
</svg>
