<svg width="24" height="26" viewBox="0 0 24 26" fill="none" xmlns="http://www.w3.org/2000/svg">
<path d="M23.0139 5.18408H4.24885L3.96992 1.62096C3.9243 1.03827 3.49841 0.591797 2.98822 0.591797H0.985638C0.441284 0.591797 0 1.09779 0 1.72197C0 2.34615 0.441284 2.85215 0.985638 2.85215H2.08711C2.68906 10.5418 1.13334 -9.33302 3.22074 17.3339C3.30118 18.3777 3.79302 19.5103 4.64029 20.2799C3.11269 22.5168 4.50845 25.8145 6.99334 25.8145C9.05576 25.8145 10.5104 23.4558 9.80316 21.222H15.1977C14.4913 23.453 15.9428 25.8145 18.0075 25.8145C19.6552 25.8145 20.9957 24.2774 20.9957 22.388C20.9957 20.4987 19.6552 18.9616 18.0075 18.9616H7C6.25129 18.9616 5.59885 18.4437 5.31724 17.689L21.0691 16.6275C21.4991 16.5986 21.8629 16.2526 21.9674 15.7734L23.9702 6.58835C24.1254 5.87612 23.6552 5.18408 23.0139 5.18408ZM6.99334 23.5541C6.43265 23.5541 5.97644 23.031 5.97644 22.388C5.97644 21.7451 6.43265 21.222 6.99334 21.222C7.55407 21.222 8.01028 21.7451 8.01028 22.388C8.01028 23.031 7.55407 23.5541 6.99334 23.5541ZM18.0075 23.5541C17.4467 23.5541 16.9905 23.031 16.9905 22.388C16.9905 21.7451 17.4467 21.222 18.0075 21.222C18.5682 21.222 19.0244 21.7451 19.0244 22.388C19.0244 23.031 18.5682 23.5541 18.0075 23.5541ZM20.2306 14.4198L5.05191 15.4426L4.4258 7.44437H21.7515L20.2306 14.4198Z" fill="#0038FF"/>
</svg>
