<svg width="661" height="146" viewBox="0 0 661 146" fill="none" xmlns="http://www.w3.org/2000/svg">
<path d="M28.6757 86.6392C18.8946 78.6172 6.81644 79.0183 2 80.2216V145.599H658.888V31.2869C645.551 32.7576 625.203 37.6408 591.088 31.2869C556.632 24.8695 554.409 34.0948 546.628 46.9298C539.566 58.5798 522.176 48.5344 487.72 61.7705C460.018 72.4117 447.262 28.8805 441.037 17.6496C436.591 9.6276 419.919 7.62229 415.473 17.6496C411.027 31.2869 408.137 57.9199 405.47 61.7705C401.301 67.7871 392.511 68.5143 385.463 66.1827C372.125 61.7705 374.348 46.2092 374.348 35.2981C374.348 24.8695 357.164 24.8695 354.341 31.2869C343.226 56.5564 342.115 95.0368 323.22 95.463C308.993 95.7838 304.324 85.8366 296.544 76.211C293.625 72.6003 283.206 70.1143 269.868 76.211C253.196 83.8318 247.639 77.0132 246.527 74.2045C245.416 71.3959 239.978 56.598 238.747 27.2773C237.635 0.804826 210.673 2.00787 208.736 12.8373C202.068 50.1397 209.927 100.677 178.726 100.677C160.943 100.677 160.943 87.4107 160.943 76.6111C160.943 67.7869 146.493 66.9847 142.047 74.2045C137.601 81.4243 134.267 89.8483 119.818 89.8483C102.998 89.8483 97.5878 79.4188 97.5878 71.3968C97.5878 63.3748 95.3533 53.7747 86.473 53.3474C69.8007 52.5452 72.0236 81.0232 66.4662 89.8483C62.0602 96.845 40.902 96.6667 28.6757 86.6392Z" fill="url(#paint0_linear)" fill-opacity="0.3"/>
<path d="M2 80.2216C6.81644 79.0183 18.8946 78.6172 28.6757 86.6392C40.902 96.6667 62.0602 96.8449 66.4662 89.8483C72.0236 81.0232 69.8007 52.5452 86.473 53.3474C95.3533 53.7747 97.5878 63.3748 97.5878 71.3968C97.5878 79.4188 102.998 89.8483 119.818 89.8483C134.267 89.8483 137.601 81.4243 142.047 74.2045C146.493 66.9847 160.943 67.7869 160.943 76.6111C160.943 87.4107 160.943 100.677 178.726 100.677C209.927 100.677 202.068 50.1397 208.736 12.8373C210.673 2.00787 237.635 0.804826 238.747 27.2773C239.978 56.598 245.416 71.3959 246.527 74.2045C247.639 77.0131 253.196 83.8318 269.868 76.211C283.206 70.1142 293.625 72.6003 296.544 76.211C304.324 85.8366 308.993 95.7838 323.22 95.4629C342.115 95.0368 343.226 56.5564 354.341 31.2869C357.164 24.8695 374.348 24.8695 374.348 35.2981C374.348 46.2092 372.125 61.7704 385.463 66.1827C392.511 68.5143 401.301 67.7871 405.47 61.7704C408.137 57.9199 411.027 31.2869 415.473 17.6496C419.919 7.6223 436.591 9.6276 441.037 17.6496C447.262 28.8805 460.018 72.4117 487.72 61.7704C522.176 48.5344 539.566 58.5798 546.628 46.9298C554.409 34.0948 556.632 24.8695 591.088 31.2869C625.203 37.6408 645.551 32.7576 658.888 31.2869" stroke="url(#paint1_linear)" stroke-width="3" stroke-linecap="round" stroke-linejoin="round"/>
<defs>
<linearGradient id="paint0_linear" x1="330.444" y1="-188.809" x2="330.444" y2="145.599" gradientUnits="userSpaceOnUse">
<stop stop-color="#4318FF"/>
<stop offset="1" stop-color="#4318FF" stop-opacity="0"/>
</linearGradient>
<linearGradient id="paint1_linear" x1="696.929" y1="-39.6545" x2="-6.73996" y2="170.851" gradientUnits="userSpaceOnUse">
<stop stop-color="#4318FF"/>
<stop offset="1" stop-color="#4318FF" stop-opacity="0"/>
</linearGradient>
</defs>
</svg>
