<svg width="17" height="17" viewBox="0 0 17 17" fill="none" xmlns="http://www.w3.org/2000/svg">
<path d="M14.8752 9.91667L12.7502 7.79167H7.79183C7.60397 7.79167 7.4238 7.71704 7.29096 7.5842C7.15812 7.45136 7.0835 7.27119 7.0835 7.08333V2.83333C7.0835 2.64547 7.15812 2.4653 7.29096 2.33247C7.4238 2.19963 7.60397 2.125 7.79183 2.125H14.1668C14.3547 2.125 14.5349 2.19963 14.6677 2.33247C14.8005 2.4653 14.8752 2.64547 14.8752 2.83333V9.91667Z" stroke="black" stroke-width="1.5" stroke-linecap="round" stroke-linejoin="round"/>
<path d="M9.91667 10.6247V12.0413C9.91667 12.2292 9.84204 12.4094 9.7092 12.5422C9.57636 12.675 9.39619 12.7497 9.20833 12.7497H4.25L2.125 14.8747V7.79134C2.125 7.60348 2.19963 7.42331 2.33247 7.29047C2.4653 7.15764 2.64547 7.08301 2.83333 7.08301H4.25" stroke="black" stroke-width="1.5" stroke-linecap="round" stroke-linejoin="round"/>
<ellipse cx="9.91683" cy="4.95833" rx="0.708333" ry="0.708333" fill="black"/>
<ellipse cx="12.0418" cy="4.95833" rx="0.708333" ry="0.708333" fill="black"/>
</svg>
