<svg xmlns="http://www.w3.org/2000/svg" width="22.5" height="22.5" viewBox="0 0 22.5 22.5">
  <path id="Icon_metro-cancel" data-name="Icon metro-cancel" d="M13.821,1.928a11.25,11.25,0,1,0,11.25,11.25,11.25,11.25,0,0,0-11.25-11.25Zm0,20.391a9.141,9.141,0,1,1,9.141-9.141A9.141,9.141,0,0,1,13.821,22.319ZM17.336,7.553l-3.516,3.516L10.305,7.553,8.2,9.662l3.516,3.516L8.2,16.694,10.305,18.8l3.516-3.516L17.336,18.8l2.109-2.109L15.93,13.178l3.516-3.516Z" transform="translate(-2.571 -1.928)" fill="#ff4343"/>
</svg>
