<svg width="31" height="32" viewBox="0 0 31 32" fill="none" xmlns="http://www.w3.org/2000/svg">
<path d="M19.375 7.27295V9.85628" stroke="#0038FF" stroke-width="2" stroke-linecap="round" stroke-linejoin="round"/>
<path d="M19.375 15.0229V17.6063" stroke="#0038FF" stroke-width="2" stroke-linecap="round" stroke-linejoin="round"/>
<path d="M19.375 22.7729V25.3563" stroke="#0038FF" stroke-width="2" stroke-linecap="round" stroke-linejoin="round"/>
<path d="M6.45833 7.27295H24.5417C25.2268 7.27295 25.8839 7.54512 26.3684 8.02959C26.8528 8.51406 27.125 9.17114 27.125 9.85628V13.7313C26.4399 13.7313 25.7828 14.0035 25.2983 14.4879C24.8138 14.9724 24.5417 15.6295 24.5417 16.3146C24.5417 16.9998 24.8138 17.6568 25.2983 18.1413C25.7828 18.6258 26.4399 18.898 27.125 18.898V22.773C27.125 23.4581 26.8528 24.1152 26.3684 24.5996C25.8839 25.0841 25.2268 25.3563 24.5417 25.3563H6.45833C5.77319 25.3563 5.11611 25.0841 4.63164 24.5996C4.14717 24.1152 3.875 23.4581 3.875 22.773V18.898C4.56014 18.898 5.21722 18.6258 5.70169 18.1413C6.18616 17.6568 6.45833 16.9998 6.45833 16.3146C6.45833 15.6295 6.18616 14.9724 5.70169 14.4879C5.21722 14.0035 4.56014 13.7313 3.875 13.7313V9.85628C3.875 9.17114 4.14717 8.51406 4.63164 8.02959C5.11611 7.54512 5.77319 7.27295 6.45833 7.27295" stroke="#0038FF" stroke-width="2.5" stroke-linecap="round" stroke-linejoin="round"/>
</svg>
