<svg width="22" height="26" viewBox="0 0 22 26" fill="none" xmlns="http://www.w3.org/2000/svg">
<path d="M13.71 25.5H4.38379C2.22982 25.5 0.477539 23.7477 0.477539 21.5938V8.36133C0.477539 6.20736 2.22982 4.45508 4.38379 4.45508H13.71C15.8639 4.45508 17.6162 6.20736 17.6162 8.36133V21.5938C17.6162 23.7477 15.8639 25.5 13.71 25.5ZM4.38379 6.4082C3.3069 6.4082 2.43066 7.28444 2.43066 8.36133V21.5938C2.43066 22.6706 3.3069 23.5469 4.38379 23.5469H13.71C14.7868 23.5469 15.6631 22.6706 15.6631 21.5938V8.36133C15.6631 7.28444 14.7868 6.4082 13.71 6.4082H4.38379ZM21.5225 19.1523V4.40625C21.5225 2.25228 19.7702 0.5 17.6162 0.5H6.77637C6.23697 0.5 5.7998 0.937164 5.7998 1.47656C5.7998 2.01596 6.23697 2.45312 6.77637 2.45312H17.6162C18.6931 2.45312 19.5693 3.32936 19.5693 4.40625V19.1523C19.5693 19.6917 20.0065 20.1289 20.5459 20.1289C21.0853 20.1289 21.5225 19.6917 21.5225 19.1523Z" fill="black"/>
</svg>
