<svg width="100" height="100" viewBox="0 0 100 100" fill="none" xmlns="http://www.w3.org/2000/svg">
<path d="M96.7742 20.9678H22.5807V22.5807C22.5807 23.4723 21.8592 24.1936 20.9678 24.1936C20.0762 24.1936 19.3549 23.4721 19.3549 22.5807V20.9678H3.22578C1.44434 20.9678 0 22.4119 0 24.1936V38.3922C0 39.2053 0.399805 39.9779 1.09121 40.4057C4.30586 42.3939 6.45156 45.9422 6.45156 50C6.45156 54.0576 4.30586 57.606 1.09121 59.5943C0.399805 60.0221 0 60.7949 0 61.6078V75.8064C0 77.5879 1.44434 79.0322 3.22578 79.0322H19.3549V77.4193C19.3549 76.5277 20.0764 75.8064 20.9678 75.8064C21.8594 75.8064 22.5807 76.5279 22.5807 77.4193V79.0322H96.7742C98.5557 79.0322 100 77.5879 100 75.8064V24.1936C100 22.4119 98.5557 20.9678 96.7742 20.9678ZM22.5807 70.9678C22.5807 71.8594 21.8592 72.5807 20.9678 72.5807C20.0762 72.5807 19.3549 71.8592 19.3549 70.9678V67.742C19.3549 66.8504 20.0764 66.1291 20.9678 66.1291C21.8594 66.1291 22.5807 66.8506 22.5807 67.742V70.9678ZM22.5807 61.2902C22.5807 62.1818 21.8592 62.9031 20.9678 62.9031C20.0762 62.9031 19.3549 62.1816 19.3549 61.2902V58.0645C19.3549 57.1729 20.0764 56.4516 20.9678 56.4516C21.8594 56.4516 22.5807 57.173 22.5807 58.0645V61.2902ZM22.5807 51.6129C22.5807 52.5045 21.8592 53.2258 20.9678 53.2258C20.0762 53.2258 19.3549 52.5043 19.3549 51.6129V48.3871C19.3549 47.4955 20.0764 46.7742 20.9678 46.7742C21.8594 46.7742 22.5807 47.4957 22.5807 48.3871V51.6129ZM22.5807 41.9355C22.5807 42.8271 21.8592 43.5484 20.9678 43.5484C20.0762 43.5484 19.3549 42.827 19.3549 41.9355V38.7098C19.3549 37.8182 20.0764 37.0969 20.9678 37.0969C21.8594 37.0969 22.5807 37.8184 22.5807 38.7098V41.9355ZM22.5807 32.258C22.5807 33.1496 21.8592 33.8709 20.9678 33.8709C20.0762 33.8709 19.3549 33.1494 19.3549 32.258V29.0322C19.3549 28.1406 20.0764 27.4193 20.9678 27.4193C21.8594 27.4193 22.5807 28.1408 22.5807 29.0322V32.258Z" fill="#696969"/>
<path d="M95.1615 75.8063H27.4195C26.5287 75.8063 25.8066 75.0842 25.8066 74.1934V25.8062C25.8066 24.9154 26.5287 24.1934 27.4195 24.1934H95.1615C96.0523 24.1934 96.7744 24.9154 96.7744 25.8062V74.1934C96.7744 75.0842 96.0523 75.8063 95.1615 75.8063Z" fill="#C4C4C4"/>
<path d="M59.956 61.1461L51.5958 66.3945C49.7534 67.5512 47.4413 65.8715 47.972 63.7617L50.3802 54.1889L42.8052 47.8598C41.1357 46.4648 42.0189 43.7469 44.1894 43.5998L54.0378 42.932L57.7163 33.7719C58.5271 31.7531 61.3849 31.7531 62.1956 33.7719L65.8741 42.932L75.7226 43.5998C77.8931 43.7471 78.7763 46.465 77.1067 47.8598L69.5317 54.1889L71.9399 63.7617C72.4706 65.8715 70.1587 67.5514 68.3161 66.3945L59.956 61.1461Z" fill="white"/>
<path d="M70.8907 59.5921C60.4394 58.9532 51.5784 52.4837 47.5294 43.3735L44.1894 43.5999C42.0189 43.7472 41.1357 46.4651 42.8052 47.8599L50.3802 54.189L47.9718 63.7618C47.4411 65.8716 49.753 67.5513 51.5956 66.3946L59.9558 61.1462L68.3157 66.3946C70.1581 67.5513 72.4702 65.8716 71.9394 63.7618L70.8907 59.5921Z" fill="#E1E1E1"/>
</svg>
