<svg width="100" height="60" viewBox="0 0 100 60" fill="none" xmlns="http://www.w3.org/2000/svg">
<path d="M96.7742 0.967773H22.5807V2.58066C22.5807 3.47226 21.8592 4.19355 20.9678 4.19355C20.0762 4.19355 19.3549 3.47207 19.3549 2.58066V0.967773H3.22578C1.44434 0.967773 0 2.41191 0 4.19355V18.3922C0 19.2053 0.399805 19.9779 1.09121 20.4057C4.30586 22.3939 6.45156 25.9422 6.45156 30C6.45156 34.0576 4.30586 37.606 1.09121 39.5943C0.399805 40.0221 0 40.7949 0 41.6078V55.8064C0 57.5879 1.44434 59.0322 3.22578 59.0322H19.3549V57.4193C19.3549 56.5277 20.0764 55.8064 20.9678 55.8064C21.8594 55.8064 22.5807 56.5279 22.5807 57.4193V59.0322H96.7742C98.5557 59.0322 100 57.5879 100 55.8064V4.19355C100 2.41191 98.5557 0.967773 96.7742 0.967773ZM22.5807 50.9678C22.5807 51.8594 21.8592 52.5807 20.9678 52.5807C20.0762 52.5807 19.3549 51.8592 19.3549 50.9678V47.742C19.3549 46.8504 20.0764 46.1291 20.9678 46.1291C21.8594 46.1291 22.5807 46.8506 22.5807 47.742V50.9678ZM22.5807 41.2902C22.5807 42.1818 21.8592 42.9031 20.9678 42.9031C20.0762 42.9031 19.3549 42.1816 19.3549 41.2902V38.0645C19.3549 37.1729 20.0764 36.4516 20.9678 36.4516C21.8594 36.4516 22.5807 37.173 22.5807 38.0645V41.2902ZM22.5807 31.6129C22.5807 32.5045 21.8592 33.2258 20.9678 33.2258C20.0762 33.2258 19.3549 32.5043 19.3549 31.6129V28.3871C19.3549 27.4955 20.0764 26.7742 20.9678 26.7742C21.8594 26.7742 22.5807 27.4957 22.5807 28.3871V31.6129ZM22.5807 21.9355C22.5807 22.8271 21.8592 23.5484 20.9678 23.5484C20.0762 23.5484 19.3549 22.827 19.3549 21.9355V18.7098C19.3549 17.8182 20.0764 17.0969 20.9678 17.0969C21.8594 17.0969 22.5807 17.8184 22.5807 18.7098V21.9355ZM22.5807 12.258C22.5807 13.1496 21.8592 13.8709 20.9678 13.8709C20.0762 13.8709 19.3549 13.1494 19.3549 12.258V9.03223C19.3549 8.14062 20.0764 7.41933 20.9678 7.41933C21.8594 7.41933 22.5807 8.14082 22.5807 9.03223V12.258Z" fill="#FFC350"/>
</svg>
