<svg width="101" height="100" viewBox="0 0 101 100" fill="none" xmlns="http://www.w3.org/2000/svg">
<g clip-path="url(#clip0_1740:42372)">
<path d="M97.2742 20.9678H23.0807V22.5807C23.0807 23.4723 22.3592 24.1936 21.4678 24.1936C20.5762 24.1936 19.8549 23.4721 19.8549 22.5807V20.9678H3.72578C1.94434 20.9678 0.5 22.4119 0.5 24.1936V38.3922C0.5 39.2053 0.899805 39.9779 1.59121 40.4057C4.80586 42.3939 6.95156 45.9422 6.95156 50C6.95156 54.0576 4.80586 57.606 1.59121 59.5943C0.899805 60.0221 0.5 60.7949 0.5 61.6078V75.8064C0.5 77.5879 1.94434 79.0322 3.72578 79.0322H19.8549V77.4193C19.8549 76.5277 20.5764 75.8064 21.4678 75.8064C22.3594 75.8064 23.0807 76.5279 23.0807 77.4193V79.0322H97.2742C99.0557 79.0322 100.5 77.5879 100.5 75.8064V24.1936C100.5 22.4119 99.0557 20.9678 97.2742 20.9678ZM23.0807 70.9678C23.0807 71.8594 22.3592 72.5807 21.4678 72.5807C20.5762 72.5807 19.8549 71.8592 19.8549 70.9678V67.742C19.8549 66.8504 20.5764 66.1291 21.4678 66.1291C22.3594 66.1291 23.0807 66.8506 23.0807 67.742V70.9678ZM23.0807 61.2902C23.0807 62.1818 22.3592 62.9031 21.4678 62.9031C20.5762 62.9031 19.8549 62.1816 19.8549 61.2902V58.0645C19.8549 57.1729 20.5764 56.4516 21.4678 56.4516C22.3594 56.4516 23.0807 57.173 23.0807 58.0645V61.2902ZM23.0807 51.6129C23.0807 52.5045 22.3592 53.2258 21.4678 53.2258C20.5762 53.2258 19.8549 52.5043 19.8549 51.6129V48.3871C19.8549 47.4955 20.5764 46.7742 21.4678 46.7742C22.3594 46.7742 23.0807 47.4957 23.0807 48.3871V51.6129ZM23.0807 41.9355C23.0807 42.8271 22.3592 43.5484 21.4678 43.5484C20.5762 43.5484 19.8549 42.827 19.8549 41.9355V38.7098C19.8549 37.8182 20.5764 37.0969 21.4678 37.0969C22.3594 37.0969 23.0807 37.8184 23.0807 38.7098V41.9355ZM23.0807 32.258C23.0807 33.1496 22.3592 33.8709 21.4678 33.8709C20.5762 33.8709 19.8549 33.1494 19.8549 32.258V29.0322C19.8549 28.1406 20.5764 27.4193 21.4678 27.4193C22.3594 27.4193 23.0807 28.1408 23.0807 29.0322V32.258Z" fill="#FFC350"/>
<path d="M95.6615 75.8063H27.9195C27.0287 75.8063 26.3066 75.0842 26.3066 74.1934V25.8062C26.3066 24.9154 27.0287 24.1934 27.9195 24.1934H95.6615C96.5523 24.1934 97.2744 24.9154 97.2744 25.8062V74.1934C97.2744 75.0842 96.5523 75.8063 95.6615 75.8063Z" fill="#FFD164"/>
<path d="M60.456 61.1461L52.0958 66.3945C50.2534 67.5512 47.9413 65.8715 48.472 63.7617L50.8802 54.1889L43.3052 47.8598C41.6357 46.4648 42.5189 43.7469 44.6894 43.5998L54.5378 42.932L58.2163 33.7719C59.0271 31.7531 61.8849 31.7531 62.6956 33.7719L66.3741 42.932L76.2226 43.5998C78.3931 43.7471 79.2763 46.465 77.6067 47.8598L70.0317 54.1889L72.4399 63.7617C72.9706 65.8715 70.6587 67.5514 68.8161 66.3945L60.456 61.1461Z" fill="white"/>
<path d="M71.3907 59.5921C60.9394 58.9532 52.0784 52.4837 48.0294 43.3735L44.6894 43.5999C42.5189 43.7472 41.6357 46.4651 43.3052 47.8599L50.8802 54.189L48.4718 63.7618C47.9411 65.8716 50.253 67.5513 52.0956 66.3946L60.4558 61.1462L68.8157 66.3946C70.6581 67.5513 72.9702 65.8716 72.4394 63.7618L71.3907 59.5921Z" fill="#FFF6D8"/>
</g>
<defs>
<clipPath id="clip0_1740:42372">
<rect width="100" height="100" fill="white" transform="translate(0.5)"/>
</clipPath>
</defs>
</svg>
