<svg width="31" height="7" viewBox="0 0 31 7" fill="none" xmlns="http://www.w3.org/2000/svg">
<path fill-rule="evenodd" clip-rule="evenodd" d="M2.11733 0.236976C1.044 0.708707 0 2.31768 0 3.5C0 4.70417 1.05604 6.307 2.15429 6.77002C2.45437 6.89654 3.14099 6.9988 3.68011 6.99727C4.90551 6.99368 5.80049 6.51837 6.51813 5.48988C6.9791 4.82966 7.03386 4.61812 7.03386 3.5C7.03386 2.38188 6.9791 2.17034 6.51813 1.51012C5.78845 0.464391 4.90755 0.00460971 3.64315 0.00956093C3.08368 0.0116097 2.39706 0.113878 2.11733 0.236976ZM13.9848 0.283757C12.6938 0.969074 12.0352 2.05612 12.0352 3.50171C12.0352 5.55766 13.4681 7 15.5106 7C17.5539 7 18.9861 5.55766 18.9861 3.5C18.9861 2.06244 18.331 0.968049 17.0856 0.324902C16.3049 -0.0783659 14.7067 -0.0995362 13.9848 0.283757ZM25.4997 0.554878C24.4586 1.26393 23.9026 2.289 23.9026 3.5C23.9026 4.711 24.4586 5.73607 25.4997 6.44512C26.1914 6.91617 26.466 7 27.3179 7C28.5908 7 29.2529 6.71829 30.037 5.84312C31.321 4.41 31.321 2.59 30.037 1.15688C29.2529 0.281708 28.5908 0 27.3179 0C26.466 0 26.1914 0.0838293 25.4997 0.554878Z" fill="black" fill-opacity="0.5"/>
</svg>
