<svg xmlns="http://www.w3.org/2000/svg" width="16.3" height="16.301" viewBox="0 0 16.3 16.301">
  <path id="Path_890" data-name="Path 890" d="M89.819,64.123l-1.837-1.837a1.411,1.411,0,0,0-1.058-.412,1.53,1.53,0,0,0-1.032.453L74.7,73.52l-.013.014a.635.635,0,0,0-.2.412l-.253,3.238c0,.006,0,.011,0,.017s0,.029,0,.044,0,.017,0,.025,0,.027,0,.04,0,.017,0,.025,0,.027.008.041l.006.023c0,.014.008.028.013.043l.007.019c.006.015.012.03.019.044l.007.016c.008.015.016.03.025.045l.008.013c.01.015.02.03.031.044l.008.011a.652.652,0,0,0,.045.051q.023.023.047.043l.037.027.014.01c.016.01.032.02.048.029l.006,0c.017.009.034.017.051.024l0,0,.051.018.008,0,.048.012.013,0,.046.007.016,0,.061,0h0l.05,0,3.238-.253a.635.635,0,0,0,.413-.2l.014-.013L89.779,66.213a1.53,1.53,0,0,0,.453-1.032A1.412,1.412,0,0,0,89.819,64.123Zm-.863,1.015a.257.257,0,0,1-.08.173L77.823,76.364l-1.28.1.7-.7a.638.638,0,0,0-.9-.9l-.7.7.1-1.28L86.794,63.228a.257.257,0,0,1,.173-.08.152.152,0,0,1,.113.039l1.837,1.837A.15.15,0,0,1,88.956,65.138Z" transform="translate(-74.083 -61.722)" fill="#55a57f" stroke="#55a57f" stroke-width="0.3"/>
</svg>
