<svg width="24" height="24" viewBox="0 0 24 24" fill="none" xmlns="http://www.w3.org/2000/svg">
<path d="M12 15V15.01M12 9V11V9Z" stroke="#FF6363" stroke-width="2" stroke-linecap="round" stroke-linejoin="round"/>
<path d="M4.99921 18.9995H18.9992C19.3255 18.9972 19.6463 18.9151 19.9336 18.7604C20.2209 18.6057 20.466 18.383 20.6474 18.1118C20.8289 17.8406 20.9412 17.5291 20.9747 17.2045C21.0081 16.8799 20.9616 16.552 20.8392 16.2495L13.7392 3.99953C13.5663 3.68693 13.3127 3.42636 13.005 3.24491C12.6972 3.06347 12.3465 2.96777 11.9892 2.96777C11.632 2.96777 11.2812 3.06347 10.9735 3.24491C10.6657 3.42636 10.4122 3.68693 10.2392 3.99953L3.13921 16.2495C3.01915 16.5451 2.97155 16.8651 3.00036 17.1828C3.02918 17.5006 3.13359 17.8068 3.30486 18.0759C3.47614 18.3451 3.70932 18.5694 3.98494 18.73C4.26056 18.8907 4.57061 18.9831 4.88921 18.9995" stroke="#FF6363" stroke-width="2" stroke-linecap="round" stroke-linejoin="round"/>
</svg>
