<svg id="finance-manage-icon" xmlns="http://www.w3.org/2000/svg" width="28" height="28" viewBox="0 0 28 28">
  <rect id="Rectangle_1239" data-name="Rectangle 1239" width="28" height="28" fill="none"/>
  <path id="Path_611" data-name="Path 611" d="M14.7,4.333l5.635,5.635V23h-14V4.333H14.7M15.667,2H6.333A2.34,2.34,0,0,0,4,4.333V23a2.34,2.34,0,0,0,2.333,2.333h14A2.34,2.34,0,0,0,22.667,23V9l-7-7Zm1.167,10.5H12.167v1.167h3.5a1.17,1.17,0,0,1,1.167,1.167v3.5A1.17,1.17,0,0,1,15.667,19.5H14.5v1.167H12.167V19.5H9.833V17.167H14.5V16H11a1.17,1.17,0,0,1-1.167-1.167v-3.5A1.17,1.17,0,0,1,11,10.167h1.167V9H14.5v1.167h2.333Z" transform="translate(0.667 0.333)" fill="#55a57f"/>
</svg>
