<svg width="42" height="42" viewBox="0 0 42 42" fill="none" xmlns="http://www.w3.org/2000/svg">
<path d="M27.125 28C29.5412 28 31.5 26.0412 31.5 23.625C31.5 21.2088 29.5412 19.25 27.125 19.25C24.7088 19.25 22.75 21.2088 22.75 23.625C22.75 26.0412 24.7088 28 27.125 28Z" fill="#1F162D"/>
<path d="M21 23.625C21 22.1988 21.693 20.944 22.75 20.146C22.0167 19.5895 21.1137 19.25 20.125 19.25C17.7082 19.25 15.75 21.2082 15.75 23.625C15.75 26.0417 17.7082 28 20.125 28C21.1137 28 22.0167 27.6605 22.75 27.104C21.693 26.306 21 25.0512 21 23.625Z" fill="#1F162D"/>
<path d="M35 7H7C5.06975 7 3.5 8.56975 3.5 10.5V31.5C3.5 33.4303 5.06975 35 7 35H35C36.9302 35 38.5 33.4303 38.5 31.5V10.5C38.5 8.56975 36.9302 7 35 7ZM7 31.5V10.5H35L35.0035 31.5H7Z" fill="#1F162D"/>
</svg>
