<svg width="91" height="68" viewBox="0 0 91 68" fill="none" xmlns="http://www.w3.org/2000/svg">
<path fill-rule="evenodd" clip-rule="evenodd" d="M43.7699 1.06466C38.6972 1.9798 35.0978 6.25144 35.1177 11.333C35.126 13.4849 35.8692 15.7142 37.1352 17.385L37.635 18.0446L37.2711 18.3164C36.6728 18.7629 34.7639 20.7041 34.2358 21.4028C33.7465 22.05 33.7449 22.0552 33.9585 22.3052L34.1734 22.5566L33.9242 22.3482C33.6764 22.1407 33.6733 22.1424 33.3222 22.6866C32.2665 24.3227 30.924 27.5367 30.5097 29.4198L30.4143 29.8531L29.8021 29.1059C29.1774 28.3434 27.0884 26.3354 26.9198 26.3354C26.8687 26.3354 27.0478 26.038 27.318 25.6745C29.257 23.0663 29.857 19.9928 29.037 16.8699C28.5341 14.9549 27.6141 13.4499 26.057 11.9952C24.6684 10.698 23.416 10.0023 21.5789 9.5072C20.7643 9.28769 20.3586 9.24991 18.9097 9.25893C17.407 9.26818 17.0804 9.30551 16.2 9.56879C12.6159 10.6404 10.0638 13.16 8.98613 16.691C8.70694 17.6058 8.67607 17.879 8.67436 19.4546C8.67288 20.8964 8.71514 21.3553 8.91539 22.0714C9.31737 23.5087 10.1276 25.1022 10.8731 25.9219L11.1639 26.2416L10.4805 26.8173C8.78531 28.2455 7.29391 30.0601 6.1693 32.0628C5.48607 33.2794 5.43629 33.3952 5.64851 33.273C5.73747 33.2218 5.69475 33.3057 5.55362 33.4595C5.24949 33.7909 4.84306 34.7758 4.38549 36.2908C2.8704 41.3065 3.09845 47.0638 5.00265 51.8669L5.38356 52.8277L3.82153 55.9659C1.26225 61.1071 1.19402 61.2561 1.06371 61.9888C0.733372 63.8456 1.70877 65.7037 3.50031 66.6301L4.21554 67H45.4503H86.685L87.4254 66.6509C89.2514 65.79 90.2793 63.8808 89.9335 61.9924C89.8071 61.302 89.2745 60.1504 86.7043 55.0094L85.6159 52.8326L86.0232 51.7946C87.0419 49.1982 87.6532 45.9384 87.6532 43.1019C87.6532 41.862 87.3952 39.5804 87.0838 38.0675C86.6559 35.9883 85.5188 33.0156 84.8886 32.3286C84.7489 32.1765 84.7084 32.0945 84.7988 32.1465C84.9709 32.2456 84.7849 31.9122 83.9485 30.6219C83.3022 29.6249 81.9906 28.0916 81.1984 27.407C80.8394 27.0968 80.3955 26.7131 80.2119 26.5543L79.8782 26.2656L80.3542 25.6519C80.9923 24.8294 81.7825 23.2121 82.0871 22.1054C82.2897 21.369 82.3358 20.8919 82.3383 19.511C82.3419 17.5178 82.1472 16.6423 81.3315 14.9817C80.0335 12.3394 77.7574 10.4486 74.8154 9.56902C73.9339 9.30552 73.6079 9.26818 72.1047 9.25893C70.6558 9.24991 70.2501 9.28769 69.4355 9.5072C65.1649 10.658 62.2028 14.0467 61.6627 18.3995C61.3653 20.7957 62.1064 23.5762 63.5656 25.5392L64.0865 26.2398L62.8483 27.4065C62.1674 28.0481 61.3845 28.8629 61.1087 29.2168L60.6072 29.8607L60.515 29.4799C59.9122 26.9892 58.6978 24.1664 57.4394 22.331C56.4379 20.8704 54.8453 19.154 53.7113 18.3133L53.3153 18.0198L53.6734 17.6159C54.987 16.1343 55.8834 13.5636 55.8812 11.2849C55.8783 8.35529 54.8101 5.85642 52.7127 3.87282C51.3208 2.55656 50.1271 1.85742 48.4049 1.34982C47.5769 1.10583 47.0994 1.04198 45.8489 1.00837C45.0032 0.985583 44.0676 1.01096 43.7699 1.06466ZM47.1589 5.31565C49.4605 5.89048 51.3134 7.97774 51.6618 10.3882C52.0906 13.3562 50.3922 16.0653 47.4236 17.1481C46.6536 17.4288 44.9126 17.4887 44.0296 17.2647C41.4618 16.6132 39.5748 14.4505 39.2917 11.8343C38.9802 8.95403 41.0319 6.02314 43.8555 5.31497C45.1484 4.99079 45.8584 4.9909 47.1589 5.31565ZM20.5928 13.5406C22.829 14.1145 24.517 15.8472 25.0595 18.1254C25.8116 21.2847 23.8716 24.544 20.7052 25.4407C20.206 25.5821 19.5823 25.6586 18.9301 25.6586C16.2813 25.6586 14.0501 24.0599 13.1055 21.485C12.8502 20.7894 12.7948 20.4486 12.7932 19.5674C12.7909 18.3474 12.9154 17.7932 13.4249 16.7554C14.1148 15.3502 15.4782 14.1808 17.0416 13.6534C18.0554 13.3115 19.5187 13.265 20.5928 13.5406ZM73.6502 13.5452C75.121 13.9776 76.4699 14.957 77.243 16.1539C78.7225 18.444 78.483 21.6167 76.6811 23.6L76.4504 23.8538L76.7267 24.164L77.0028 24.4742L76.7016 24.2121L76.4004 23.9498L75.8573 24.3604C73.3208 26.2777 69.8544 26.0697 67.6203 23.866C66.8022 23.0592 66.2766 22.1686 66.0031 21.1257C65.4371 18.9676 66.0014 16.8 67.5401 15.222C68.3166 14.4255 69.2415 13.8683 70.2717 13.5763C71.1794 13.3188 72.8288 13.3038 73.6502 13.5452ZM42.408 21.094C44.5021 21.7603 47.0239 21.6925 49.1396 20.913L49.7535 20.6869L50.3811 21.0577C51.2325 21.5608 52.8122 23.0507 53.5754 24.0704C55.0447 26.0336 56.2575 28.9726 56.6744 31.5807C56.8882 32.9184 57.0067 34.9162 56.9335 35.9517L56.8639 36.9387H45.5057H34.1476L34.0721 35.8953C33.9871 34.7215 34.1227 32.7754 34.3992 31.1967C34.7098 29.4245 35.8119 26.4345 36.5342 25.4048C36.6539 25.2342 36.7232 25.0946 36.6882 25.0946C36.6532 25.0946 36.6981 25.0058 36.7881 24.8972C36.878 24.7887 37.1596 24.4218 37.4138 24.082C38.0245 23.2658 38.9015 22.3775 39.8118 21.6528C40.698 20.9473 41.1757 20.6818 41.4065 20.7667C41.5005 20.8012 41.9511 20.9486 42.408 21.094ZM14.5242 24.5733C14.5242 24.5966 14.4345 24.6855 14.3249 24.7707C14.1442 24.9109 14.1402 24.9069 14.2818 24.728C14.4307 24.5401 14.5242 24.4804 14.5242 24.5733ZM54.9616 24.7989C54.9616 24.8222 54.8718 24.9111 54.7622 24.9963C54.5816 25.1365 54.5776 25.1325 54.7192 24.9536C54.8681 24.7657 54.9616 24.706 54.9616 24.7989ZM77.7432 25.151C77.8904 25.3061 77.9851 25.433 77.9538 25.433C77.9225 25.433 77.7764 25.3061 77.6293 25.151C77.4821 24.9959 77.3873 24.869 77.4187 24.869C77.45 24.869 77.596 24.9959 77.7432 25.151ZM78.6544 26.0534C78.8016 26.2085 78.8964 26.3354 78.8651 26.3354C78.8337 26.3354 78.6877 26.2085 78.5405 26.0534C78.3934 25.8983 78.2986 25.7714 78.3299 25.7714C78.3613 25.7714 78.5073 25.8983 78.6544 26.0534ZM79.5657 26.9558C79.7129 27.111 79.8077 27.2378 79.7763 27.2378C79.745 27.2378 79.599 27.111 79.4518 26.9558C79.3046 26.8007 79.2099 26.6738 79.2412 26.6738C79.2725 26.6738 79.4185 26.8007 79.5657 26.9558ZM80.477 27.8583C80.6241 28.0134 80.7189 28.1403 80.6876 28.1403C80.6563 28.1403 80.5102 28.0134 80.3631 27.8583C80.2159 27.7032 80.1211 27.5763 80.1525 27.5763C80.1838 27.5763 80.3298 27.7032 80.477 27.8583ZM81.3882 28.7607C81.5354 28.9158 81.6302 29.0427 81.5989 29.0427C81.5675 29.0427 81.4215 28.9158 81.2743 28.7607C81.1272 28.6056 81.0324 28.4787 81.0637 28.4787C81.095 28.4787 81.2411 28.6056 81.3882 28.7607ZM15.8703 29.3366C17.8042 29.9693 20.3819 29.9431 22.2992 29.2713C23.371 28.8957 23.3961 28.9017 24.6036 29.8195C26.2744 31.0893 27.8009 33.0732 28.7668 35.2299C29.0628 35.8905 29.3401 36.5454 29.3832 36.6849L29.4616 36.9387H22.9826C16.8343 36.9387 16.4584 36.9504 15.6194 37.168C14.4253 37.4778 13.591 37.9613 12.6767 38.8737C11.94 39.6088 11.84 39.7811 10.007 43.4768C8.95958 45.5886 8.06666 47.3163 8.02281 47.3163C7.92428 47.3163 7.84215 46.8813 7.69304 45.5679C6.93658 38.9086 9.45338 32.4184 13.9547 29.4209C14.3878 29.1324 14.766 28.956 14.8659 28.9958C14.9599 29.0333 15.4118 29.1867 15.8703 29.3366ZM68.8881 29.3302C70.7555 29.97 73.3644 29.9436 75.3368 29.265C76.4311 28.8885 76.3401 28.8669 77.5981 29.801C80.0145 31.5952 81.9841 34.7998 82.8758 38.3878C82.9975 38.8776 82.9979 38.8778 83.2467 38.6698L83.4955 38.4615L83.2812 38.7125C83.0785 38.9496 83.0754 39.0238 83.2242 40.0661C83.5208 42.1439 83.3398 47.4207 82.9762 47.2934C82.876 47.2582 80.4562 42.4835 80.3145 42.0412C80.2695 41.9008 80.1937 41.8097 80.1461 41.8388C80.0983 41.8681 80.0586 41.8307 80.0578 41.7559C80.0547 41.4901 79.3064 40.0453 78.8661 39.455C78.0456 38.3552 76.6802 37.4793 75.2299 37.1226C74.5829 36.9635 73.6126 36.9387 68.0252 36.9387C64.4739 36.9387 61.5682 36.9147 61.5682 36.8852C61.5682 36.7587 62.2827 35.0662 62.607 34.4246C63.3752 32.9047 64.9016 30.9766 66.0585 30.0651C66.9864 29.3338 67.7309 28.9136 67.9471 28.9989C68.0411 29.036 68.4645 29.1851 68.8881 29.3302ZM82.2995 29.6631C82.4467 29.8182 82.5415 29.9451 82.5101 29.9451C82.4788 29.9451 82.3328 29.8182 82.1856 29.6631C82.0384 29.508 81.9437 29.3811 81.975 29.3811C82.0063 29.3811 82.1523 29.508 82.2995 29.6631ZM83.2108 30.5655C83.3579 30.7206 83.4527 30.8475 83.4214 30.8475C83.3901 30.8475 83.244 30.7206 83.0969 30.5655C82.9497 30.4104 82.8549 30.2835 82.8862 30.2835C82.9176 30.2835 83.0636 30.4104 83.2108 30.5655ZM7.1202 31.9053C7.1202 31.9287 7.03044 32.0175 6.92086 32.1027C6.7402 32.2429 6.73622 32.239 6.8778 32.0601C7.02668 31.8721 7.1202 31.8125 7.1202 31.9053ZM86.1724 35.8475C86.1724 35.8676 86.0315 36.0072 85.8591 36.1577L85.5459 36.4311L85.822 36.1209C86.0801 35.831 86.1724 35.7589 86.1724 35.8475ZM85.2611 36.7499C85.2611 36.77 85.1202 36.9096 84.9479 37.0601L84.6346 37.3335L84.9107 37.0233C85.1688 36.7334 85.2611 36.6613 85.2611 36.7499ZM84.3499 37.6523C84.3499 37.6725 84.2089 37.812 84.0366 37.9625L83.7234 38.2359L83.9995 37.9257C84.2576 37.6358 84.3499 37.5637 84.3499 37.6523ZM74.3859 41.1658C74.5755 41.1988 74.9221 41.3822 75.1562 41.5732C75.5939 41.9304 75.7908 42.3054 79.5665 49.9671C80.2391 51.332 81.6481 54.1746 82.6974 56.284C84.9353 60.7823 85.8307 62.6343 85.8307 62.7645C85.8307 62.8162 85.75 62.8893 85.6515 62.9268C85.359 63.0379 5.48596 63.0024 5.30769 62.8909C5.09708 62.7594 5.10311 62.746 7.85912 57.1864C9.08932 54.7048 10.8231 51.205 11.7121 49.4092C15.1781 42.4069 15.4616 41.876 15.9301 41.5103L16.3678 41.1687L27.4348 41.1123C40.8061 41.0442 73.9043 41.0818 74.3859 41.1658ZM79.7935 42.1643C79.7935 42.1845 79.6526 42.324 79.4803 42.4745L79.167 42.7479L79.4431 42.4377C79.7013 42.1478 79.7935 42.0757 79.7935 42.1643ZM78.8823 43.0667C78.8823 43.0869 78.7414 43.2264 78.569 43.3769L78.2558 43.6503L78.5319 43.3401C78.79 43.0502 78.8823 42.9781 78.8823 43.0667ZM77.971 43.9691C77.971 43.9893 77.8301 44.1288 77.6577 44.2793L77.3445 44.5527L77.6206 44.2425C77.8787 43.9526 77.971 43.8805 77.971 43.9691ZM33.9032 64.2082C34.0448 64.3871 34.0408 64.391 33.8601 64.2508C33.6703 64.1034 33.6101 64.0108 33.7038 64.0108C33.7274 64.0108 33.8172 64.0997 33.9032 64.2082ZM14.9799 64.6116C14.9799 64.6318 14.8388 64.7713 14.6666 64.9218L14.3534 65.1952L14.6295 64.885C14.8876 64.5951 14.9799 64.523 14.9799 64.6116ZM14.0686 65.514C14.0686 65.5342 13.9276 65.6737 13.7553 65.8242L13.4421 66.0976L13.7182 65.7874C13.9763 65.4975 14.0686 65.4254 14.0686 65.514ZM13.1573 66.4164C13.1573 66.4366 13.0163 66.5761 12.8441 66.7266L12.5308 67L12.8069 66.6898C13.0651 66.3999 13.1573 66.3278 13.1573 66.4164Z" fill="black" stroke="black"/>
</svg>
