<svg width="37" height="30" viewBox="0 0 37 30" fill="none" xmlns="http://www.w3.org/2000/svg">
<path fill-rule="evenodd" clip-rule="evenodd" d="M22.7893 0.621188C20.9657 1.35224 19.1844 3.13743 18.606 4.81403C18.3863 5.45019 18.2067 6.72543 18.2067 7.64774V9.32459L16.9062 9.16097C11.896 8.53117 7.28689 6.30598 3.8395 2.85274C3.09018 2.10212 2.40824 1.48651 2.32402 1.48456C2.0602 1.47869 1.36241 4.27693 1.36241 5.34013C1.36241 6.87756 2.24301 8.88899 3.53878 10.312L4.69757 11.5848L3.71961 11.4035C3.18183 11.304 2.41468 11.0552 2.01463 10.851L1.28735 10.4797L1.43474 11.709C1.74487 14.294 3.67453 16.709 6.11373 17.5643C7.51453 18.0556 7.24552 18.3481 5.38769 18.3535C4.67231 18.3555 4.08721 18.4457 4.08721 18.5538C4.08721 18.977 5.53285 20.9703 6.30472 21.6116C7.4256 22.5427 8.29853 22.957 9.81947 23.2791C11.0323 23.5359 11.086 23.5775 10.6369 23.9106C9.79024 24.5385 6.95619 25.8817 5.81326 26.1967C5.20463 26.3643 3.64753 26.5741 2.35325 26.6624L0 26.8234L2.136 27.8459C5.85314 29.6255 10.0471 30.3289 14.1274 29.8571C21.8958 28.9588 27.9211 24.6909 31.2256 17.7457C32.564 14.9328 33.0762 12.9617 33.2476 9.9649L33.3846 7.56508L35.2566 5.75249C36.286 4.75558 37.0686 3.88071 36.9952 3.80856C36.9222 3.73617 36.4267 3.8274 35.8947 4.01083C35.3626 4.19451 34.4812 4.42466 33.9363 4.52225L32.9454 4.69982L33.9442 3.85088C34.4934 3.38397 35.2467 2.45065 35.618 1.77708L36.2932 0.552216L34.3715 1.38061C33.3148 1.83626 32.2105 2.21023 31.9174 2.21194C31.6246 2.21365 30.8107 1.83333 30.1089 1.36691C27.8146 -0.157557 25.3561 -0.408007 22.7893 0.621188Z" fill="#3E82F1"/>
</svg>
