<svg xmlns="http://www.w3.org/2000/svg" width="2.688" height="16.872" viewBox="0 0 2.688 16.872">
  <path id="Path_891" data-name="Path 891" d="M3.936-1.224A1.21,1.21,0,0,1,3.6-.348,1.148,1.148,0,0,1,2.736,0a1.159,1.159,0,0,1-.852-.348,1.188,1.188,0,0,1-.348-.876V-11.5a1.188,1.188,0,0,1,.348-.876,1.159,1.159,0,0,1,.852-.348,1.148,1.148,0,0,1,.864.348,1.21,1.21,0,0,1,.336.876ZM2.712-14.3A1.607,1.607,0,0,1,1.7-14.556a1.036,1.036,0,0,1-.312-.852v-.384a.963.963,0,0,1,.336-.84,1.735,1.735,0,0,1,1.008-.24,1.655,1.655,0,0,1,1.032.252,1,1,0,0,1,.312.828v.384a1.011,1.011,0,0,1-.324.864A1.778,1.778,0,0,1,2.712-14.3Z" transform="translate(-1.392 16.872)" fill="#707070"/>
</svg>
