<svg width="33" height="33" viewBox="0 0 33 33" fill="none" xmlns="http://www.w3.org/2000/svg">
<path d="M23.375 15.125H9.625C8.10622 15.125 6.875 16.3562 6.875 17.875V26.125C6.875 27.6438 8.10622 28.875 9.625 28.875H23.375C24.8938 28.875 26.125 27.6438 26.125 26.125V17.875C26.125 16.3562 24.8938 15.125 23.375 15.125Z" stroke="#1F162D" stroke-width="1.5" stroke-linecap="round" stroke-linejoin="round"/>
<path d="M16.5 23.375C17.2594 23.375 17.875 22.7594 17.875 22C17.875 21.2406 17.2594 20.625 16.5 20.625C15.7406 20.625 15.125 21.2406 15.125 22C15.125 22.7594 15.7406 23.375 16.5 23.375Z" stroke="#1F162D" stroke-width="1.5" stroke-linecap="round" stroke-linejoin="round"/>
<path d="M11 15.125V9.625C11 8.16631 11.5795 6.76736 12.6109 5.73591C13.6424 4.70446 15.0413 4.125 16.5 4.125C17.9587 4.125 19.3576 4.70446 20.3891 5.73591C21.4205 6.76736 22 8.16631 22 9.625V15.125" stroke="#1F162D" stroke-width="1.5" stroke-linecap="round" stroke-linejoin="round"/>
</svg>
