<svg width="140" height="129" viewBox="0 0 140 129" fill="none" xmlns="http://www.w3.org/2000/svg">
<path d="M116.774 20.9678H42.5807V22.5807C42.5807 23.4723 41.8592 24.1936 40.9678 24.1936C40.0762 24.1936 39.3549 23.4721 39.3549 22.5807V20.9678H23.2258C21.4443 20.9678 20 22.4119 20 24.1936V38.3922C20 39.2053 20.3998 39.9779 21.0912 40.4057C24.3059 42.3939 26.4516 45.9422 26.4516 50C26.4516 54.0576 24.3059 57.606 21.0912 59.5943C20.3998 60.0221 20 60.7949 20 61.6078V75.8064C20 77.5879 21.4443 79.0322 23.2258 79.0322H39.3549V77.4193C39.3549 76.5277 40.0764 75.8064 40.9678 75.8064C41.8594 75.8064 42.5807 76.5279 42.5807 77.4193V79.0322H116.774C118.556 79.0322 120 77.5879 120 75.8064V24.1936C120 22.4119 118.556 20.9678 116.774 20.9678ZM42.5807 70.9678C42.5807 71.8594 41.8592 72.5807 40.9678 72.5807C40.0762 72.5807 39.3549 71.8592 39.3549 70.9678V67.742C39.3549 66.8504 40.0764 66.1291 40.9678 66.1291C41.8594 66.1291 42.5807 66.8506 42.5807 67.742V70.9678ZM42.5807 61.2902C42.5807 62.1818 41.8592 62.9031 40.9678 62.9031C40.0762 62.9031 39.3549 62.1816 39.3549 61.2902V58.0645C39.3549 57.1729 40.0764 56.4516 40.9678 56.4516C41.8594 56.4516 42.5807 57.173 42.5807 58.0645V61.2902ZM42.5807 51.6129C42.5807 52.5045 41.8592 53.2258 40.9678 53.2258C40.0762 53.2258 39.3549 52.5043 39.3549 51.6129V48.3871C39.3549 47.4955 40.0764 46.7742 40.9678 46.7742C41.8594 46.7742 42.5807 47.4957 42.5807 48.3871V51.6129ZM42.5807 41.9355C42.5807 42.8271 41.8592 43.5484 40.9678 43.5484C40.0762 43.5484 39.3549 42.827 39.3549 41.9355V38.7098C39.3549 37.8182 40.0764 37.0969 40.9678 37.0969C41.8594 37.0969 42.5807 37.8184 42.5807 38.7098V41.9355ZM42.5807 32.258C42.5807 33.1496 41.8592 33.8709 40.9678 33.8709C40.0762 33.8709 39.3549 33.1494 39.3549 32.258V29.0322C39.3549 28.1406 40.0764 27.4193 40.9678 27.4193C41.8594 27.4193 42.5807 28.1408 42.5807 29.0322V32.258Z" fill="#696969"/>
<path d="M115.162 75.8063H47.4195C46.5287 75.8063 45.8066 75.0842 45.8066 74.1934V25.8062C45.8066 24.9154 46.5287 24.1934 47.4195 24.1934H115.162C116.052 24.1934 116.774 24.9154 116.774 25.8062V74.1934C116.774 75.0842 116.052 75.8063 115.162 75.8063Z" fill="#C4C4C4"/>
<path d="M79.956 61.1461L71.5958 66.3945C69.7534 67.5512 67.4413 65.8715 67.972 63.7617L70.3802 54.1889L62.8052 47.8598C61.1357 46.4648 62.0189 43.7469 64.1894 43.5998L74.0378 42.932L77.7163 33.7719C78.5271 31.7531 81.3849 31.7531 82.1956 33.7719L85.8741 42.932L95.7226 43.5998C97.8931 43.7471 98.7763 46.465 97.1067 47.8598L89.5317 54.1889L91.9399 63.7617C92.4706 65.8715 90.1587 67.5514 88.3161 66.3945L79.956 61.1461Z" fill="white"/>
<path d="M90.8907 59.5921C80.4394 58.9532 71.5784 52.4837 67.5294 43.3735L64.1894 43.5999C62.0189 43.7472 61.1357 46.4651 62.8052 47.8599L70.3802 54.189L67.9718 63.7618C67.4411 65.8716 69.753 67.5513 71.5956 66.3946L79.9558 61.1462L88.3157 66.3946C90.1581 67.5513 92.4702 65.8716 91.9394 63.7618L90.8907 59.5921Z" fill="#E1E1E1"/>
<path d="M3.66406 125H1.30469V113.727H3.66406V118.867H3.73438L7.96875 113.727H10.5938L6.42188 118.727L10.8828 125H8.0625L4.71875 120.289L3.66406 121.555V125ZM14.8984 118.133C14.4036 118.133 13.9896 118.302 13.6562 118.641C13.3281 118.979 13.1432 119.411 13.1016 119.938H16.6562C16.6302 119.401 16.4557 118.966 16.1328 118.633C15.8151 118.299 15.4036 118.133 14.8984 118.133ZM16.6875 122.438H18.7812C18.6562 123.26 18.2448 123.924 17.5469 124.43C16.8542 124.93 15.9922 125.18 14.9609 125.18C13.6745 125.18 12.6641 124.794 11.9297 124.023C11.2005 123.253 10.8359 122.195 10.8359 120.852C10.8359 119.513 11.2005 118.445 11.9297 117.648C12.6589 116.846 13.6406 116.445 14.875 116.445C16.0885 116.445 17.0547 116.826 17.7734 117.586C18.4922 118.346 18.8516 119.365 18.8516 120.641V121.336H13.0781V121.477C13.0781 122.076 13.2526 122.562 13.6016 122.938C13.9557 123.307 14.4219 123.492 15 123.492C15.4167 123.492 15.776 123.398 16.0781 123.211C16.3802 123.018 16.5833 122.76 16.6875 122.438ZM20.9766 128.102C20.4766 128.102 20.1901 128.094 20.1172 128.078V126.32C20.1641 126.331 20.3542 126.336 20.6875 126.336C21.1094 126.336 21.4297 126.263 21.6484 126.117C21.8672 125.977 22.0156 125.74 22.0938 125.406C22.0938 125.401 22.1068 125.336 22.1328 125.211C22.1589 125.086 22.1693 125.018 22.1641 125.008L19.25 116.625H21.7578L23.5391 123.172H23.5781L25.3594 116.625H27.7656L24.8828 125.188C24.5234 126.26 24.0495 127.013 23.4609 127.445C22.8776 127.883 22.0495 128.102 20.9766 128.102ZM31.8047 125V116.625H34.0859V125H31.8047ZM33.8125 115.359C33.5781 115.589 33.2891 115.703 32.9453 115.703C32.6016 115.703 32.3125 115.589 32.0781 115.359C31.8438 115.13 31.7266 114.852 31.7266 114.523C31.7266 114.19 31.8438 113.911 32.0781 113.688C32.3125 113.458 32.6016 113.344 32.9453 113.344C33.2891 113.344 33.5781 113.458 33.8125 113.688C34.0469 113.911 34.1641 114.19 34.1641 114.523C34.1641 114.852 34.0469 115.13 33.8125 115.359ZM35.6094 125V116.625H37.8125V118.117H37.8594C38.0885 117.586 38.4219 117.18 38.8594 116.898C39.3021 116.612 39.8411 116.469 40.4766 116.469C41.4036 116.469 42.1198 116.745 42.625 117.297C43.1302 117.849 43.3828 118.617 43.3828 119.602V125H41.1016V120.078C41.1016 119.526 40.9714 119.102 40.7109 118.805C40.4505 118.508 40.0677 118.359 39.5625 118.359C39.0573 118.359 38.651 118.529 38.3438 118.867C38.0417 119.206 37.8906 119.648 37.8906 120.195V125H35.6094ZM48 125V116.625H50.2031V118.133H50.25C50.3958 117.602 50.6406 117.195 50.9844 116.914C51.3281 116.633 51.7474 116.492 52.2422 116.492C52.4818 116.492 52.6979 116.521 52.8906 116.578V118.586C52.6771 118.497 52.401 118.453 52.0625 118.453C51.5 118.453 51.0625 118.617 50.75 118.945C50.4375 119.273 50.2812 119.732 50.2812 120.32V125H48ZM57.3047 118.133C56.8099 118.133 56.3958 118.302 56.0625 118.641C55.7344 118.979 55.5495 119.411 55.5078 119.938H59.0625C59.0365 119.401 58.862 118.966 58.5391 118.633C58.2214 118.299 57.8099 118.133 57.3047 118.133ZM59.0938 122.438H61.1875C61.0625 123.26 60.651 123.924 59.9531 124.43C59.2604 124.93 58.3984 125.18 57.3672 125.18C56.0807 125.18 55.0703 124.794 54.3359 124.023C53.6068 123.253 53.2422 122.195 53.2422 120.852C53.2422 119.513 53.6068 118.445 54.3359 117.648C55.0651 116.846 56.0469 116.445 57.2812 116.445C58.4948 116.445 59.4609 116.826 60.1797 117.586C60.8984 118.346 61.2578 119.365 61.2578 120.641V121.336H55.4844V121.477C55.4844 122.076 55.6589 122.562 56.0078 122.938C56.362 123.307 56.8281 123.492 57.4062 123.492C57.8229 123.492 58.1823 123.398 58.4844 123.211C58.7865 123.018 58.9896 122.76 59.0938 122.438ZM63.0469 125V118.344H61.9062V116.664H63.0469V116.031C63.0469 115.198 63.2604 114.589 63.6875 114.203C64.1198 113.818 64.8255 113.625 65.8047 113.625C66.2526 113.625 66.6406 113.659 66.9688 113.727V115.234C66.8021 115.203 66.5964 115.188 66.3516 115.188C65.6328 115.188 65.2734 115.495 65.2734 116.109V116.664H66.9375V118.344H65.3281V125H63.0469ZM71.6641 118.133C71.1693 118.133 70.7552 118.302 70.4219 118.641C70.0938 118.979 69.9089 119.411 69.8672 119.938H73.4219C73.3958 119.401 73.2214 118.966 72.8984 118.633C72.5807 118.299 72.1693 118.133 71.6641 118.133ZM73.4531 122.438H75.5469C75.4219 123.26 75.0104 123.924 74.3125 124.43C73.6198 124.93 72.7578 125.18 71.7266 125.18C70.4401 125.18 69.4297 124.794 68.6953 124.023C67.9661 123.253 67.6016 122.195 67.6016 120.852C67.6016 119.513 67.9661 118.445 68.6953 117.648C69.4245 116.846 70.4062 116.445 71.6406 116.445C72.8542 116.445 73.8203 116.826 74.5391 117.586C75.2578 118.346 75.6172 119.365 75.6172 120.641V121.336H69.8438V121.477C69.8438 122.076 70.0182 122.562 70.3672 122.938C70.7214 123.307 71.1875 123.492 71.7656 123.492C72.1823 123.492 72.5417 123.398 72.8438 123.211C73.1458 123.018 73.349 122.76 73.4531 122.438ZM76.7969 125V116.625H79V118.133H79.0469C79.1927 117.602 79.4375 117.195 79.7812 116.914C80.125 116.633 80.5443 116.492 81.0391 116.492C81.2786 116.492 81.4948 116.521 81.6875 116.578V118.586C81.474 118.497 81.1979 118.453 80.8594 118.453C80.2969 118.453 79.8594 118.617 79.5469 118.945C79.2344 119.273 79.0781 119.732 79.0781 120.32V125H76.7969ZM82.625 125V116.625H84.8281V118.133H84.875C85.0208 117.602 85.2656 117.195 85.6094 116.914C85.9531 116.633 86.3724 116.492 86.8672 116.492C87.1068 116.492 87.3229 116.521 87.5156 116.578V118.586C87.3021 118.497 87.026 118.453 86.6875 118.453C86.125 118.453 85.6875 118.617 85.375 118.945C85.0625 119.273 84.9062 119.732 84.9062 120.32V125H82.625ZM91.4844 123.484C91.9896 123.484 92.4167 123.339 92.7656 123.047C93.1198 122.75 93.2969 122.378 93.2969 121.93V121.32L91.5312 121.43C91.1042 121.461 90.7734 121.568 90.5391 121.75C90.3099 121.932 90.1953 122.172 90.1953 122.469C90.1953 122.781 90.3125 123.029 90.5469 123.211C90.7812 123.393 91.0938 123.484 91.4844 123.484ZM90.7344 125.133C89.9271 125.133 89.2578 124.896 88.7266 124.422C88.1953 123.948 87.9297 123.339 87.9297 122.594C87.9297 121.833 88.2109 121.237 88.7734 120.805C89.3359 120.372 90.1406 120.125 91.1875 120.062L93.2969 119.938V119.383C93.2969 118.997 93.1693 118.695 92.9141 118.477C92.6641 118.258 92.3229 118.148 91.8906 118.148C91.474 118.148 91.1328 118.242 90.8672 118.43C90.6068 118.617 90.4479 118.87 90.3906 119.188H88.3047C88.3464 118.365 88.6979 117.703 89.3594 117.203C90.0208 116.698 90.8984 116.445 91.9922 116.445C93.0651 116.445 93.9245 116.701 94.5703 117.211C95.2161 117.721 95.5391 118.398 95.5391 119.242V125H93.3359V123.719H93.2891C93.0599 124.156 92.7109 124.503 92.2422 124.758C91.7734 125.008 91.2708 125.133 90.7344 125.133ZM97.0703 125V113.727H99.3516V125H97.0703ZM111.672 119.742H109.555C109.487 119.289 109.307 118.924 109.016 118.648C108.729 118.372 108.357 118.234 107.898 118.234C107.331 118.234 106.883 118.464 106.555 118.922C106.232 119.375 106.07 120.003 106.07 120.805C106.07 121.622 106.232 122.258 106.555 122.711C106.883 123.164 107.333 123.391 107.906 123.391C108.359 123.391 108.729 123.263 109.016 123.008C109.302 122.747 109.482 122.388 109.555 121.93H111.68C111.622 122.919 111.25 123.708 110.562 124.297C109.875 124.885 108.982 125.18 107.883 125.18C106.612 125.18 105.607 124.792 104.867 124.016C104.128 123.234 103.758 122.164 103.758 120.805C103.758 119.466 104.128 118.406 104.867 117.625C105.612 116.839 106.612 116.445 107.867 116.445C108.982 116.445 109.88 116.753 110.562 117.367C111.25 117.982 111.62 118.773 111.672 119.742ZM119.656 124.023C118.911 124.794 117.901 125.18 116.625 125.18C115.349 125.18 114.339 124.792 113.594 124.016C112.849 123.24 112.477 122.169 112.477 120.805C112.477 119.456 112.852 118.393 113.602 117.617C114.357 116.836 115.365 116.445 116.625 116.445C117.891 116.445 118.898 116.836 119.648 117.617C120.398 118.393 120.773 119.456 120.773 120.805C120.773 122.174 120.401 123.247 119.656 124.023ZM116.625 123.438C117.188 123.438 117.633 123.208 117.961 122.75C118.289 122.292 118.453 121.646 118.453 120.812C118.453 119.99 118.289 119.346 117.961 118.883C117.633 118.419 117.188 118.188 116.625 118.188C116.062 118.188 115.615 118.419 115.281 118.883C114.953 119.346 114.789 119.99 114.789 120.812C114.789 121.646 114.953 122.292 115.281 122.75C115.609 123.208 116.057 123.438 116.625 123.438ZM125.062 125.133C124.016 125.133 123.185 124.745 122.57 123.969C121.956 123.193 121.648 122.135 121.648 120.797C121.648 119.469 121.956 118.419 122.57 117.648C123.19 116.878 124.026 116.492 125.078 116.492C125.672 116.492 126.193 116.635 126.641 116.922C127.094 117.208 127.424 117.589 127.633 118.062H127.68V113.727H129.961V125H127.711V123.562H127.672C127.464 124.036 127.128 124.417 126.664 124.703C126.201 124.99 125.667 125.133 125.062 125.133ZM125.836 118.32C125.263 118.32 124.81 118.544 124.477 118.992C124.148 119.44 123.984 120.047 123.984 120.812C123.984 121.583 124.148 122.19 124.477 122.633C124.81 123.076 125.263 123.297 125.836 123.297C126.404 123.297 126.854 123.076 127.188 122.633C127.526 122.185 127.695 121.578 127.695 120.812C127.695 120.052 127.526 119.448 127.188 119C126.854 118.547 126.404 118.32 125.836 118.32ZM135.242 118.133C134.747 118.133 134.333 118.302 134 118.641C133.672 118.979 133.487 119.411 133.445 119.938H137C136.974 119.401 136.799 118.966 136.477 118.633C136.159 118.299 135.747 118.133 135.242 118.133ZM137.031 122.438H139.125C139 123.26 138.589 123.924 137.891 124.43C137.198 124.93 136.336 125.18 135.305 125.18C134.018 125.18 133.008 124.794 132.273 124.023C131.544 123.253 131.18 122.195 131.18 120.852C131.18 119.513 131.544 118.445 132.273 117.648C133.003 116.846 133.984 116.445 135.219 116.445C136.432 116.445 137.398 116.826 138.117 117.586C138.836 118.346 139.195 119.365 139.195 120.641V121.336H133.422V121.477C133.422 122.076 133.596 122.562 133.945 122.938C134.299 123.307 134.766 123.492 135.344 123.492C135.76 123.492 136.12 123.398 136.422 123.211C136.724 123.018 136.927 122.76 137.031 122.438Z" fill="black"/>
</svg>
