<svg width="34" height="33" viewBox="0 0 34 33" fill="none" xmlns="http://www.w3.org/2000/svg">
<path d="M23.75 9.25H6.25C4.86929 9.25 3.75 10.3693 3.75 11.75V24.25C3.75 25.6307 4.86929 26.75 6.25 26.75H23.75C25.1307 26.75 26.25 25.6307 26.25 24.25V11.75C26.25 10.3693 25.1307 9.25 23.75 9.25Z" stroke="#1F162D" stroke-width="2" stroke-linecap="round" stroke-linejoin="round"/>
<path d="M3.75 11.75L15 19.25L26.25 11.75" stroke="#1F162D" stroke-width="2" stroke-linecap="round" stroke-linejoin="round"/>
<circle cx="26" cy="8" r="8" fill="#FF6363"/>
<path d="M25.2119 8.92383H26.0811C26.877 8.92383 27.3604 9.31445 27.3604 9.95898C27.3604 10.5547 26.8428 10.9697 26.1055 10.9697C25.3291 10.9697 24.8408 10.5791 24.7969 9.9834H23.3857C23.4541 11.2822 24.4941 12.1562 26.0859 12.1562C27.7119 12.1562 28.8594 11.3164 28.8594 10.0518C28.8594 9.0752 28.1807 8.44043 27.1309 8.35254V8.32324C27.9951 8.16699 28.5859 7.54199 28.5859 6.67773C28.5859 5.5498 27.585 4.79785 26.1201 4.79785C24.5918 4.79785 23.5762 5.64746 23.5225 6.95117H24.8799C24.9189 6.33594 25.373 5.93066 26.0566 5.93066C26.7891 5.93066 27.1943 6.30664 27.1943 6.87793C27.1943 7.45898 26.7402 7.85938 26.0664 7.85938H25.2119V8.92383Z" fill="white"/>
</svg>
