<svg width="50" height="50" viewBox="0 0 50 50" fill="none" xmlns="http://www.w3.org/2000/svg">
<circle cx="25" cy="25" r="25" fill="#55B88D"/>
<path d="M24.6929 30.956C27.1547 30.956 29.1575 28.9532 29.1575 26.4917V16.4643C29.1575 14.0025 27.1547 12 24.6929 12C22.231 12 20.2285 14.0025 20.2285 16.4643V26.4919C20.2285 28.9535 22.231 30.956 24.6929 30.956Z" fill="white"/>
<path d="M31.8682 23.8232H30.9793C30.6938 23.8232 30.4621 24.055 30.4621 24.3405V26.1583C30.4621 29.3394 27.8738 31.9277 24.6925 31.9277C21.5112 31.9277 18.9234 29.3394 18.9234 26.1583V24.3405C18.9234 24.055 18.6916 23.8232 18.4061 23.8232H17.5172C17.2317 23.8232 17 24.055 17 24.3405V26.1583C17 29.9619 19.9568 33.3137 23.7309 33.7893V35.0772H19.7611C19.4755 35.0772 19.2438 35.3089 19.2438 35.5944V36.4831C19.2438 36.7686 19.4755 37.0003 19.7611 37.0003H29.6244C29.9099 37.0003 30.1416 36.7686 30.1416 36.4831V35.5944C30.1416 35.3089 29.9099 35.0772 29.6244 35.0772H25.6543V33.7893C29.4286 33.3139 32.3852 29.9619 32.3852 26.1583V24.3405C32.3855 24.0547 32.1537 23.8232 31.8682 23.8232Z" fill="white"/>
</svg>
