<svg width="50" height="50" viewBox="0 0 50 50" fill="none" xmlns="http://www.w3.org/2000/svg">
<circle cx="25" cy="25" r="25" fill="#FF6363"/>
<path d="M12.1668 29.2043H17.1007C18.8628 29.2043 20.0082 27.3541 19.2153 25.8563C18.6866 24.799 19.1271 23.4774 20.0963 22.8607C22.299 21.5391 26.9686 21.451 29.2594 22.8607C30.3167 23.3894 30.6691 24.7991 30.1404 25.8563C29.3475 27.3541 30.4928 29.2043 32.255 29.2043L37.1889 29.2043C38.5105 29.1162 39.5678 28.059 39.5678 26.8255L39.5678 23.4774C39.4797 20.0413 32.9598 17.2219 24.6778 17.2219C16.3959 17.2219 9.78786 19.9532 9.7879 23.4774L9.7879 26.8255C9.87597 28.1471 10.9332 29.2044 12.1668 29.2043Z" fill="white"/>
</svg>
