<svg width="50" height="50" viewBox="0 0 50 50" fill="none" xmlns="http://www.w3.org/2000/svg">
<circle cx="25" cy="25" r="25" fill="#C4C4C4"/>
<path d="M12.1136 20.549L12.0049 12.7194C11.9998 12.3209 12.3258 11.9949 12.7243 12.0001L20.5539 12.1139C21.18 12.1243 21.4905 12.8798 21.0455 13.3248L18.8668 15.5035L22.4893 19.1259L19.1256 22.4896L15.5032 18.8671L13.3245 21.0458C12.8847 21.4856 12.124 21.1751 12.1136 20.549Z" fill="black"/>
<path d="M33.802 18.9137L35.9806 21.0923C36.4257 21.5374 37.1812 21.2269 37.1916 20.6007L37.3054 12.7711C37.3106 12.3727 36.9846 12.0466 36.5861 12.0518L28.7565 12.1657C28.1303 12.176 27.8198 12.9315 28.2649 13.3766L30.4383 15.5449L26.8159 19.1673L30.1796 22.531L33.802 18.9137Z" fill="black"/>
<path d="M28.2595 35.6752C27.8145 36.1202 28.125 36.8757 28.7511 36.8861L36.5807 36.9999C36.9792 37.0051 37.3052 36.6791 37.3 36.2806L37.1862 28.451C37.1758 27.8249 36.4203 27.5144 35.9753 27.9594L33.7966 30.138L30.1742 26.5156L26.8105 29.8793L30.433 33.5017L28.2595 35.6752Z" fill="black"/>
<path d="M12.7245 36.9482L20.5541 36.8343C21.1802 36.824 21.4907 36.0685 21.0457 35.6234L18.8671 33.45L22.4895 29.8275L19.1258 26.4639L15.5034 30.0863L13.3248 27.9077C12.8797 27.4626 12.1242 27.7731 12.1138 28.3993L12 36.2289C12 36.6273 12.326 36.9534 12.7245 36.9482Z" fill="black"/>
</svg>
