<svg width="50" height="50" viewBox="0 0 50 50" fill="none" xmlns="http://www.w3.org/2000/svg">
<circle cx="25" cy="25" r="25" fill="#C4C4C4"/>
<path d="M37.0823 12H12.6234C11.7284 12 11 12.7284 11 13.6234V29.7489C11 30.6439 11.7284 31.3723 12.6234 31.3723H37.0823C37.9773 31.3723 38.7056 30.6439 38.7056 29.7489V13.6234C38.7056 12.7284 37.9773 12 37.0823 12Z" fill="black"/>
<path d="M33.511 35.377H29.1279V32.9961H20.5781V35.377H16.195C15.7469 35.377 15.3833 35.7407 15.3833 36.1887C15.3833 36.6368 15.7469 37.0004 16.195 37.0004H33.511C33.9591 37.0004 34.3227 36.6368 34.3227 36.1887C34.3227 35.7407 33.9591 35.377 33.511 35.377Z" fill="black"/>
</svg>
