<svg width="120" height="107" viewBox="0 0 120 107" fill="none" xmlns="http://www.w3.org/2000/svg">
<g clip-path="url(#clip0)">
<path d="M86.7555 29.7651C82.3376 29.7651 78.7481 33.3546 78.7481 37.7725V46.1112C78.7481 47.9888 78.472 49.8112 77.9198 51.5783H77.8646C75.6556 58.8125 69.1393 64.2244 61.4081 64.7766C61.2976 64.7766 61.1872 64.7766 61.0767 64.7766C60.8558 64.7766 60.6349 64.7766 60.4693 64.8319C60.3036 64.8319 60.1379 64.8319 59.9723 64.8319C59.8066 64.8319 59.6409 64.8319 59.4752 64.8319C59.2543 64.8319 59.0335 64.8319 58.8678 64.7766C58.7573 64.7766 58.6469 64.7766 58.5364 64.7766C50.8052 64.1692 44.2889 58.7573 42.0799 51.5783H42.0247C41.4725 49.8664 41.1964 48.044 41.1964 46.1112V38.1038C41.1964 33.686 37.6069 30.0965 33.189 30.0965C28.7711 30.0965 25.1816 33.686 25.1816 38.1038V45.6142C25.1816 47.6575 25.3473 49.6455 25.6787 51.5783H25.6234C27.9428 66.2677 39.4844 77.9198 54.1186 80.4048C54.3395 80.46 54.5052 80.46 54.726 80.5153C55.0574 80.5705 55.3887 80.6257 55.7201 80.6809C55.9962 80.7362 56.2723 80.7362 56.6036 80.7914C56.8798 80.7914 57.1559 80.8466 57.432 80.8466C57.7081 80.8466 57.9842 80.9018 58.2603 80.9018C58.5364 80.9018 58.8678 80.957 59.1439 80.957C59.2543 80.957 59.3096 80.957 59.42 80.957C59.5857 80.957 59.8066 80.957 59.9723 80.957C60.1379 80.957 60.3588 80.957 60.5245 80.957C60.6349 80.957 60.6902 80.957 60.8006 80.957C61.0767 80.957 61.4081 80.957 61.6842 80.9018C61.9603 80.9018 62.2364 80.9018 62.5125 80.8466C62.7886 80.8466 63.0647 80.7914 63.3409 80.7914C63.617 80.7362 63.8931 80.7362 64.2244 80.6809C64.5558 80.6257 64.8871 80.5705 65.2185 80.5153C65.4393 80.46 65.6602 80.46 65.8259 80.4048C80.4601 77.9198 92.0017 66.2677 94.3211 51.5783H94.2659C94.5972 49.6455 94.7629 47.6575 94.7629 45.6142V37.7725C94.8181 33.3546 91.1734 29.7651 86.7555 29.7651Z" fill="#7900F8"/>
<path d="M84.5467 106.36H35.3981C15.9043 106.36 0 90.4556 0 70.9618V35.4533C0 15.9043 15.9043 0 35.4533 0H84.6019C88.9093 0 92.4436 3.53428 92.4436 7.84169C92.4436 12.1491 88.9093 15.6834 84.6019 15.6834H35.4533C24.5743 15.6834 15.6834 24.5743 15.6834 35.4533V70.9618C15.6834 81.8408 24.5743 90.7317 35.4533 90.7317H84.6019C95.4809 90.7317 104.372 81.8408 104.372 70.9618V35.4533C104.372 31.1459 107.906 27.6116 112.214 27.6116C116.521 27.6116 120.055 31.1459 120.055 35.4533V70.9618C120 90.4556 104.096 106.36 84.5467 106.36Z" fill="#7900F8"/>
<path d="M106.305 21.8131C110.727 21.8131 114.312 18.228 114.312 13.8057C114.312 9.38336 110.727 5.79834 106.305 5.79834C101.882 5.79834 98.2974 9.38336 98.2974 13.8057C98.2974 18.228 101.882 21.8131 106.305 21.8131Z" fill="#FF118D"/>
</g>
<defs>
<clipPath id="clip0">
<rect width="120" height="106.36" fill="white"/>
</clipPath>
</defs>
</svg>
