<svg width="107" height="83" viewBox="0 0 107 83" fill="none" xmlns="http://www.w3.org/2000/svg">
<rect width="107" height="83" rx="10" fill="#444444"/>
<path d="M29.2539 50H25.8672V33.0898H28.8203L36.7188 44.1055H36.8125V33.0898H40.1992V50H37.2695L29.3594 38.9258H29.2539V50ZM53.043 48.5352C51.9258 49.6914 50.4102 50.2695 48.4961 50.2695C46.582 50.2695 45.0664 49.6875 43.9492 48.5234C42.832 47.3594 42.2734 45.7539 42.2734 43.707C42.2734 41.6836 42.8359 40.0898 43.9609 38.9258C45.0938 37.7539 46.6055 37.168 48.4961 37.168C50.3945 37.168 51.9062 37.7539 53.0312 38.9258C54.1562 40.0898 54.7188 41.6836 54.7188 43.707C54.7188 45.7617 54.1602 47.3711 53.043 48.5352ZM48.4961 47.6562C49.3398 47.6562 50.0078 47.3125 50.5 46.625C50.9922 45.9375 51.2383 44.9688 51.2383 43.7188C51.2383 42.4844 50.9922 41.5195 50.5 40.8242C50.0078 40.1289 49.3398 39.7812 48.4961 39.7812C47.6523 39.7812 46.9805 40.1289 46.4805 40.8242C45.9883 41.5195 45.7422 42.4844 45.7422 43.7188C45.7422 44.9688 45.9883 45.9375 46.4805 46.625C46.9727 47.3125 47.6445 47.6562 48.4961 47.6562ZM56.4883 50V37.4375H59.793V39.6758H59.8633C60.207 38.8789 60.707 38.2695 61.3633 37.8477C62.0273 37.418 62.8359 37.2031 63.7891 37.2031C65.1797 37.2031 66.2539 37.6172 67.0117 38.4453C67.7695 39.2734 68.1484 40.4258 68.1484 41.9023V50H64.7266V42.6172C64.7266 41.7891 64.5312 41.1523 64.1406 40.707C63.75 40.2617 63.1758 40.0391 62.418 40.0391C61.6602 40.0391 61.0508 40.293 60.5898 40.8008C60.1367 41.3086 59.9102 41.9727 59.9102 42.793V50H56.4883ZM75.9531 39.6992C75.2109 39.6992 74.5898 39.9531 74.0898 40.4609C73.5977 40.9688 73.3203 41.6172 73.2578 42.4062H78.5898C78.5508 41.6016 78.2891 40.9492 77.8047 40.4492C77.3281 39.9492 76.7109 39.6992 75.9531 39.6992ZM78.6367 46.1562H81.7773C81.5898 47.3906 80.9727 48.3867 79.9258 49.1445C78.8867 49.8945 77.5938 50.2695 76.0469 50.2695C74.1172 50.2695 72.6016 49.6914 71.5 48.5352C70.4062 47.3789 69.8594 45.793 69.8594 43.7773C69.8594 41.7695 70.4062 40.168 71.5 38.9727C72.5938 37.7695 74.0664 37.168 75.918 37.168C77.7383 37.168 79.1875 37.7383 80.2656 38.8789C81.3438 40.0195 81.8828 41.5469 81.8828 43.4609V44.5039H73.2227V44.7148C73.2227 45.6133 73.4844 46.3438 74.0078 46.9062C74.5391 47.4609 75.2383 47.7383 76.1055 47.7383C76.7305 47.7383 77.2695 47.5977 77.7227 47.3164C78.1758 47.0273 78.4805 46.6406 78.6367 46.1562Z" fill="#F7F7F7" fill-opacity="0.5"/>
</svg>
