<svg width="18" height="23" viewBox="0 0 18 23" fill="none" xmlns="http://www.w3.org/2000/svg">
<path d="M16 13.3183V9.20703C16 5.51879 13.815 2.41182 10.855 1.47743C10.562 0.631328 9.846 0.0351562 9 0.0351562C8.154 0.0351562 7.438 0.631328 7.145 1.47743C4.185 2.41296 2 5.51879 2 9.20703V13.3183L0.293 15.2754C0.105 15.4898 0 15.781 0 16.0859V18.3789C0 19.0129 0.447 19.5254 1 19.5254H17C17.553 19.5254 18 19.0129 18 18.3789V16.0859C18 15.781 17.895 15.4898 17.707 15.2754L16 13.3183ZM16 17.2324H2V16.5606L3.707 14.6035C3.895 14.3891 4 14.0979 4 13.793V9.20703C4 6.04617 6.243 3.47461 9 3.47461C11.757 3.47461 14 6.04617 14 9.20703V13.793C14 14.0979 14.105 14.3891 14.293 14.6035L16 16.5606V17.2324ZM9 22.9648C10.311 22.9648 11.407 22.0087 11.818 20.6719H6.182C6.593 22.0087 7.689 22.9648 9 22.9648Z" fill="black"/>
</svg>
