<svg id="Group_670" data-name="Group 670" xmlns="http://www.w3.org/2000/svg" width="36" height="34" viewBox="0 0 36 34">
  <g id="Group_593" data-name="Group 593" transform="translate(12.928 0)">
    <g id="Group_592" data-name="Group 592">
      <path id="Path_355" data-name="Path 355" d="M220.856,110.79a1.752,1.752,0,0,1-.275-.022,18.488,18.488,0,0,0-5.405,0,1.756,1.756,0,0,1-1.85-.96,5.024,5.024,0,0,1-.519-2.235,5.072,5.072,0,1,1,9.625,2.234A1.757,1.757,0,0,1,220.856,110.79Zm-2.978-4.776a1.562,1.562,0,0,0-1.487,1.091,23.271,23.271,0,0,1,2.975,0A1.562,1.562,0,0,0,217.879,106.014Z" transform="translate(-212.807 -102.502)" fill="#707070"/>
    </g>
  </g>
  <g id="Group_595" data-name="Group 595" transform="translate(0 4.555)">
    <g id="Group_594" data-name="Group 594" transform="translate(0 0)">
      <path id="Path_356" data-name="Path 356" d="M136.5,170.856H104a1.649,1.649,0,1,1,0-3.292c.313,0,.7,0,1.036-1.268a27.718,27.718,0,0,0,.425-5.711c.059-4,.126-8.54,1.923-12.286,2.192-4.57,6.519-6.888,12.862-6.888s10.67,2.317,12.862,6.888c1.8,3.746,1.863,8.283,1.923,12.286a27.719,27.719,0,0,0,.425,5.711c.333,1.268.723,1.268,1.036,1.268a1.649,1.649,0,1,1,0,3.292Zm-28.19-3.292h23.889q-.076-.23-.142-.481a28.821,28.821,0,0,1-.527-6.453C131.388,151.3,130.5,144.7,120.25,144.7s-11.138,6.6-11.276,15.927a28.823,28.823,0,0,1-.527,6.453Q108.382,167.334,108.306,167.564Z" transform="translate(-102.25 -141.411)" fill="#707070"/>
    </g>
  </g>
</svg>
