<svg width="53" height="54" viewBox="0 0 53 54" fill="none" xmlns="http://www.w3.org/2000/svg">
<g filter="url(#filter0_b)">
<circle cx="20.6105" cy="34.6261" r="16.1944" fill="#FF0000"/>
</g>
<g filter="url(#filter1_b)">
<circle cx="26.5" cy="27.2651" r="26.5" fill="#FF6363" fill-opacity="0.6"/>
</g>
<path d="M41.9663 37.1226H42.0002C42.2654 37.1226 42.5198 37.0172 42.7073 36.8297C42.8949 36.6421 43.0002 36.3877 43.0002 36.1225V24.0747C43.0002 23.9081 42.9586 23.7441 42.8791 23.5977C42.7996 23.4512 42.6848 23.327 42.5451 23.2362L42.9582 22.6003L42.5451 23.2362C42.4053 23.1454 42.2451 23.091 42.079 23.0778C41.9132 23.0647 41.7467 23.0932 41.5947 23.1606L41.5939 23.1612L36.4244 26.8C36.4244 26.8 36.4244 26.8 36.4244 26.8C36.2933 26.8923 36.1863 27.0147 36.1125 27.157C36.0386 27.2992 36.0001 27.4571 36 27.6173L41.9663 37.1226ZM41.9663 37.1226C41.8381 37.118 41.7119 37.0889 41.5946 37.0366L41.5939 37.0361L36.4244 33.3973C36.4244 33.3973 36.4244 33.3972 36.4244 33.3972C36.2933 33.305 36.1863 33.1825 36.1125 33.0403C36.0386 32.898 36.0001 32.7402 36 32.5799C36 32.5799 36 32.5798 36 32.5797V27.6175L41.9663 37.1226Z" stroke="white" stroke-width="2"/>
<path d="M29.7493 38.0986H18.2511C17.3891 38.0977 16.5627 37.7549 15.9532 37.1454L15.2461 37.8525L15.9532 37.1454C15.3438 36.536 15.001 35.7097 15 34.8479V25.3488C15.001 24.487 15.3438 23.6608 15.9532 23.0514C16.5626 22.442 17.3888 22.0992 18.2506 22.0981H29.7798C30.6336 22.0993 31.4521 22.439 32.0559 23.0428C32.6598 23.6466 32.9995 24.4654 33.0005 25.3194V34.8474C32.9996 35.7094 32.6568 36.5358 32.0473 37.1454C31.4378 37.7549 30.6113 38.0977 29.7493 38.0986Z" stroke="white" stroke-width="2"/>
<circle cx="19.0002" cy="22.7654" r="10.0002" fill="white"/>
<line x1="13.5" y1="22.9326" x2="23.1669" y2="22.9326" stroke="#FF6363" stroke-linecap="round" stroke-linejoin="round"/>
<defs>
<filter id="filter0_b" x="-35.584" y="-21.5684" width="112.389" height="112.389" filterUnits="userSpaceOnUse" color-interpolation-filters="sRGB">
<feFlood flood-opacity="0" result="BackgroundImageFix"/>
<feGaussianBlur in="BackgroundImage" stdDeviation="20"/>
<feComposite in2="SourceAlpha" operator="in" result="effect1_backgroundBlur"/>
<feBlend mode="normal" in="SourceGraphic" in2="effect1_backgroundBlur" result="shape"/>
</filter>
<filter id="filter1_b" x="-20" y="-19.2349" width="93" height="93" filterUnits="userSpaceOnUse" color-interpolation-filters="sRGB">
<feFlood flood-opacity="0" result="BackgroundImageFix"/>
<feGaussianBlur in="BackgroundImage" stdDeviation="10"/>
<feComposite in2="SourceAlpha" operator="in" result="effect1_backgroundBlur"/>
<feBlend mode="normal" in="SourceGraphic" in2="effect1_backgroundBlur" result="shape"/>
</filter>
</defs>
</svg>
