<svg width="70" height="60" viewBox="0 0 70 60" fill="none" xmlns="http://www.w3.org/2000/svg">
<rect width="69.2031" height="60" rx="30" fill="#7900F8"/>
<path d="M48.9375 46C49.1953 46 49.4531 45.9517 49.7109 45.855C49.9688 45.7583 50.1943 45.6025 50.3877 45.3877C50.7959 44.9795 51 44.4961 51 43.9375C51 43.3789 50.7959 42.8955 50.3877 42.4873L44.2324 36.332C45.1562 35.1074 45.876 33.7539 46.3916 32.2715C46.9072 30.7891 47.165 29.2314 47.165 27.5986C47.165 25.5791 46.7837 23.6831 46.021 21.9106C45.2583 20.1382 44.2163 18.5913 42.895 17.27C41.5737 15.9487 40.0269 14.9067 38.2544 14.144C36.4819 13.3813 34.5967 13 32.5986 13C30.5791 13 28.6831 13.3813 26.9106 14.144C25.1382 14.9067 23.5913 15.9487 22.27 17.27C20.9487 18.5913 19.9067 20.1382 19.144 21.9106C18.3813 23.6831 18 25.5791 18 27.5986C18 29.5967 18.3813 31.4819 19.144 33.2544C19.9067 35.0269 20.9487 36.5737 22.27 37.895C23.5913 39.2163 25.1382 40.2583 26.9106 41.021C28.6831 41.7837 30.5791 42.165 32.5986 42.165C34.2314 42.165 35.7891 41.9072 37.2715 41.3916C38.7539 40.876 40.1074 40.1562 41.332 39.2324L47.4873 45.3877C47.6807 45.6025 47.9062 45.7583 48.1641 45.855C48.4219 45.9517 48.6797 46 48.9375 46ZM32.5986 38.04C31.1377 38.04 29.7734 37.7661 28.5059 37.2183C27.2383 36.6704 26.1318 35.9238 25.1865 34.9785C24.2412 34.0332 23.4946 32.9268 22.9468 31.6592C22.3989 30.3916 22.125 29.0381 22.125 27.5986C22.125 26.1377 22.3989 24.7734 22.9468 23.5059C23.4946 22.2383 24.2412 21.1318 25.1865 20.1865C26.1318 19.2412 27.2383 18.4946 28.5059 17.9468C29.7734 17.3989 31.1377 17.125 32.5986 17.125C34.0381 17.125 35.3916 17.3989 36.6592 17.9468C37.9268 18.4946 39.0332 19.2412 39.9785 20.1865C40.9238 21.1318 41.6704 22.2383 42.2183 23.5059C42.7661 24.7734 43.04 26.1377 43.04 27.5986C43.04 29.0381 42.7661 30.3916 42.2183 31.6592C41.6704 32.9268 40.9238 34.0332 39.9785 34.9785C39.0332 35.9238 37.9268 36.6704 36.6592 37.2183C35.3916 37.7661 34.0381 38.04 32.5986 38.04Z" fill="white"/>
</svg>
