<svg width="24" height="24" viewBox="0 0 24 24" fill="none" xmlns="http://www.w3.org/2000/svg">
<g clip-path="url(#clip0)">
<path d="M18.1263 14.2695C16.4582 14.2695 15.1011 15.6266 15.1011 17.2948C15.1011 18.9629 16.4582 20.32 18.1263 20.32C19.7947 20.32 21.1515 18.9629 21.1515 17.2948C21.1515 15.6266 19.7944 14.2695 18.1263 14.2695ZM18.1263 18.8074C17.2921 18.8074 16.6137 18.1289 16.6137 17.2948C16.6137 16.4606 17.2921 15.7821 18.1263 15.7821C18.9605 15.7821 19.6389 16.4606 19.6389 17.2948C19.6389 18.129 18.9605 18.8074 18.1263 18.8074Z" fill="black"/>
<path d="M7.78938 14.2695C6.12124 14.2695 4.76416 15.6266 4.76416 17.2948C4.76416 18.9629 6.12124 20.32 7.78938 20.32C9.45752 20.32 10.8146 18.9629 10.8146 17.2948C10.8146 15.6266 9.45752 14.2695 7.78938 14.2695ZM7.78938 18.8074C6.95519 18.8074 6.27677 18.1289 6.27677 17.2948C6.27677 16.4606 6.95519 15.7821 7.78938 15.7821C8.62333 15.7821 9.30199 16.4606 9.30199 17.2948C9.30199 18.129 8.62357 18.8074 7.78938 18.8074Z" fill="black"/>
<path d="M20.1635 5.60984C20.0349 5.35447 19.7735 5.19336 19.4876 5.19336H15.5044V6.70597H19.0212L21.0806 10.8021L22.4324 10.1224L20.1635 5.60984Z" fill="black"/>
<path d="M15.857 16.5625H10.1343V18.0751H15.857V16.5625Z" fill="black"/>
<path d="M5.52116 16.5625H2.89935C2.4816 16.5625 2.14307 16.9011 2.14307 17.3188C2.14307 17.7365 2.48164 18.0751 2.89935 18.0751H5.52121C5.93896 18.0751 6.27749 17.7365 6.27749 17.3188C6.27749 16.901 5.93891 16.5625 5.52116 16.5625Z" fill="black"/>
<path d="M23.8414 11.9405L22.3537 10.0245C22.2108 9.83994 21.9902 9.73203 21.7565 9.73203H16.2607V4.43792C16.2607 4.02017 15.9221 3.68164 15.5044 3.68164H2.89935C2.4816 3.68164 2.14307 4.02022 2.14307 4.43792C2.14307 4.85562 2.48164 5.1942 2.89935 5.1942H14.7481V10.4883C14.7481 10.9061 15.0867 11.2446 15.5044 11.2446H21.3861L22.4876 12.6634V16.5639H20.3951C19.9774 16.5639 19.6388 16.9025 19.6388 17.3202C19.6388 17.738 19.9774 18.0765 20.3951 18.0765H23.2438C23.6616 18.0765 24.0001 17.7379 24.0002 17.3202V12.4043C24.0002 12.2364 23.9442 12.0731 23.8414 11.9405Z" fill="black"/>
<path d="M5.47114 12.7305H1.99212C1.57437 12.7305 1.23584 13.069 1.23584 13.4867C1.23584 13.9045 1.57442 14.243 1.99212 14.243H5.47109C5.88884 14.243 6.22737 13.9045 6.22737 13.4867C6.22742 13.069 5.88884 12.7305 5.47114 12.7305Z" fill="black"/>
<path d="M7.21008 9.75586H0.756281C0.338578 9.75586 0 10.0944 0 10.5122C0 10.9299 0.338578 11.2685 0.756281 11.2685H7.21008C7.62783 11.2685 7.96636 10.9299 7.96636 10.5122C7.96636 10.0945 7.62783 9.75586 7.21008 9.75586Z" fill="black"/>
<path d="M8.44592 6.78125H1.99212C1.57437 6.78125 1.23584 7.11983 1.23584 7.53753C1.23584 7.95528 1.57442 8.29381 1.99212 8.29381H8.44592C8.86367 8.29381 9.2022 7.95523 9.2022 7.53753C9.20225 7.11983 8.86367 6.78125 8.44592 6.78125Z" fill="black"/>
</g>
<defs>
<clipPath id="clip0">
<rect width="24" height="24" fill="white"/>
</clipPath>
</defs>
</svg>
