<svg width="15" height="15" viewBox="0 0 15 15" fill="none" xmlns="http://www.w3.org/2000/svg">
<path fill-rule="evenodd" clip-rule="evenodd" d="M5.06098 7.5C5.06098 8.83333 6.15244 9.91818 7.5 9.91818C8.84146 9.91818 9.93293 8.83333 9.93293 7.5C9.93293 6.16061 8.84146 5.07576 7.5 5.07576C6.15244 5.07576 5.06098 6.16061 5.06098 7.5ZM11.0854 3.77879C12.1524 4.60303 13.061 5.80909 13.7134 7.31818C13.7622 7.43333 13.7622 7.56667 13.7134 7.67576C12.4085 10.6939 10.0854 12.5 7.5 12.5H7.4939C4.91463 12.5 2.59146 10.6939 1.28659 7.67576C1.2378 7.56667 1.2378 7.43333 1.28659 7.31818C2.59146 4.3 4.91463 2.5 7.4939 2.5H7.5C8.79268 2.5 10.0183 2.94848 11.0854 3.77879ZM7.50073 9.00776C8.3361 9.00776 9.01902 8.32897 9.01902 7.49867C9.01902 6.6623 8.3361 5.98352 7.50073 5.98352C7.42756 5.98352 7.35439 5.98958 7.28732 6.0017C7.26293 6.66836 6.71415 7.2017 6.03732 7.2017H6.00683C5.98854 7.29867 5.97634 7.39564 5.97634 7.49867C5.97634 8.32897 6.65927 9.00776 7.50073 9.00776Z" fill="#0E0023"/>
</svg>
