<svg width="20" height="20" viewBox="0 0 20 20" fill="none" xmlns="http://www.w3.org/2000/svg">
<path d="M6.39028 9.67803C7.24428 9.67803 7.93828 8.98603 7.93828 8.13003C7.93828 7.27403 7.24628 6.58203 6.39028 6.58203C5.53428 6.58203 4.84229 7.27403 4.84229 8.13003C4.84229 8.98603 5.53428 9.67803 6.39028 9.67803ZM14.1263 9.67803C14.9803 9.67803 15.6743 8.98603 15.6743 8.13003C15.6743 7.27403 14.9823 6.58203 14.1263 6.58203C13.2723 6.58203 12.5783 7.27403 12.5783 8.13003C12.5783 8.98603 13.2723 9.67803 14.1263 9.67803ZM5.85028 12.796C6.07228 13.04 6.46628 13.384 7.02028 13.724C9.22428 15.076 11.8663 15.076 14.6583 12.866C14.9243 12.656 14.9683 12.27 14.7583 12.006C14.5483 11.74 14.1623 11.696 13.8983 11.906C11.5343 13.778 9.45028 13.778 7.66028 12.68C7.40028 12.52 7.17028 12.348 6.97428 12.178C6.86228 12.08 6.78828 12.008 6.75828 11.974C6.53028 11.724 6.14428 11.704 5.89228 11.932C5.64028 12.158 5.62228 12.546 5.85028 12.796Z" fill="#484848" fill-opacity="0.5"/>
<path d="M10 17.6571C14.2286 17.6571 17.6571 14.2286 17.6571 10C17.6571 5.77143 14.2286 2.34286 10 2.34286C5.77143 2.34286 2.34286 5.77143 2.34286 10C2.34464 14.2286 5.77143 17.6571 10 17.6571ZM10 18.75C5.16786 18.75 1.25 14.8321 1.25 10C1.25 5.16786 5.16786 1.25 10 1.25C14.8321 1.25 18.75 5.16786 18.75 10C18.75 14.8321 14.8321 18.75 10 18.75Z" fill="#484848" fill-opacity="0.5"/>
</svg>
