<svg xmlns="http://www.w3.org/2000/svg" width="15.273" height="11.242" viewBox="0 0 15.273 11.242">
  <g id="Group_1726" data-name="Group 1726" transform="translate(3793 9126)">
    <path id="Icon_ionic-ios-arrow-round-down" data-name="Icon ionic-ios-arrow-round-down" d="M18.6,15.044a.51.51,0,0,0-.718,0l-2.378,2.37V8.379a.508.508,0,0,0-1.015,0v9.032l-2.378-2.374a.514.514,0,0,0-.718,0,.506.506,0,0,0,0,.715l3.241,3.218h0a.57.57,0,0,0,.16.105.484.484,0,0,0,.2.039.509.509,0,0,0,.355-.144l3.241-3.218A.5.5,0,0,0,18.6,15.044Z" transform="translate(-3804.247 -9133.875)" fill="#424242"/>
    <path id="Icon_ionic-ios-arrow-round-down-2" data-name="Icon ionic-ios-arrow-round-down" d="M18.6,11.948a.51.51,0,0,1-.718,0l-2.378-2.37v9.032a.508.508,0,0,1-1.015,0V9.581l-2.378,2.374a.514.514,0,0,1-.718,0,.506.506,0,0,1,0-.715l3.241-3.218h0a.57.57,0,0,1,.16-.105.484.484,0,0,1,.2-.039.509.509,0,0,1,.355.144l3.241,3.218A.5.5,0,0,1,18.6,11.948Z" transform="translate(-3796.472 -9133.875)" fill="#424242"/>
  </g>
</svg>
