<svg width="51" height="15" viewBox="0 0 51 15" fill="none" xmlns="http://www.w3.org/2000/svg">
<g filter="url(#filter0_b)">
<rect y="0.5" width="51" height="14" rx="4" fill="#E6E4E4" fill-opacity="0.7"/>
</g>
<path d="M8.7334 10.6055C7.99805 10.6055 7.42383 10.3125 7.01074 9.72656C6.60059 9.1377 6.39551 8.33789 6.39551 7.32715C6.39551 6.3252 6.60205 5.52979 7.01514 4.94092C7.43115 4.34912 8.00391 4.05322 8.7334 4.05322C9.46289 4.05322 10.0327 4.34766 10.4429 4.93652C10.856 5.52246 11.0625 6.31787 11.0625 7.32275C11.0625 8.3335 10.8574 9.1333 10.4473 9.72217C10.0371 10.311 9.46582 10.6055 8.7334 10.6055ZM7.59521 9.22119C7.86475 9.68408 8.24414 9.91553 8.7334 9.91553C9.22266 9.91553 9.60059 9.68555 9.86719 9.22559C10.1338 8.7627 10.2671 8.12988 10.2671 7.32715C10.2671 6.53613 10.1323 5.90918 9.86279 5.44629C9.59326 4.98047 9.2168 4.74756 8.7334 4.74756C8.25 4.74756 7.87207 4.98047 7.59961 5.44629C7.32715 5.91211 7.19092 6.5376 7.19092 7.32275C7.19092 8.12549 7.32568 8.7583 7.59521 9.22119ZM14.1914 10.6055C13.4561 10.6055 12.8818 10.3125 12.4688 9.72656C12.0586 9.1377 11.8535 8.33789 11.8535 7.32715C11.8535 6.3252 12.0601 5.52979 12.4731 4.94092C12.8892 4.34912 13.4619 4.05322 14.1914 4.05322C14.9209 4.05322 15.4907 4.34766 15.9009 4.93652C16.314 5.52246 16.5205 6.31787 16.5205 7.32275C16.5205 8.3335 16.3154 9.1333 15.9053 9.72217C15.4951 10.311 14.9238 10.6055 14.1914 10.6055ZM13.0532 9.22119C13.3228 9.68408 13.7021 9.91553 14.1914 9.91553C14.6807 9.91553 15.0586 9.68555 15.3252 9.22559C15.5918 8.7627 15.7251 8.12988 15.7251 7.32715C15.7251 6.53613 15.5903 5.90918 15.3208 5.44629C15.0513 4.98047 14.6748 4.74756 14.1914 4.74756C13.708 4.74756 13.3301 4.98047 13.0576 5.44629C12.7852 5.91211 12.6489 6.5376 12.6489 7.32275C12.6489 8.12549 12.7837 8.7583 13.0532 9.22119ZM18.4146 9.30029C18.3179 9.39697 18.1992 9.44531 18.0586 9.44531C17.918 9.44531 17.7993 9.39697 17.7026 9.30029C17.606 9.20361 17.5576 9.08496 17.5576 8.94434C17.5576 8.80371 17.606 8.68506 17.7026 8.58838C17.7993 8.4917 17.918 8.44336 18.0586 8.44336C18.1992 8.44336 18.3179 8.4917 18.4146 8.58838C18.5112 8.68506 18.5596 8.80371 18.5596 8.94434C18.5596 9.08496 18.5112 9.20361 18.4146 9.30029ZM18.4146 6.06592C18.3179 6.1626 18.1992 6.21094 18.0586 6.21094C17.918 6.21094 17.7993 6.1626 17.7026 6.06592C17.606 5.96924 17.5576 5.85059 17.5576 5.70996C17.5576 5.56934 17.606 5.45068 17.7026 5.354C17.7993 5.25732 17.918 5.20898 18.0586 5.20898C18.1992 5.20898 18.3179 5.25732 18.4146 5.354C18.5112 5.45068 18.5596 5.56934 18.5596 5.70996C18.5596 5.85059 18.5112 5.96924 18.4146 6.06592ZM21.3325 10.5V4.99805H21.3149L19.6362 6.20654V5.37158L21.3237 4.15869H22.0972V10.5H21.3325ZM25.9995 10.6099C25.5249 10.6099 25.106 10.4868 24.7427 10.2407C24.3794 9.9917 24.0996 9.63867 23.9033 9.18164C23.6953 8.70117 23.5913 8.11963 23.5913 7.43701C23.5913 6.36768 23.8066 5.53564 24.2373 4.94092C24.6709 4.34619 25.2759 4.04883 26.0522 4.04883C26.5913 4.04883 27.0513 4.19824 27.4321 4.49707C27.813 4.7959 28.0547 5.19434 28.1572 5.69238H27.353C27.2681 5.40527 27.1069 5.17676 26.8696 5.00684C26.6323 4.83398 26.3569 4.74756 26.0435 4.74756C25.5132 4.74756 25.103 4.97461 24.813 5.42871C24.5229 5.88281 24.3706 6.53174 24.356 7.37549H24.3691C24.5127 7.06494 24.7456 6.81592 25.0679 6.62842C25.3901 6.44092 25.7476 6.34717 26.1401 6.34717C26.7437 6.34717 27.2446 6.54639 27.6431 6.94482C28.0444 7.34326 28.2451 7.84277 28.2451 8.44336C28.2451 9.07031 28.0327 9.58887 27.6079 9.99902C27.186 10.4062 26.6499 10.6099 25.9995 10.6099ZM24.9624 9.48486C25.2437 9.76611 25.5864 9.90674 25.9907 9.90674C26.395 9.90674 26.7378 9.76758 27.019 9.48926C27.3003 9.21094 27.4409 8.87109 27.4409 8.46973C27.4409 8.05371 27.3062 7.7124 27.0366 7.4458C26.7671 7.17627 26.4229 7.0415 26.0039 7.0415C25.585 7.0415 25.2363 7.1748 24.958 7.44141C24.6826 7.70801 24.5449 8.04346 24.5449 8.44775C24.5449 8.85498 24.6841 9.20068 24.9624 9.48486ZM30.0776 9.30029C29.981 9.39697 29.8623 9.44531 29.7217 9.44531C29.5811 9.44531 29.4624 9.39697 29.3657 9.30029C29.269 9.20361 29.2207 9.08496 29.2207 8.94434C29.2207 8.80371 29.269 8.68506 29.3657 8.58838C29.4624 8.4917 29.5811 8.44336 29.7217 8.44336C29.8623 8.44336 29.981 8.4917 30.0776 8.58838C30.1743 8.68506 30.2227 8.80371 30.2227 8.94434C30.2227 9.08496 30.1743 9.20361 30.0776 9.30029ZM30.0776 6.06592C29.981 6.1626 29.8623 6.21094 29.7217 6.21094C29.5811 6.21094 29.4624 6.1626 29.3657 6.06592C29.269 5.96924 29.2207 5.85059 29.2207 5.70996C29.2207 5.56934 29.269 5.45068 29.3657 5.354C29.4624 5.25732 29.5811 5.20898 29.7217 5.20898C29.8623 5.20898 29.981 5.25732 30.0776 5.354C30.1743 5.45068 30.2227 5.56934 30.2227 5.70996C30.2227 5.85059 30.1743 5.96924 30.0776 6.06592ZM33.5581 10.6055C32.9517 10.6055 32.4448 10.4341 32.0376 10.0913C31.6333 9.74854 31.415 9.30762 31.3828 8.76855H32.1606C32.1958 9.10547 32.3438 9.38086 32.6045 9.59473C32.8652 9.80566 33.186 9.91113 33.5669 9.91113C33.9976 9.91113 34.3477 9.77637 34.6172 9.50684C34.8896 9.2373 35.0259 8.88867 35.0259 8.46094C35.0259 8.0332 34.8896 7.68311 34.6172 7.41064C34.3477 7.13525 34.002 6.99756 33.5801 6.99756C33.2842 6.99756 33.0161 7.06055 32.7759 7.18652C32.5356 7.3125 32.3511 7.48682 32.2222 7.70947H31.4795L31.8267 4.15869H35.4565V4.86182H32.4771L32.2837 6.92725H32.3013C32.4448 6.73682 32.6411 6.5874 32.8901 6.479C33.1421 6.37061 33.4189 6.31641 33.7207 6.31641C34.3301 6.31641 34.8311 6.51709 35.2236 6.91846C35.6191 7.31689 35.8169 7.82373 35.8169 8.43896C35.8169 9.07471 35.606 9.59473 35.1841 9.99902C34.7622 10.4033 34.2202 10.6055 33.5581 10.6055ZM38.6602 10.6055C38.1211 10.6055 37.6597 10.4561 37.2759 10.1572C36.8921 9.8584 36.6519 9.45996 36.5552 8.96191H37.3594C37.4443 9.24902 37.6055 9.48047 37.8428 9.65625C38.0801 9.8291 38.3555 9.91553 38.6689 9.91553C39.1963 9.91553 39.605 9.68701 39.895 9.22998C40.188 8.77002 40.3403 8.11816 40.3521 7.27441H40.3477H40.3389C40.2041 7.58789 39.9756 7.83984 39.6533 8.03027C39.334 8.21777 38.9722 8.31152 38.5679 8.31152C37.9644 8.31152 37.4619 8.1123 37.0605 7.71387C36.6621 7.31543 36.4629 6.81592 36.4629 6.21533C36.4629 5.58838 36.6738 5.07129 37.0957 4.66406C37.5205 4.25391 38.0581 4.04883 38.7085 4.04883C39.186 4.04883 39.6064 4.17334 39.9697 4.42236C40.333 4.66846 40.6113 5.01855 40.8047 5.47266C41.0127 5.95312 41.1167 6.53613 41.1167 7.22168C41.1167 8.29102 40.9014 9.12305 40.4707 9.71777C40.04 10.3096 39.4365 10.6055 38.6602 10.6055ZM38.7041 7.61719C39.123 7.61719 39.4717 7.48389 39.75 7.21729C40.0283 6.95068 40.1675 6.61523 40.1675 6.21094C40.1675 5.80371 40.0269 5.46094 39.7456 5.18262C39.4673 4.90137 39.1245 4.76074 38.7173 4.76074C38.3101 4.76074 37.9658 4.8999 37.6846 5.17822C37.4033 5.45361 37.2627 5.79053 37.2627 6.18896C37.2627 6.60205 37.3989 6.94336 37.6714 7.21289C37.9438 7.48242 38.2881 7.61719 38.7041 7.61719Z" fill="black"/>
<defs>
<filter id="filter0_b" x="-4" y="-3.5" width="59" height="22" filterUnits="userSpaceOnUse" color-interpolation-filters="sRGB">
<feFlood flood-opacity="0" result="BackgroundImageFix"/>
<feGaussianBlur in="BackgroundImage" stdDeviation="2"/>
<feComposite in2="SourceAlpha" operator="in" result="effect1_backgroundBlur"/>
<feBlend mode="normal" in="SourceGraphic" in2="effect1_backgroundBlur" result="shape"/>
</filter>
</defs>
</svg>
