<svg xmlns="http://www.w3.org/2000/svg" width="21.723" height="28.963" viewBox="0 0 21.723 28.963">
  <path id="upfile-ico" d="M12.671,7.693V0H1.358A1.354,1.354,0,0,0,0,1.358V27.606a1.354,1.354,0,0,0,1.358,1.358H20.365a1.354,1.354,0,0,0,1.358-1.358V9.051H14.029A1.362,1.362,0,0,1,12.671,7.693Zm3.687,12.219H12.671v4.526a.9.9,0,0,1-.905.905H9.956a.9.9,0,0,1-.905-.905V19.913H5.364a.905.905,0,0,1-.638-1.548l5.454-5.414a.965.965,0,0,1,1.36,0L17,18.365A.9.9,0,0,1,16.359,19.913ZM21.327,5.94,15.788.4a1.357,1.357,0,0,0-.962-.4h-.345V7.241h7.241V6.9A1.353,1.353,0,0,0,21.327,5.94Z" fill="#55a57f"/>
</svg>
