<svg width="23" height="24" viewBox="0 0 23 24" fill="none" xmlns="http://www.w3.org/2000/svg">
<path d="M8.62508 11.4108C10.7422 11.4108 12.4584 9.69457 12.4584 7.57747C12.4584 5.46038 10.7422 3.74414 8.62508 3.74414C6.50799 3.74414 4.79175 5.46038 4.79175 7.57747C4.79175 9.69457 6.50799 11.4108 8.62508 11.4108Z" stroke="#0038FF" stroke-width="2.5" stroke-linecap="round" stroke-linejoin="round"/>
<path d="M2.875 20.9941V19.0775C2.875 18.0608 3.27887 17.0858 3.99776 16.3669C4.71665 15.648 5.69167 15.2441 6.70833 15.2441H10.5417C11.5583 15.2441 12.5334 15.648 13.2522 16.3669C13.9711 17.0858 14.375 18.0608 14.375 19.0775V20.9941" stroke="#0038FF" stroke-width="2.5" stroke-linecap="round" stroke-linejoin="round"/>
<path d="M15.3333 3.86914C16.1578 4.08026 16.8887 4.55981 17.4106 5.23219C17.9325 5.90456 18.2158 6.73152 18.2158 7.58268C18.2158 8.43385 17.9325 9.2608 17.4106 9.93318C16.8887 10.6056 16.1578 11.0851 15.3333 11.2962" stroke="#0038FF" stroke-width="2.5" stroke-linecap="round" stroke-linejoin="round"/>
<path d="M20.125 20.9939V19.0773C20.1201 18.2312 19.8355 17.4105 19.3155 16.7432C18.7954 16.0758 18.0692 15.5992 17.25 15.3877" stroke="#0038FF" stroke-width="2.5" stroke-linecap="round" stroke-linejoin="round"/>
</svg>
