<svg width="50" height="50" viewBox="0 0 50 50" fill="none" xmlns="http://www.w3.org/2000/svg">
<circle cx="25" cy="25" r="25" fill="#55B88D"/>
<path d="M26.1411 18H14.7352C13.2309 18 12 19.2309 12 20.7352V29.953C12 31.4573 13.2309 32.6882 14.7352 32.6882H26.1411C27.6455 32.6882 28.8764 31.4573 28.8764 29.953V20.7352C28.8764 19.2035 27.6455 18 26.1411 18Z" fill="white"/>
<path d="M34.9761 19.504C34.812 19.5314 34.6479 19.6134 34.5111 19.6955L30.2441 22.1572V28.5029L34.5385 30.9646C35.3317 31.4296 36.3164 31.1561 36.7813 30.3629C36.9181 30.1167 37.0002 29.8432 37.0002 29.5423V21.0904C37.0002 20.0784 36.0428 19.2578 34.9761 19.504Z" fill="white"/>
</svg>
