<svg width="195" height="115" viewBox="0 0 195 115" fill="none" xmlns="http://www.w3.org/2000/svg">
<path d="M81.1363 0H42.5H3.86368C1.72988 0 0 1.56707 0 3.50005V53.5C0 55.4329 1.72988 57 3.86368 57H42.5H81.1363C83.2701 57 85 55.4329 85 53.5V3.50005C85 1.56707 83.2701 0 81.1363 0Z" fill="#F4F4F4"/>
<path d="M45.453 18.5387C46.3022 19.42 47.0418 20.39 47.6504 21.4325C48.8834 23.5442 49.5853 25.9482 49.5853 28.4988C49.5853 31.0494 48.8834 33.4531 47.6504 35.5651C47.0418 36.6076 46.3022 37.5773 45.453 38.4586C44.5791 39.3656 43.5887 40.1771 42.502 40.8752C45.2336 42.6294 48.5653 43.6654 52.1611 43.6654C61.3929 43.6654 68.9036 36.8616 68.9036 28.4988C68.9036 20.136 61.3929 13.332 52.1611 13.332C48.5653 13.332 45.2336 14.3676 42.502 16.1222C43.5884 16.8204 44.5788 17.632 45.453 18.5387Z" fill="#FFB655"/>
<path d="M47.651 21.4322C47.0424 20.3894 46.3028 19.4197 45.4536 18.5384C44.5792 17.6314 43.5891 16.8202 42.5025 16.1222C39.7712 14.3676 36.4391 13.332 32.8434 13.332C23.6116 13.332 16.1011 20.1359 16.1011 28.4987C16.1011 36.8615 23.6118 43.6653 32.8434 43.6653C36.4391 43.6653 39.7712 42.6296 42.5025 40.8751C43.5893 40.1771 44.5794 39.3655 45.4536 38.4588C46.3028 37.5775 47.0424 36.6074 47.651 35.5652C48.884 33.4533 49.5859 31.0493 49.5859 28.499C49.5859 25.9477 48.884 23.5439 47.651 21.4322Z" fill="#D8143A"/>
<path d="M32.8409 43.6671C23.6091 43.6671 16.0985 36.8632 16.0985 28.5004C16.0985 20.1377 23.6092 13.3338 32.8409 13.3338C36.4366 13.3338 39.7684 14.3694 42.5 16.124V0H3.86368C1.72988 0 0 1.56707 0 3.50005V53.5C0 55.4329 1.72988 57 3.86368 57H42.5V40.8766C39.7684 42.631 36.4366 43.6671 32.8409 43.6671Z" fill="#E3E3E3"/>
<path d="M6.02051 84H4.43848V72.7412H0.439453V71.3174H10.0195V72.7412H6.02051V84ZM13.2715 72.7236V77.584H16.3037C17.1182 77.584 17.7451 77.373 18.1846 76.9512C18.6299 76.5293 18.8525 75.9287 18.8525 75.1494C18.8525 74.3877 18.6211 73.793 18.1582 73.3652C17.6953 72.9375 17.0537 72.7236 16.2334 72.7236H13.2715ZM13.2715 78.9814V84H11.6895V71.3174H16.4443C17.6689 71.3174 18.6475 71.6631 19.3799 72.3545C20.1182 73.04 20.4873 73.9541 20.4873 75.0967C20.4873 75.9814 20.2617 76.7461 19.8105 77.3906C19.3594 78.0352 18.7354 78.4834 17.9385 78.7354L20.874 84H19.0195L16.3037 78.9814H13.2715ZM30.7266 84L29.4521 80.3701H24.4072L23.1328 84H21.4717L26.1475 71.3174H27.7119L32.3877 84H30.7266ZM26.9033 73.2422L24.873 79.0254H28.9863L26.9561 73.2422H26.9033ZM35.4023 84H33.8379V71.3174H35.376L42.3193 81.2754H42.3984V71.3174H43.9629V84H42.4248L35.4814 74.0771H35.4023V84ZM45.5889 84L49.9043 77.6455V77.584L45.6416 71.3174H47.5488L50.9326 76.415H50.9941L54.4219 71.3174H56.2236L51.8467 77.6631V77.7158L56.127 84H54.2285L50.8623 78.9463H50.8008L47.3818 84H45.5889ZM59.4316 71.3174V79.4473C59.4316 80.4258 59.7363 81.2227 60.3457 81.8379C60.9609 82.4473 61.8076 82.752 62.8857 82.752C63.9639 82.752 64.8076 82.4473 65.417 81.8379C66.0322 81.2227 66.3398 80.4258 66.3398 79.4473V71.3174H67.9219V79.5527C67.9219 80.9297 67.4678 82.0518 66.5596 82.9189C65.6572 83.7803 64.4326 84.2109 62.8857 84.2109C61.3389 84.2109 60.1113 83.7803 59.2031 82.9189C58.3008 82.0518 57.8496 80.9297 57.8496 79.5527V71.3174H59.4316ZM78.627 84L77.3525 80.3701H72.3076L71.0332 84H69.3721L74.0479 71.3174H75.6123L80.2881 84H78.627ZM74.8037 73.2422L72.7734 79.0254H76.8867L74.8564 73.2422H74.8037ZM83.3027 84H81.7383V71.3174H83.2764L90.2197 81.2754H90.2988V71.3174H91.8633V84H90.3252L83.3818 74.0771H83.3027V84ZM106.26 84L104.985 80.3701H99.9404L98.666 84H97.0049L101.681 71.3174H103.245L107.921 84H106.26ZM102.437 73.2422L100.406 79.0254H104.52L102.489 73.2422H102.437ZM110.936 84H109.371V71.3174H110.909L117.853 81.2754H117.932V71.3174H119.496V84H117.958L111.015 74.0771H110.936V84ZM149.854 76.2393L147.718 74.8945L147.806 77.417H146.654L146.751 74.8945L144.589 76.248L144.044 75.1934L146.259 74.0684L144.053 72.9346L144.598 71.915L146.751 73.2422L146.663 70.7373H147.806L147.718 73.251L149.862 71.915L150.425 72.9346L148.192 74.0771L150.425 75.2021L149.854 76.2393ZM157.913 84V81.3633H151.541V79.9307C152.086 78.917 152.777 77.7598 153.615 76.459C154.459 75.1582 155.622 73.4443 157.104 71.3174H159.442V79.9746H161.235V81.3633H159.442V84H157.913ZM153.105 79.9395V79.9746H157.913V72.6357H157.887C155.666 75.8057 154.072 78.2402 153.105 79.9395ZM168.812 84V81.3633H162.439V79.9307C162.984 78.917 163.676 77.7598 164.514 76.459C165.357 75.1582 166.521 73.4443 168.003 71.3174H170.341V79.9746H172.134V81.3633H170.341V84H168.812ZM164.004 79.9395V79.9746H168.812V72.6357H168.785C166.564 75.8057 164.971 78.2402 164.004 79.9395ZM176.265 78.1465V76.8105H177.785C178.512 76.8105 179.106 76.6025 179.569 76.1865C180.032 75.7646 180.264 75.2314 180.264 74.5869C180.264 73.9424 180.05 73.4297 179.622 73.0488C179.194 72.668 178.588 72.4775 177.803 72.4775C177.076 72.4775 176.484 72.6709 176.027 73.0576C175.57 73.4443 175.307 73.9717 175.236 74.6396H173.716C173.804 73.5615 174.22 72.7031 174.964 72.0645C175.714 71.4258 176.684 71.1064 177.873 71.1064C179.016 71.1064 179.965 71.4141 180.721 72.0293C181.477 72.6445 181.854 73.4268 181.854 74.376C181.854 75.167 181.62 75.832 181.151 76.3711C180.683 76.9102 180.05 77.25 179.253 77.3906V77.4258C180.214 77.4844 180.979 77.792 181.547 78.3486C182.115 78.8994 182.399 79.6201 182.399 80.5107C182.399 81.2197 182.2 81.8584 181.802 82.4268C181.403 82.9951 180.864 83.4346 180.185 83.7451C179.505 84.0557 178.752 84.2109 177.926 84.2109C176.613 84.2109 175.556 83.8828 174.753 83.2266C173.95 82.5703 173.52 81.709 173.461 80.6426H174.981C175.052 81.3047 175.348 81.8379 175.869 82.2422C176.391 82.6406 177.07 82.8398 177.908 82.8398C178.746 82.8398 179.435 82.626 179.974 82.1982C180.519 81.7705 180.791 81.2256 180.791 80.5635C180.791 79.8193 180.527 79.2305 180 78.7969C179.479 78.3633 178.764 78.1465 177.855 78.1465H176.265ZM190.362 84V81.3633H183.99V79.9307C184.535 78.917 185.227 77.7598 186.064 76.459C186.908 75.1582 188.071 73.4443 189.554 71.3174H191.892V79.9746H193.685V81.3633H191.892V84H190.362ZM185.555 79.9395V79.9746H190.362V72.6357H190.336C188.115 75.8057 186.521 78.2402 185.555 79.9395Z" fill="black"/>
<path d="M7.06836 109.893V111H0.957031V101.136H7.06836V102.243H2.1875V105.408H6.81543V106.502H2.1875V109.893H7.06836ZM11.0264 108.293H10.999L9.2832 111H7.96387L10.3838 107.445L8.00488 103.891H9.33105L11.04 106.557H11.0674L12.7559 103.891H14.082L11.6826 107.397L14.0479 111H12.7285L11.0264 108.293ZM18.5391 103.768C19.4505 103.768 20.1842 104.103 20.7402 104.772C21.3008 105.442 21.5811 106.333 21.5811 107.445C21.5811 108.553 21.3031 109.444 20.7471 110.118C20.1911 110.788 19.4642 111.123 18.5664 111.123C18.0651 111.123 17.6162 111.009 17.2197 110.781C16.8232 110.553 16.5179 110.241 16.3037 109.845H16.2764V113.372H15.0869V103.891H16.2148V105.094H16.2422C16.4655 104.684 16.7777 104.36 17.1787 104.123C17.5798 103.886 18.0332 103.768 18.5391 103.768ZM18.3066 110.077C18.9401 110.077 19.4414 109.84 19.8105 109.366C20.1797 108.892 20.3643 108.252 20.3643 107.445C20.3643 106.639 20.1797 105.998 19.8105 105.524C19.4414 105.05 18.9401 104.813 18.3066 104.813C17.696 104.813 17.2038 105.055 16.8301 105.538C16.4564 106.021 16.2695 106.657 16.2695 107.445C16.2695 108.238 16.4564 108.876 16.8301 109.359C17.2038 109.838 17.696 110.077 18.3066 110.077ZM22.8457 111V103.891H24.0352V111H22.8457ZM23.4404 102.694C23.2399 102.694 23.0667 102.621 22.9209 102.476C22.7751 102.33 22.7021 102.157 22.7021 101.956C22.7021 101.751 22.7751 101.578 22.9209 101.437C23.0667 101.291 23.2399 101.218 23.4404 101.218C23.6455 101.218 23.821 101.291 23.9668 101.437C24.1126 101.578 24.1855 101.751 24.1855 101.956C24.1855 102.157 24.1126 102.33 23.9668 102.476C23.821 102.621 23.6455 102.694 23.4404 102.694ZM25.6416 111V103.891H26.7627V105.053H26.79C26.9085 104.656 27.1204 104.344 27.4258 104.116C27.7357 103.884 28.098 103.768 28.5127 103.768C28.6084 103.768 28.7679 103.784 28.9912 103.815V104.971C28.8636 104.925 28.6517 104.902 28.3555 104.902C27.8952 104.902 27.526 105.055 27.248 105.36C26.9701 105.666 26.8311 106.069 26.8311 106.57V111H25.6416ZM32.4707 104.8C31.9193 104.8 31.4613 104.991 31.0967 105.374C30.7367 105.752 30.5384 106.24 30.502 106.837H34.3643C34.3506 106.235 34.1706 105.745 33.8242 105.367C33.4779 104.989 33.0267 104.8 32.4707 104.8ZM34.3369 108.963H35.5059C35.401 109.592 35.0729 110.109 34.5215 110.515C33.9746 110.92 33.3161 111.123 32.5459 111.123C31.5296 111.123 30.7298 110.795 30.1465 110.139C29.5632 109.482 29.2715 108.594 29.2715 107.473C29.2715 106.361 29.5632 105.465 30.1465 104.786C30.7344 104.107 31.516 103.768 32.4912 103.768C33.4482 103.768 34.2048 104.089 34.7607 104.731C35.3167 105.374 35.5947 106.235 35.5947 107.315V107.767H30.4951V107.835C30.4951 108.519 30.682 109.065 31.0557 109.476C31.4294 109.886 31.9352 110.091 32.5732 110.091C33.0199 110.091 33.4004 109.988 33.7148 109.783C34.0293 109.578 34.2367 109.305 34.3369 108.963ZM36.6748 105.853C36.6748 105.242 36.9209 104.743 37.4131 104.355C37.9098 103.964 38.5479 103.768 39.3271 103.768C40.0609 103.768 40.6715 103.964 41.1592 104.355C41.6468 104.747 41.9043 105.244 41.9316 105.846H40.7969C40.7559 105.499 40.6009 105.228 40.332 105.032C40.0677 104.836 39.7191 104.738 39.2861 104.738C38.8532 104.738 38.5046 104.836 38.2402 105.032C37.9759 105.224 37.8438 105.477 37.8438 105.791C37.8438 106.274 38.238 106.616 39.0264 106.816L40.127 107.083C40.8424 107.265 41.346 107.502 41.6377 107.794C41.9339 108.081 42.082 108.487 42.082 109.011C42.082 109.631 41.8177 110.139 41.2891 110.535C40.7604 110.927 40.0814 111.123 39.252 111.123C38.4772 111.123 37.8369 110.932 37.3311 110.549C36.8298 110.161 36.5472 109.651 36.4834 109.018H37.6729C37.805 109.774 38.3564 110.152 39.3271 110.152C39.8057 110.152 40.1839 110.059 40.4619 109.872C40.7445 109.681 40.8857 109.423 40.8857 109.1C40.8857 108.844 40.8014 108.642 40.6328 108.491C40.4688 108.341 40.1885 108.213 39.792 108.108L38.541 107.787C37.2969 107.468 36.6748 106.823 36.6748 105.853ZM46.252 111V103.891H47.4414V111H46.252ZM46.8467 102.694C46.6462 102.694 46.473 102.621 46.3271 102.476C46.1813 102.33 46.1084 102.157 46.1084 101.956C46.1084 101.751 46.1813 101.578 46.3271 101.437C46.473 101.291 46.6462 101.218 46.8467 101.218C47.0518 101.218 47.2272 101.291 47.373 101.437C47.5189 101.578 47.5918 101.751 47.5918 101.956C47.5918 102.157 47.5189 102.33 47.373 102.476C47.2272 102.621 47.0518 102.694 46.8467 102.694ZM49.0479 111V103.891H50.1689V105.025H50.1963C50.4014 104.629 50.6953 104.321 51.0781 104.103C51.4609 103.879 51.9189 103.768 52.4521 103.768C53.2269 103.768 53.8307 104.002 54.2637 104.472C54.6966 104.937 54.9131 105.575 54.9131 106.386V111H53.7236V106.598C53.7236 106.019 53.5869 105.579 53.3135 105.278C53.04 104.973 52.6322 104.82 52.0898 104.82C51.5293 104.82 51.0804 105.003 50.7432 105.367C50.4059 105.732 50.2373 106.215 50.2373 106.816V111H49.0479ZM61.8447 111V102.441H61.8174L59.2061 104.321V103.022L61.8311 101.136H63.0342V111H61.8447ZM68.9883 111.164C67.8444 111.164 66.9512 110.708 66.3086 109.797C65.6706 108.881 65.3516 107.637 65.3516 106.064C65.3516 104.506 65.6729 103.269 66.3154 102.353C66.9626 101.432 67.8535 100.972 68.9883 100.972C70.123 100.972 71.0094 101.43 71.6475 102.346C72.29 103.257 72.6113 104.494 72.6113 106.058C72.6113 107.63 72.2923 108.874 71.6543 109.79C71.0163 110.706 70.1276 111.164 68.9883 111.164ZM67.2178 109.011C67.637 109.731 68.2272 110.091 68.9883 110.091C69.7493 110.091 70.3372 109.733 70.752 109.018C71.1667 108.298 71.374 107.313 71.374 106.064C71.374 104.834 71.1644 103.859 70.7451 103.139C70.3258 102.414 69.7402 102.052 68.9883 102.052C68.2363 102.052 67.6484 102.414 67.2246 103.139C66.8008 103.863 66.5889 104.836 66.5889 106.058C66.5889 107.306 66.7985 108.291 67.2178 109.011ZM74.2451 113.099H73.2266L76.7197 101.136H77.7383L74.2451 113.099ZM81.9902 111.164C80.8464 111.164 79.9531 110.708 79.3105 109.797C78.6725 108.881 78.3535 107.637 78.3535 106.064C78.3535 104.506 78.6748 103.269 79.3174 102.353C79.9645 101.432 80.8555 100.972 81.9902 100.972C83.125 100.972 84.0114 101.43 84.6494 102.346C85.292 103.257 85.6133 104.494 85.6133 106.058C85.6133 107.63 85.2943 108.874 84.6562 109.79C84.0182 110.706 83.1296 111.164 81.9902 111.164ZM80.2197 109.011C80.639 109.731 81.2292 110.091 81.9902 110.091C82.7513 110.091 83.3392 109.733 83.7539 109.018C84.1686 108.298 84.376 107.313 84.376 106.064C84.376 104.834 84.1663 103.859 83.7471 103.139C83.3278 102.414 82.7422 102.052 81.9902 102.052C81.2383 102.052 80.6504 102.414 80.2266 103.139C79.8027 103.863 79.5908 104.836 79.5908 106.058C79.5908 107.306 79.8005 108.291 80.2197 109.011ZM90.4189 111.164C89.3753 111.164 88.5186 110.9 87.8486 110.371C87.1787 109.838 86.8438 109.159 86.8438 108.334C86.8438 107.719 87.0374 107.179 87.4248 106.714C87.8122 106.249 88.3249 105.944 88.9629 105.798V105.771C88.4297 105.606 88.0081 105.328 87.6982 104.937C87.3883 104.54 87.2334 104.082 87.2334 103.562C87.2334 102.82 87.5342 102.202 88.1357 101.71C88.7419 101.218 89.5029 100.972 90.4189 100.972C91.3395 100.972 92.0983 101.218 92.6953 101.71C93.2969 102.198 93.5977 102.817 93.5977 103.569C93.5977 104.084 93.445 104.538 93.1396 104.93C92.8343 105.322 92.4128 105.602 91.875 105.771V105.798C92.513 105.948 93.0257 106.256 93.4131 106.721C93.805 107.186 94.001 107.723 94.001 108.334C94.001 109.159 93.666 109.838 92.9961 110.371C92.3262 110.9 91.4671 111.164 90.4189 111.164ZM90.4189 110.091C91.098 110.091 91.654 109.918 92.0869 109.571C92.5244 109.225 92.7432 108.783 92.7432 108.245C92.7432 107.703 92.5244 107.258 92.0869 106.912C91.654 106.566 91.098 106.393 90.4189 106.393C89.7399 106.393 89.1816 106.568 88.7441 106.919C88.3112 107.265 88.0947 107.707 88.0947 108.245C88.0947 108.783 88.3135 109.225 88.751 109.571C89.1885 109.918 89.7445 110.091 90.4189 110.091ZM90.4189 105.312C90.9932 105.312 91.4626 105.16 91.8271 104.854C92.1963 104.549 92.3809 104.157 92.3809 103.679C92.3809 103.196 92.1986 102.801 91.834 102.496C91.4694 102.186 90.9977 102.031 90.4189 102.031C89.8402 102.031 89.3685 102.186 89.0039 102.496C88.6393 102.801 88.457 103.196 88.457 103.679C88.457 104.157 88.6393 104.549 89.0039 104.854C89.3685 105.16 89.8402 105.312 90.4189 105.312Z" fill="black" fill-opacity="0.5"/>
</svg>
