<svg width="85" height="57" viewBox="0 0 85 57" fill="none" xmlns="http://www.w3.org/2000/svg">
<path d="M81.1363 0H42.5H3.86368C1.72988 0 0 1.56707 0 3.50005V53.5C0 55.4329 1.72988 57 3.86368 57H42.5H81.1363C83.2701 57 85 55.4329 85 53.5V3.50005C85 1.56707 83.2701 0 81.1363 0Z" fill="#F4F4F4"/>
<path d="M45.453 18.5387C46.3022 19.42 47.0418 20.39 47.6504 21.4325C48.8834 23.5442 49.5853 25.9482 49.5853 28.4988C49.5853 31.0494 48.8834 33.4531 47.6504 35.5651C47.0418 36.6076 46.3022 37.5773 45.453 38.4586C44.5791 39.3656 43.5887 40.1771 42.502 40.8752C45.2336 42.6294 48.5653 43.6654 52.1611 43.6654C61.3929 43.6654 68.9036 36.8616 68.9036 28.4988C68.9036 20.136 61.3929 13.332 52.1611 13.332C48.5653 13.332 45.2336 14.3676 42.502 16.1222C43.5884 16.8204 44.5788 17.632 45.453 18.5387Z" fill="#FFB655"/>
<path d="M47.651 21.4322C47.0424 20.3894 46.3028 19.4197 45.4536 18.5384C44.5792 17.6314 43.5891 16.8202 42.5025 16.1222C39.7712 14.3676 36.4391 13.332 32.8434 13.332C23.6116 13.332 16.1011 20.1359 16.1011 28.4987C16.1011 36.8615 23.6118 43.6653 32.8434 43.6653C36.4391 43.6653 39.7712 42.6296 42.5025 40.8751C43.5893 40.1771 44.5794 39.3655 45.4536 38.4588C46.3028 37.5775 47.0424 36.6074 47.651 35.5652C48.884 33.4533 49.5859 31.0493 49.5859 28.499C49.5859 25.9477 48.884 23.5439 47.651 21.4322Z" fill="#D8143A"/>
<path d="M32.8409 43.6671C23.6091 43.6671 16.0985 36.8632 16.0985 28.5004C16.0985 20.1377 23.6092 13.3338 32.8409 13.3338C36.4366 13.3338 39.7684 14.3694 42.5 16.124V0H3.86368C1.72988 0 0 1.56707 0 3.50005V53.5C0 55.4329 1.72988 57 3.86368 57H42.5V40.8766C39.7684 42.631 36.4366 43.6671 32.8409 43.6671Z" fill="#E3E3E3"/>
</svg>
