<svg width="305" height="267" viewBox="0 0 305 267" fill="none" xmlns="http://www.w3.org/2000/svg">
<path d="M222.497 86.396H191.906V130.741H222.497V86.396Z" fill="#E0E0E0"/>
<path d="M220.966 86.396H190.375V130.741H220.966V86.396Z" fill="#F5F5F5"/>
<path d="M217.166 91.1968H194.175V125.939H217.166V91.1968Z" fill="white"/>
<path d="M217.16 125.933C217.16 125.933 217.16 125.879 217.16 125.769V125.275C217.16 124.835 217.16 124.201 217.16 123.371C217.16 121.706 217.16 119.278 217.16 116.209C217.16 110.109 217.16 101.409 217.123 91.1969L217.196 91.2701H194.212L194.297 91.1847C194.297 104.289 194.297 116.374 194.297 125.921L194.23 125.86H210.968H215.586H217.16H216.757H215.537H210.926H194.151H194.083V125.793C194.083 116.246 194.083 104.161 194.083 91.0566V90.9712H217.233V91.0505C217.233 101.287 217.202 109.962 217.196 116.118C217.196 119.168 217.196 121.608 217.196 123.255C217.196 124.079 217.196 124.713 217.196 125.146V125.628C217.195 125.731 217.183 125.833 217.16 125.933Z" fill="#E0E0E0"/>
<path d="M221.052 86.396C220.895 86.676 220.713 86.9415 220.509 87.1891C220.155 87.6588 219.649 88.3055 219.075 89.0192C218.502 89.733 217.959 90.337 217.562 90.7762C217.356 91.0243 217.13 91.2549 216.885 91.4655C217.069 91.1966 217.273 90.9417 217.495 90.703L218.971 88.9155L220.442 87.1281C220.623 86.8666 220.827 86.6216 221.052 86.396Z" fill="#E0E0E0"/>
<path d="M217.282 125.824C218.428 127.64 219.774 129.322 221.296 130.838L217.282 125.824Z" fill="white"/>
<path d="M221.296 130.839C221.04 130.661 220.805 130.457 220.594 130.229C220.061 129.685 219.556 129.115 219.081 128.52C218.606 127.934 218.162 127.323 217.751 126.69C217.566 126.433 217.409 126.157 217.282 125.867C217.493 126.102 217.683 126.355 217.849 126.623C218.185 127.099 218.66 127.746 219.209 128.453C219.758 129.161 220.295 129.753 220.679 130.186C220.901 130.388 221.106 130.606 221.296 130.839Z" fill="#E0E0E0"/>
<path d="M190.375 130.704L194.376 125.763L190.375 130.704Z" fill="white"/>
<path d="M194.376 125.763C193.776 126.636 193.13 127.477 192.442 128.282C191.332 129.649 190.405 130.722 190.375 130.722C190.974 129.847 191.619 129.004 192.308 128.197C192.956 127.351 193.646 126.539 194.376 125.763Z" fill="#E0E0E0"/>
<path d="M190.375 86.396C191.066 87.1336 191.716 87.9096 192.32 88.7203C192.972 89.5015 193.583 90.316 194.15 91.1605C193.459 90.4229 192.809 89.6469 192.205 88.8362C191.55 88.0575 190.939 87.2428 190.375 86.396Z" fill="#E0E0E0"/>
<path d="M210.005 98.2495H202.307V120.108H210.005V98.2495Z" fill="#E0E0E0"/>
<path d="M161.65 210.469C160.259 210.929 158.974 211.664 157.874 212.632C156.773 213.599 155.879 214.779 155.245 216.1C153.995 218.754 153.369 221.659 153.415 224.592C153.342 230.247 155.788 236.274 158.63 241.161C163.846 237.659 165.835 230.656 166.621 227.038C167.841 221.316 166.622 210.231 161.656 210.469" fill="#F5F5F5"/>
<path d="M152.006 249.677C152.53 248.122 152.634 246.457 152.306 244.85C151.978 243.242 151.23 241.751 150.139 240.526C149.031 239.323 147.694 238.353 146.207 237.672C144.72 236.991 143.112 236.613 141.477 236.561C139.971 236.481 138.299 236.713 137.287 237.836C136.846 238.389 136.561 239.05 136.461 239.75C136.361 240.451 136.45 241.165 136.719 241.819C137.276 243.124 138.168 244.259 139.306 245.107C143.045 248.158 147.236 250.458 152.006 249.664" fill="#F5F5F5"/>
<path d="M155.916 263.269C155.986 262.022 155.929 260.771 155.745 259.536C155.596 258.177 155.285 256.842 154.818 255.558C154.295 253.979 153.669 252.437 152.945 250.94C151.609 248.191 149.614 245.814 147.138 244.022C146.372 243.499 145.554 243.055 144.698 242.698C144.392 242.551 144.064 242.456 143.728 242.417C143.679 242.521 145.039 243.028 146.851 244.382C149.167 246.227 151.042 248.566 152.341 251.227C153.051 252.7 153.681 254.211 154.226 255.753C154.703 256.995 155.051 258.283 155.263 259.597C155.641 261.86 155.818 263.281 155.916 263.269Z" fill="#E0E0E0"/>
<path d="M161.839 219.01C161.643 219.606 161.501 220.219 161.412 220.84C161.18 222.06 160.869 223.768 160.503 225.909C159.765 230.18 158.82 236.122 157.929 242.698C157.038 249.275 156.41 255.247 156.044 259.585C155.861 261.75 155.733 263.501 155.666 264.715C155.594 265.343 155.581 265.976 155.629 266.606C155.777 265.993 155.871 265.369 155.91 264.739C156.062 263.416 156.258 261.689 156.52 259.627C157.002 255.308 157.703 249.348 158.588 242.784C159.472 236.219 160.351 230.387 160.973 225.977C161.266 223.915 161.504 222.194 161.687 220.883C161.791 220.264 161.842 219.637 161.839 219.01Z" fill="#E0E0E0"/>
<path d="M158.813 252.715C160.254 249.578 162.422 246.829 165.137 244.697C167.851 242.565 171.035 241.11 174.423 240.453C176.144 240.136 178.266 240.197 179.212 241.673C180.157 243.149 179.328 245.114 178.285 246.553C176.052 249.456 173.011 251.633 169.544 252.811C166.077 253.989 162.34 254.115 158.801 253.172" fill="#F5F5F5"/>
<path d="M172.02 244.998C171.687 245.014 171.36 245.084 171.05 245.205C170.44 245.376 169.555 245.675 168.488 246.072C165.664 247.098 163.054 248.637 160.79 250.611C159.569 251.739 158.539 253.057 157.74 254.515C157.101 255.711 156.63 256.99 156.343 258.316C156.147 259.202 156.032 260.105 156.001 261.012C155.945 261.341 155.945 261.677 156.001 262.006C156.129 262.006 156.178 260.597 156.745 258.425C157.49 255.597 159.037 253.044 161.198 251.074C163.418 249.158 165.931 247.609 168.64 246.487C170.745 245.578 172.069 245.096 172.02 244.998Z" fill="#E0E0E0"/>
<path d="M277.91 103.563C277.91 103.563 271.517 101.678 268.93 116.374C266.344 131.07 266.137 139.166 266.137 139.166C266.137 139.166 265.24 142.356 262.873 141.173C260.506 139.989 256.486 135.823 253.65 137.665C250.704 139.574 250.746 143.503 252.985 148.603C255.224 153.703 259.695 165.075 260.11 166.1C260.525 167.125 260.378 168.814 258.64 168.271C256.901 167.728 245.83 161.054 242.963 166.545C240.096 172.035 248.672 185.188 249.581 186.677C250.49 188.165 250.386 188.91 249.752 189.532C249.118 190.154 245.604 187.561 242.371 185.792C239.138 184.023 235.081 182.541 233.703 185.823C232.324 189.105 234.923 200.171 250.673 214.636L258.396 220.858L267.747 217.417C287.31 208.828 293.367 199.213 293.135 195.657C292.903 192.1 288.572 192.167 284.943 192.777C281.313 193.387 277.147 194.723 276.744 193.924C276.342 193.125 276.5 192.362 277.836 191.277C279.172 190.191 291.549 180.479 290.616 174.396C289.683 168.314 277.031 171.041 275.207 170.992C273.383 170.943 273.823 169.29 274.518 168.467C275.213 167.643 283.162 158.328 286.931 154.222C290.701 150.116 292.013 146.419 289.847 143.656C287.761 140.99 282.6 143.656 279.984 143.985C277.367 144.315 277.544 141.032 277.544 141.032C277.544 141.032 279.984 133.309 282.283 118.558C284.583 103.807 277.769 103.551 277.769 103.551" fill="#F5F5F5"/>
<path d="M275.574 116.734C275.574 116.734 275.574 116.838 275.543 117.045L275.415 117.954C275.293 118.765 275.116 119.943 274.897 121.444C274.439 124.494 273.75 128.862 272.877 134.255C271.133 145.083 268.607 160.017 265.747 176.507C262.886 192.997 260.318 207.925 258.518 218.741C257.621 224.14 256.895 228.502 256.395 231.552C256.145 233.053 255.95 234.224 255.785 235.036C255.718 235.42 255.669 235.719 255.627 235.939C255.584 236.158 255.56 236.244 255.56 236.244C255.56 236.244 255.56 236.14 255.596 235.932C255.633 235.725 255.669 235.414 255.718 235.023C255.84 234.212 256.017 233.035 256.237 231.534C256.694 228.484 257.383 224.116 258.256 218.723C260 207.894 262.526 192.954 265.393 176.464C268.26 159.975 270.84 145.053 272.67 134.212C273.561 128.813 274.287 124.451 274.793 121.401L275.372 117.917L275.531 117.015C275.54 116.92 275.555 116.827 275.574 116.734Z" fill="#E0E0E0"/>
<path d="M259.042 143.741C259.21 143.913 259.357 144.104 259.482 144.309C259.75 144.687 260.092 145.242 260.567 145.931C261.464 147.316 262.654 149.256 263.922 151.422L267.149 156.992L268.131 158.669C268.271 158.856 268.384 159.062 268.467 159.279C268.297 159.11 268.148 158.922 268.022 158.718C267.759 158.34 267.412 157.785 266.948 157.089C266.064 155.692 264.898 153.734 263.63 151.568L260.366 146.023C259.976 145.364 259.64 144.803 259.372 144.345C259.236 144.159 259.125 143.956 259.042 143.741Z" fill="#E0E0E0"/>
<path d="M269.394 159.224C269.339 159.145 273.237 156.522 278.099 153.356C282.961 150.19 286.932 147.694 286.987 147.768C287.041 147.841 283.137 150.476 278.282 153.636C273.426 156.796 269.443 159.292 269.394 159.224Z" fill="#E0E0E0"/>
<path d="M263.868 184.334C264.088 184.226 264.319 184.142 264.557 184.084L266.46 183.504C268.064 183.01 270.285 182.327 272.7 181.479C275.116 180.631 277.288 179.807 278.855 179.191L280.685 178.465C280.908 178.357 281.144 178.279 281.387 178.233C281.184 178.372 280.968 178.489 280.74 178.581C280.313 178.789 279.697 179.075 278.91 179.411C277.373 180.082 275.214 180.954 272.81 181.796C270.407 182.638 268.15 183.297 266.527 183.73C265.71 183.944 265.051 184.108 264.587 184.212C264.353 184.281 264.112 184.322 263.868 184.334Z" fill="#E0E0E0"/>
<path d="M251.423 172.401C251.618 172.517 251.799 172.657 251.96 172.816C252.29 173.097 252.765 173.512 253.339 174.036C254.498 175.08 256.078 176.531 257.81 178.148C259.542 179.765 261.098 181.247 262.214 182.333C262.769 182.87 263.215 183.315 263.52 183.626C263.688 183.778 263.839 183.948 263.971 184.133C263.774 184.023 263.593 183.885 263.434 183.724C263.099 183.443 262.629 183.022 262.05 182.504C260.897 181.467 259.311 180.015 257.578 178.392C255.846 176.769 254.29 175.293 253.18 174.213C252.619 173.67 252.174 173.231 251.869 172.914C251.699 172.763 251.549 172.591 251.423 172.401Z" fill="#E0E0E0"/>
<path d="M243.725 193.961C243.972 194.115 244.201 194.295 244.408 194.498L246.183 196.053C247.672 197.377 249.709 199.22 251.954 201.275C254.199 203.331 256.224 205.204 257.658 206.571L259.359 208.206C259.583 208.388 259.787 208.593 259.969 208.816C259.726 208.657 259.498 208.478 259.286 208.279L257.511 206.723C256.023 205.399 253.985 203.551 251.741 201.501C249.496 199.451 247.471 197.572 246.043 196.206L244.323 194.608C244.102 194.414 243.901 194.197 243.725 193.961Z" fill="#E0E0E0"/>
<path d="M259.665 208.37C259.941 208.234 260.229 208.121 260.525 208.035L262.916 207.211C264.929 206.516 267.71 205.546 270.754 204.393C273.798 203.24 276.525 202.13 278.489 201.312L280.825 200.342C281.106 200.21 281.398 200.104 281.698 200.025C281.442 200.2 281.168 200.347 280.88 200.464C280.344 200.726 279.563 201.074 278.587 201.526C276.641 202.404 273.92 203.551 270.87 204.704C267.82 205.857 265.026 206.809 262.989 207.419C261.97 207.736 261.159 207.98 260.549 208.139C260.263 208.245 259.966 208.322 259.665 208.37Z" fill="#E0E0E0"/>
<path d="M63.3422 233.864C77.4271 225.824 82.0021 208.938 82.8622 193.461C83.0086 190.874 83.5393 188.19 82.5206 185.817C81.5019 183.443 78.7874 181.638 76.384 182.51C74.3893 183.236 73.334 185.383 72.114 187.128C70.4585 189.45 68.1813 191.258 65.5443 192.344C63.8241 193.046 61.7501 193.375 60.2129 192.344C58.1023 190.91 58.1206 187.818 58.3829 185.261C58.8668 180.479 59.3325 175.704 59.7798 170.937C60.0299 168.381 60.28 165.764 59.7066 163.263C59.1332 160.762 57.5777 158.334 55.2048 157.431C52.8319 156.528 49.6843 157.65 48.9401 160.115C48.6351 161.14 48.7449 162.238 48.5802 163.293C48.4155 164.349 47.8055 165.483 46.7502 165.691C45.6949 165.898 44.7433 165.081 44.0479 164.257C41.6079 161.427 40.15 157.931 38.7775 154.46C37.405 150.989 36.0874 147.456 33.9463 144.412C31.8052 141.368 28.6942 138.836 25.0464 138.312C21.3986 137.787 17.2811 139.678 16.0245 143.192C14.7679 146.706 16.5308 150.574 18.556 153.709C21.5767 158.35 25.25 162.531 29.4628 166.124C30.2192 166.771 31.0366 167.472 31.2928 168.448C31.6893 170.205 29.9142 171.755 28.1818 172.164C26.2115 172.621 24.1558 172.231 22.1428 172.286C20.1298 172.34 17.8728 173.018 16.9517 174.842C15.6585 177.361 17.5983 180.332 19.5869 182.303C23.5722 186.3 28.2174 189.579 33.318 191.996C35.148 192.857 37.0634 193.644 38.4603 195.108C39.8572 196.572 40.5648 198.957 39.4851 200.677C38.4054 202.398 35.9898 202.764 34.05 202.215C32.1102 201.666 30.4449 200.433 28.6271 199.555C25.2294 197.902 20.6605 197.725 18.129 200.562C16.4637 202.428 16.0794 205.198 16.6101 207.65C17.1408 210.103 18.4706 212.299 19.9102 214.361C24.9427 221.499 31.6771 227.489 39.5888 231.07C47.5005 234.651 54.9852 236.109 63.3788 233.889" fill="#F5F5F5"/>
<path d="M62.5005 245.321C62.4359 238.1 61.6822 230.901 60.2495 223.823C58.4555 215.181 56.1683 206.648 53.3993 198.268L51.2399 191.673C50.5323 189.507 49.8307 187.36 49.0133 185.298C47.4418 181.348 45.6517 177.488 43.6514 173.737C41.7665 170.144 39.8511 166.801 38.0333 163.69C36.2155 160.578 34.4526 157.711 32.7446 155.149C30.064 151.128 27.0698 147.326 23.7898 143.777C22.6308 142.521 21.7036 141.575 21.0631 140.941L20.3311 140.227C20.2502 140.143 20.1624 140.065 20.0688 139.995C20.1376 140.088 20.213 140.176 20.2945 140.257L20.996 141.008C21.606 141.661 22.521 142.631 23.6556 143.906C26.8764 147.498 29.8229 151.328 32.4701 155.362C34.1598 157.906 35.8922 160.78 37.6978 163.903C39.5034 167.027 41.4067 170.37 43.2733 173.957C45.2584 177.691 47.0402 181.53 48.6108 185.456C49.416 187.506 50.1114 189.635 50.8129 191.807C51.5144 193.979 52.2281 196.175 52.9539 198.408C55.7134 206.768 58.0065 215.275 59.8226 223.89C61.2691 230.939 62.0533 238.108 62.165 245.303" fill="#E0E0E0"/>
<path d="M48.9033 185.267C49.0653 184.928 49.1841 184.569 49.2571 184.2C49.4584 183.504 49.7085 182.492 50.0074 181.229C50.6174 178.709 51.3067 175.208 52.0692 171.34C52.8317 167.472 53.582 163.989 54.2164 161.488C54.5275 160.267 54.7898 159.224 54.985 158.529C55.1041 158.172 55.1859 157.804 55.229 157.431C55.0482 157.761 54.907 158.111 54.8081 158.474C54.5641 159.157 54.2469 160.158 53.8931 161.402C53.1733 163.885 52.3681 167.375 51.6056 171.248L49.678 181.186C49.4401 182.376 49.2388 183.382 49.068 184.188C48.9792 184.542 48.9241 184.903 48.9033 185.267Z" fill="#E0E0E0"/>
<path d="M16.5366 176.099C16.961 176.227 17.3957 176.319 17.8359 176.373C18.6777 176.526 19.8916 176.739 21.38 177.056C24.369 177.666 28.4621 178.63 32.9334 179.905C37.4047 181.18 41.4002 182.522 44.2672 183.566C45.7007 184.078 46.8536 184.523 47.6466 184.828C48.0504 185.014 48.4712 185.159 48.9032 185.262C48.5298 185.02 48.1334 184.815 47.7198 184.652C46.9451 184.292 45.8105 183.797 44.3831 183.242C41.5405 182.108 37.5511 180.723 33.0615 179.436C29.2375 178.327 25.3588 177.417 21.441 176.709C19.9404 176.44 18.7143 176.276 17.8664 176.178C17.427 176.106 16.9814 176.08 16.5366 176.099Z" fill="#E0E0E0"/>
<path d="M59.8955 223.182C60.0016 223.068 60.09 222.938 60.1578 222.798L60.8349 221.657C61.4449 220.669 62.2135 219.217 63.1773 217.387C65.111 213.763 67.6303 208.669 70.3265 203.008C73.0227 197.346 75.4871 192.234 77.3476 188.574L79.5558 184.242L80.1658 183.059C80.2409 182.924 80.3003 182.78 80.3427 182.632C80.2397 182.746 80.1516 182.873 80.0804 183.01L79.4094 184.151C78.8299 185.145 78.0308 186.591 77.0609 188.421C75.1272 192.051 72.614 197.145 69.9117 202.806C67.2094 208.468 64.7511 213.574 62.8967 217.24L60.6824 221.572L60.0724 222.755C59.994 222.889 59.9344 223.032 59.8955 223.182Z" fill="#E0E0E0"/>
<path d="M17.4272 205.064C17.5562 205.157 17.698 205.231 17.8481 205.284L19.0681 205.827L23.6126 207.779C27.4556 209.42 32.7626 211.756 38.5576 214.343C44.3526 216.93 49.684 219.223 53.5636 220.785C55.4973 221.572 57.0711 222.188 58.1691 222.615L59.4318 223.079C59.5769 223.139 59.7284 223.182 59.8832 223.207C59.7572 223.113 59.6173 223.039 59.4684 222.987L58.2484 222.444L53.6795 220.474C49.8365 218.827 44.5295 216.49 38.7345 213.904C32.9395 211.317 27.602 209.023 23.7285 207.461C21.7948 206.681 20.221 206.058 19.123 205.631L17.8603 205.174C17.7208 205.12 17.5754 205.083 17.4272 205.064Z" fill="#E0E0E0"/>
<path d="M106.652 49.8413V100.195H34.3427L31.7319 50.1951L106.652 49.8413Z" fill="#E0E0E0"/>
<path d="M31.7319 50.2015L31.7319 100.092H104.041V50.2015L31.7319 50.2015Z" fill="white"/>
<path d="M104.389 100.433H31.3906V49.8535H104.389V100.433ZM32.0799 99.7438H103.7V50.5368H32.0799V99.7438Z" fill="#E0E0E0"/>
<path d="M96.2091 56.3936H39.5645V93.8875H96.2091V56.3936Z" fill="white"/>
<path d="M96.2153 56.3935H95.9347H95.16H92.049L80.3736 56.4362L39.5951 56.5155L39.7598 56.3508C39.7598 67.8076 39.7598 80.5028 39.7598 93.8447L39.5768 93.6678L96.2275 93.7044L96.0811 93.8447C96.1177 82.4367 96.1421 73.1029 96.1604 66.5692C96.1604 63.3115 96.1604 60.7675 96.197 59.0228C96.197 58.1626 96.197 57.4977 96.197 57.0401C96.197 56.5826 96.197 56.3508 96.197 56.3508C96.197 56.3508 96.197 56.5704 96.197 57.0096C96.197 57.4488 96.197 58.1138 96.197 58.9679C96.197 60.7004 96.197 63.2383 96.2336 66.4777C96.2336 73.0113 96.2763 82.4001 96.3068 93.8447V93.9911H96.1665L39.5158 94.0277H39.3389V93.8447C39.3389 80.5028 39.3389 67.8076 39.3389 56.3508V56.186H39.4975L80.3675 56.2714L92.0063 56.3141H95.0563H95.8432L96.2153 56.3935Z" fill="#E0E0E0"/>
<path d="M31.7198 50.0552C32.1561 50.2756 32.5655 50.5458 32.9398 50.8604C33.684 51.3973 34.6905 52.1538 35.7763 53.0261C36.8621 53.8985 37.8198 54.716 38.4969 55.3321C38.8845 55.6404 39.2309 55.9972 39.5278 56.3936C39.4607 56.473 37.6978 55.0393 35.5506 53.3007C33.4034 51.562 31.671 50.1406 31.7198 50.0552Z" fill="#E0E0E0"/>
<path d="M104.047 50.1953C102.858 51.3648 101.586 52.4474 100.241 53.4347C98.9717 54.5164 97.6262 55.5052 96.2148 56.3935C97.4124 55.2255 98.6904 54.1431 100.04 53.1541C101.303 52.0738 102.643 51.0851 104.047 50.1953Z" fill="#E0E0E0"/>
<path d="M103.986 100.098L95.9282 93.5581L103.986 100.098Z" fill="white"/>
<path d="M95.9286 93.5581C97.3764 94.5094 98.76 95.5548 100.071 96.6877C101.454 97.7321 102.762 98.8715 103.987 100.098C102.537 99.149 101.154 98.1035 99.8448 96.9683C97.6 95.1686 95.8615 93.6374 95.9286 93.5581Z" fill="#E0E0E0"/>
<path d="M31.7197 100.092C32.898 98.9334 34.1579 97.861 35.4895 96.8829C36.7466 95.8141 38.0777 94.8355 39.4728 93.9546C38.2975 95.1139 37.0397 96.1863 35.7091 97.1635C34.4501 98.2325 33.117 99.211 31.7197 100.092Z" fill="#E0E0E0"/>
<path d="M51.0688 68.0823V80.6372H86.7112V68.0823H51.0688Z" fill="#E0E0E0"/>
<path d="M273.621 38.1406H234.959V94.1863H273.621V38.1406Z" fill="#E0E0E0"/>
<path d="M271.688 38.1406H233.026V94.1863H271.688V38.1406Z" fill="#F5F5F5"/>
<path d="M266.881 44.2104H237.827V88.1161H266.881V44.2104Z" fill="white"/>
<path d="M266.887 88.1163C266.887 88.1163 266.887 88.0431 266.887 87.9027V87.2927C266.887 86.7375 266.887 85.9323 266.887 84.883C266.887 82.7783 266.887 79.7158 266.887 75.842C266.887 68.1004 266.856 57.1316 266.838 44.2228L266.936 44.3205H237.826L237.936 44.2167C237.936 60.7797 237.936 76.0494 237.936 88.1407L237.851 88.0553L258.999 88.1041H264.843H266.38H266.911H266.399H264.88H259.054L237.851 88.1468H237.771V88.0614C237.771 75.9884 237.771 60.7187 237.771 44.1374V44.1069H267.051V44.2045C267.051 57.1438 267.021 68.1248 267.009 75.8847C267.009 79.7463 267.009 82.8088 266.978 84.9074C266.978 85.9445 266.978 86.7375 266.978 87.2927V87.9027C266.887 88.0492 266.887 88.1163 266.887 88.1163Z" fill="#E0E0E0"/>
<path d="M271.797 38.1406C271.601 38.496 271.37 38.8311 271.108 39.1411C270.657 39.7512 270.022 40.5625 269.278 41.4471C268.534 42.3317 267.869 43.1126 267.363 43.6677C267.112 43.9803 266.835 44.2702 266.533 44.534C266.751 44.1917 266.997 43.8692 267.271 43.5701L269.132 41.3129C269.833 40.4527 270.474 39.678 270.992 39.0496C271.234 38.7243 271.504 38.4202 271.797 38.1406Z" fill="#E0E0E0"/>
<path d="M267.034 87.9761C268.481 90.2721 270.181 92.3982 272.103 94.3145L267.034 87.9761Z" fill="white"/>
<path d="M272.103 94.3145C271.781 94.0772 271.484 93.8073 271.218 93.5092C270.7 92.9846 269.998 92.2342 269.303 91.3558C268.705 90.6034 268.145 89.8216 267.625 89.0132C267.387 88.6891 267.183 88.3416 267.015 87.9761C267.278 88.2762 267.516 88.5964 267.729 88.9339C268.156 89.5439 268.754 90.3492 269.449 91.2215C270.144 92.0939 270.815 92.8626 271.31 93.4055C271.595 93.6891 271.86 93.9928 272.103 94.3145Z" fill="#E0E0E0"/>
<path d="M233.02 94.1434L238.083 87.8965L233.02 94.1434Z" fill="white"/>
<path d="M238.083 87.8965C237.327 89.0029 236.513 90.0679 235.643 91.0871C234.24 92.8074 233.069 94.18 233.026 94.1373C233.783 93.032 234.597 91.967 235.466 90.9468C236.285 89.8853 237.158 88.8672 238.083 87.8965Z" fill="#E0E0E0"/>
<path d="M233.02 38.1406C233.885 39.0763 234.7 40.0579 235.46 41.0811C236.278 42.0564 237.043 43.0746 237.753 44.1314C236.886 43.1975 236.071 42.2158 235.313 41.1909C234.495 40.2155 233.729 39.1974 233.02 38.1406Z" fill="#E0E0E0"/>
<path d="M257.834 53.1235H248.105V80.7468H257.834V53.1235Z" fill="#E0E0E0"/>
<path d="M281.777 266.594C281.777 266.685 222.351 266.752 149.072 266.752C75.7924 266.752 16.354 266.71 16.354 266.594C16.354 266.478 75.7619 266.435 149.072 266.435C222.382 266.435 281.777 266.533 281.777 266.594Z" fill="#263238"/>
<path d="M207.217 161.054C207.67 162.896 207.617 164.827 207.064 166.641C206.511 168.456 205.479 170.088 204.075 171.364C202.215 173.011 199.805 173.963 198.097 175.775C197.04 176.98 196.313 178.438 195.987 180.007C195.661 181.577 195.747 183.204 196.237 184.73C196.755 186.246 197.575 187.64 198.648 188.829C199.721 190.018 201.023 190.977 202.477 191.648C204.457 192.573 206.627 193.017 208.811 192.943C210.995 192.869 213.131 192.279 215.043 191.221C219.758 188.555 222.503 183.205 223.199 177.831C223.894 172.456 222.802 167.014 221.369 161.786" fill="#263238"/>
<path d="M266.686 255.826C271.566 255.027 276.141 256.516 280.972 257.583C282.256 257.964 283.613 258.037 284.931 257.797C287.023 257.26 288.511 255.222 288.835 253.087C289.096 251.217 288.662 249.315 287.615 247.743C287.194 247.066 286.622 246.495 285.943 246.078C285.216 245.713 284.42 245.505 283.607 245.468C280.646 245.229 277.676 245.79 275.006 247.09C272.343 248.385 269.928 250.136 267.869 252.264C266.844 253.289 267.149 254.466 266.698 255.845" fill="#263238"/>
<path d="M167.75 177.056C166.967 172.402 167.062 167.643 168.03 163.025C168.44 160.766 169.267 158.604 170.47 156.65C170.88 155.921 171.504 155.335 172.258 154.972C172.805 154.79 173.392 154.764 173.953 154.897C174.514 155.029 175.028 155.315 175.436 155.722C175.957 156.265 176.357 156.912 176.609 157.621C176.862 158.33 176.961 159.084 176.9 159.834C176.791 161.334 176.424 162.803 175.814 164.178C173.929 168.997 170.934 172.999 167.731 177.05" fill="#263238"/>
<path d="M262.3 194.692C263.404 195.479 287.92 248.292 287.92 248.292C285.948 247.449 283.765 247.236 281.668 247.682L280.338 248.035C277.958 248.675 275.701 249.706 273.658 251.086L266.662 255.82C266.385 255.661 266.15 255.437 265.977 255.169C265.804 254.9 265.698 254.594 265.667 254.276V254.075L246.66 221.449L262.3 194.692Z" fill="#7900F8"/>
<path d="M170.245 110.615L176.784 147.786C178.888 152.788 203.429 183.096 203.429 183.096L195.316 209.17L163.083 165.093C160.09 161.893 158.462 157.652 158.545 153.27L159.802 113.556L170.245 110.615Z" fill="#FFBE9D"/>
<path d="M205.045 177.27L221.875 178.545L236.552 180.82C236.552 180.82 262.3 187.586 262.3 190.404C262.3 191.343 255.273 213.726 251.32 227.135C250.351 230.392 249.561 233.7 248.953 237.043L262.3 266.594H198.964V239.501C198.964 239.501 194.694 203.917 195.444 199.055C196.194 194.192 205.045 177.27 205.045 177.27Z" fill="#7900F8"/>
<path d="M162.26 95.5951C162.359 91.8091 162.746 88.0362 163.419 84.3091C163.51 83.7783 163.73 83.1378 164.261 83.089C164.919 83.0036 165.255 83.8516 165.34 84.5104C165.925 89.0053 165.737 93.5671 164.785 97.9987" fill="#EB996E"/>
<path d="M169.763 174.305C176.985 167.85 177.229 156.668 176.613 147.767C176.493 147.117 176.591 146.446 176.894 145.858C177.583 144.876 179.261 145.248 179.944 146.236C180.627 147.224 180.554 148.524 180.517 149.719C180.889 148.707 182.475 148.713 183.22 149.494C183.964 150.275 184.092 151.452 184.177 152.544L184.415 155.521L205.515 175.653C205.515 175.653 206.095 173.823 207.644 174.878C209.193 175.933 210.194 178.16 210.194 178.16L195.328 210.609L167.738 177.056C168.268 176.041 168.951 175.113 169.763 174.305Z" fill="#7900F8"/>
<path d="M198.396 196.761C196.195 199.569 194.551 202.772 193.553 206.198C192.558 209.647 192.667 213.32 193.864 216.703C194.79 219.044 196.306 221.106 198.266 222.686C200.226 224.266 202.561 225.311 205.045 225.72" fill="#7900F8"/>
<path d="M266.686 255.826L265.887 266.594H281.521L285.181 247.53C280.419 247.264 275.721 248.736 271.962 251.672L266.686 255.826Z" fill="#FFBE9D"/>
<path d="M177.113 171.919C177.202 171.623 177.316 171.335 177.455 171.059C177.699 170.522 178.028 169.729 178.4 168.741C178.772 167.752 179.169 166.557 179.541 165.215C179.928 163.75 180.235 162.265 180.462 160.767C180.673 159.269 180.801 157.76 180.846 156.247C180.846 154.85 180.846 153.593 180.761 152.538C180.676 151.482 180.596 150.634 180.517 150.049C180.464 149.744 180.436 149.436 180.432 149.127C180.531 149.421 180.6 149.723 180.639 150.03C180.797 150.854 180.913 151.684 180.987 152.519C181.106 153.76 181.157 155.007 181.139 156.253C181.093 159.309 180.65 162.346 179.822 165.288C179.481 166.487 179.074 167.666 178.602 168.82C178.199 169.808 177.839 170.589 177.559 171.114C177.431 171.393 177.282 171.662 177.113 171.919Z" fill="#263238"/>
<path d="M181.707 166.252C181.906 165.727 182.134 165.214 182.39 164.715C183.458 162.239 184.077 159.593 184.22 156.9C184.219 156.339 184.249 155.779 184.311 155.222C184.431 155.775 184.476 156.341 184.445 156.906C184.424 159.642 183.8 162.34 182.615 164.806C182.382 165.329 182.076 165.815 181.707 166.252Z" fill="#263238"/>
<path d="M206.485 183.126C206.436 183.095 206.692 182.699 206.839 181.979C207.01 181.038 206.955 180.07 206.68 179.154C206.39 178.233 206.038 177.332 205.625 176.458C205.432 176.096 205.289 175.711 205.198 175.311C205.439 175.637 205.644 175.989 205.808 176.36C206.291 177.22 206.681 178.128 206.973 179.069C207.265 180.033 207.288 181.058 207.04 182.034C206.963 182.443 206.771 182.822 206.485 183.126Z" fill="#263238"/>
<path d="M202.819 226.098C202.723 226.058 202.633 226.007 202.55 225.945L201.83 225.47C201.22 225.049 200.311 224.433 199.25 223.597C197.995 222.63 196.848 221.532 195.828 220.321C194.573 218.821 193.668 217.06 193.181 215.166C192.715 213.271 192.595 211.308 192.827 209.37C193.014 207.799 193.363 206.251 193.87 204.752C194.206 203.742 194.594 202.75 195.035 201.781C195.194 201.44 195.316 201.171 195.407 201C195.447 200.905 195.499 200.815 195.56 200.732C195.444 201.105 195.308 201.472 195.151 201.83C194.876 202.525 194.48 203.538 194.083 204.819C193.615 206.312 193.292 207.846 193.12 209.401C192.907 211.303 193.031 213.227 193.486 215.086C193.96 216.938 194.837 218.663 196.054 220.138C197.052 221.342 198.17 222.441 199.39 223.42C200.427 224.274 201.3 224.914 201.904 225.372L202.587 225.897C202.745 226.019 202.825 226.086 202.819 226.098Z" fill="#263238"/>
<path d="M237.375 232.131C237.291 232.176 237.2 232.209 237.107 232.229C236.924 232.278 236.661 232.369 236.314 232.436C235.331 232.65 234.33 232.77 233.325 232.796C229.973 232.899 226.666 231.996 223.832 230.203C220.998 228.41 218.765 225.81 217.422 222.737C217.013 221.818 216.692 220.862 216.464 219.882C216.379 219.534 216.348 219.271 216.312 219.076C216.291 218.982 216.281 218.886 216.281 218.79C216.406 219.134 216.508 219.487 216.586 219.845C217.557 223.528 219.731 226.781 222.763 229.087C225.795 231.393 229.51 232.619 233.319 232.571C234.314 232.566 235.308 232.48 236.289 232.314C236.648 232.234 237.01 232.173 237.375 232.131Z" fill="#263238"/>
<path d="M247.08 244.022C246.995 244.022 247.8 240.624 248.91 236.487C250.021 232.351 250.936 229.014 251.015 229.039C251.094 229.063 250.295 232.431 249.215 236.567C248.136 240.703 247.166 244.022 247.08 244.022Z" fill="#263238"/>
<path d="M255.59 236.829C255.517 236.872 253.064 232.864 250.1 227.873C247.135 222.883 244.817 218.802 244.897 218.759C244.976 218.716 247.422 222.718 250.387 227.709C253.351 232.699 255.694 236.78 255.59 236.829Z" fill="#263238"/>
<path d="M279.007 246.706C279.007 246.767 278.117 246.84 276.726 247.194C275.914 247.4 275.117 247.663 274.341 247.981C273.395 248.381 272.481 248.855 271.608 249.396C270.747 249.951 269.931 250.573 269.168 251.257C268.546 251.825 267.965 252.437 267.43 253.087C266.515 254.191 266.063 254.966 266.008 254.917C266.082 254.72 266.178 254.531 266.295 254.356C266.578 253.857 266.898 253.379 267.253 252.928C267.774 252.254 268.347 251.622 268.967 251.037C269.734 250.327 270.563 249.686 271.443 249.122C272.332 248.57 273.267 248.096 274.237 247.706C275.029 247.394 275.845 247.147 276.677 246.968C277.235 246.839 277.802 246.753 278.373 246.712C278.583 246.68 278.797 246.677 279.007 246.706Z" fill="#263238"/>
<path d="M281.997 243.033C281.997 243.1 281.015 242.978 279.447 243.113C278.532 243.195 277.627 243.354 276.739 243.589C274.562 244.167 272.527 245.186 270.761 246.584C270.042 247.155 269.373 247.786 268.76 248.469C267.717 249.64 267.229 250.494 267.174 250.464C267.256 250.248 267.365 250.043 267.497 249.854C267.628 249.618 267.775 249.392 267.936 249.177C268.139 248.881 268.357 248.596 268.589 248.323C269.189 247.607 269.854 246.949 270.578 246.358C271.472 245.641 272.437 245.015 273.457 244.491C274.483 243.989 275.558 243.592 276.665 243.308C277.573 243.08 278.5 242.939 279.435 242.887C279.79 242.869 280.147 242.869 280.502 242.887C280.773 242.888 281.044 242.904 281.314 242.936C281.545 242.939 281.774 242.972 281.997 243.033Z" fill="#263238"/>
<g opacity="0.3">
<path opacity="0.3" d="M216.934 220.089C215.501 222.81 216.696 226.129 218.008 228.917C219.026 231.076 220.161 233.267 222.015 234.773C222.927 235.518 223.982 236.067 225.115 236.384C226.248 236.702 227.435 236.782 228.601 236.62C229.766 236.457 230.886 236.055 231.889 235.439C232.892 234.823 233.756 234.007 234.429 233.041C230.54 232.983 226.76 231.75 223.586 229.504C220.411 227.258 217.99 224.103 216.641 220.455" fill="black"/>
</g>
<g opacity="0.3">
<path opacity="0.3" d="M244.939 218.759C243.841 221.376 244.671 224.957 245.817 227.55C246.964 230.143 248.184 233.041 247.263 235.731C247.026 236.209 246.902 236.735 246.903 237.268C246.964 237.793 247.513 238.299 248.007 238.055C248.263 237.876 248.44 237.605 248.501 237.299C249.368 234.688 250.236 232.079 251.106 229.472" fill="black"/>
</g>
<path d="M187.233 184.297C187.332 182.659 187.535 181.029 187.843 179.417C188.051 177.796 188.362 176.19 188.777 174.609C188.685 176.248 188.481 177.879 188.167 179.49C187.961 181.111 187.65 182.717 187.233 184.297Z" fill="#FAFAFA"/>
<path d="M180.81 182.949C180.731 182.998 179.681 181.534 178.23 179.85C176.778 178.166 175.497 176.904 175.558 176.836C176.652 177.636 177.632 178.58 178.474 179.643C179.392 180.639 180.178 181.75 180.81 182.949Z" fill="#FAFAFA"/>
<path d="M186.324 167.234C186.141 167.627 185.909 167.996 185.635 168.332C185.171 168.985 184.494 169.857 183.707 170.772C182.921 171.687 182.164 172.511 181.597 173.072C181.312 173.398 180.986 173.685 180.627 173.926C180.56 173.865 181.896 172.419 183.463 170.565C185.031 168.71 186.251 167.155 186.324 167.234Z" fill="#FAFAFA"/>
<path d="M184.171 159.554C184.079 159.59 183.732 158.815 183.061 158.041C182.39 157.266 181.67 156.821 181.719 156.729C182.353 156.912 182.909 157.3 183.299 157.833C183.768 158.297 184.074 158.901 184.171 159.554Z" fill="#FAFAFA"/>
<path d="M178.608 164.287C178.11 164.522 177.572 164.661 177.022 164.696C176.489 164.835 175.933 164.868 175.387 164.794C176.418 164.42 177.512 164.248 178.608 164.287Z" fill="#FAFAFA"/>
<path d="M192.644 171.065C192.658 170.116 192.59 169.167 192.443 168.228C192.19 167.312 191.857 166.42 191.448 165.562C192.14 166.273 192.594 167.181 192.748 168.161C193.009 169.117 192.972 170.13 192.644 171.065Z" fill="#FAFAFA"/>
<path d="M200.141 179.13C199.016 177.334 197.505 175.811 195.718 174.671C196.727 175.062 197.642 175.662 198.404 176.43C199.166 177.198 199.758 178.118 200.141 179.13Z" fill="#FAFAFA"/>
<path d="M188.105 193.125C186.289 193.806 184.278 193.737 182.512 192.936C182.542 192.844 183.732 193.229 185.299 193.271C186.867 193.314 188.081 193.034 188.105 193.125Z" fill="#FAFAFA"/>
<path d="M193.754 196.022C193.669 195.986 194.145 194.583 194.541 192.801C194.938 191.02 195.114 189.544 195.206 189.556C195.269 190.672 195.149 191.791 194.852 192.868C194.658 193.972 194.288 195.037 193.754 196.022Z" fill="#FAFAFA"/>
<path d="M206.094 196.492C205.13 195.676 204.238 194.778 203.429 193.808C202.536 192.909 201.72 191.938 200.989 190.904C201.95 191.724 202.84 192.624 203.648 193.594C204.54 194.493 205.358 195.462 206.094 196.492Z" fill="#FAFAFA"/>
<path d="M211.841 210.749C211.109 210.218 210.442 209.604 209.852 208.919C209.191 208.304 208.601 207.617 208.095 206.869C208.827 207.4 209.494 208.014 210.084 208.699C210.751 209.308 211.341 209.997 211.841 210.749Z" fill="#FAFAFA"/>
<path d="M201.16 212.11C200.458 212.856 199.633 213.475 198.72 213.94C197.861 214.512 196.906 214.925 195.901 215.16C195.901 215.075 197.121 214.55 198.561 213.69C200.001 212.83 201.099 212.036 201.16 212.11Z" fill="#FAFAFA"/>
<path d="M206.076 225.671C205.984 225.671 206.35 224.048 206.533 222.041C206.716 220.034 206.662 218.381 206.753 218.381C206.977 219.588 207.01 220.824 206.851 222.041C206.79 223.285 206.528 224.511 206.076 225.671Z" fill="#FAFAFA"/>
<path d="M224.565 214.648C223.557 214.031 222.664 213.244 221.924 212.323C221.108 211.472 220.449 210.482 219.978 209.401C220.057 209.346 220.893 210.67 222.162 212.116C223.431 213.562 224.626 214.568 224.565 214.648Z" fill="#FAFAFA"/>
<path d="M231.318 220.4C231.245 220.346 232.172 219.077 233.209 217.448C234.246 215.819 235.009 214.452 235.088 214.495C234.692 215.604 234.148 216.655 233.471 217.619C232.886 218.641 232.161 219.577 231.318 220.4Z" fill="#FAFAFA"/>
<path d="M230.329 206.32C228.247 205.975 226.203 205.423 224.229 204.673C225.281 204.799 226.319 205.023 227.328 205.344C228.359 205.568 229.365 205.895 230.329 206.32Z" fill="#FAFAFA"/>
<path d="M225.407 231.1C225.299 230.14 225.299 229.17 225.407 228.209C225.415 227.242 225.525 226.279 225.736 225.335C225.846 226.296 225.846 227.266 225.736 228.227C225.73 229.194 225.62 230.157 225.407 231.1Z" fill="#FAFAFA"/>
<path d="M229.665 239.586C229.984 238.601 230.241 237.597 230.433 236.579C230.518 235.546 230.534 234.509 230.482 233.474C230.797 234.489 230.887 235.56 230.745 236.614C230.604 237.668 230.235 238.678 229.665 239.574V239.586Z" fill="#FAFAFA"/>
<path d="M218.63 237.714C218.319 235.606 218.732 233.456 219.801 231.613C219.886 231.65 219.325 232.937 219.008 234.627C218.691 236.317 218.721 237.708 218.63 237.714Z" fill="#FAFAFA"/>
<path d="M208.565 242.014C207.57 241.324 206.613 240.58 205.698 239.788C204.718 239.078 203.775 238.318 202.874 237.512C203.97 238.059 204.995 238.739 205.924 239.538C206.898 240.257 207.784 241.088 208.565 242.014Z" fill="#FAFAFA"/>
<path d="M215.379 230.045C213.044 231.527 210.596 232.822 208.059 233.919C209.207 233.129 210.414 232.427 211.67 231.821C212.858 231.134 214.098 230.541 215.379 230.045Z" fill="#FAFAFA"/>
<path d="M236.552 256.906C236.422 256.948 236.29 256.981 236.155 257.004C235.893 257.052 235.509 257.15 235.009 257.217C233.596 257.433 232.167 257.525 230.739 257.492C227.048 257.438 223.411 256.602 220.067 255.04C216.724 253.477 213.749 251.223 211.341 248.426C209.941 246.816 208.743 245.042 207.772 243.143C207.11 241.87 206.563 240.541 206.137 239.172C205.973 238.69 205.893 238.305 205.82 238.049C205.779 237.918 205.753 237.783 205.741 237.646C205.799 237.77 205.846 237.899 205.881 238.031C205.973 238.281 206.07 238.641 206.253 239.135C207.423 242.479 209.224 245.567 211.56 248.231C213.975 250.963 216.922 253.174 220.221 254.727C223.519 256.281 227.1 257.145 230.745 257.266C232.17 257.319 233.598 257.262 235.015 257.095C235.521 257.046 235.905 256.967 236.168 256.943C236.294 256.916 236.423 256.904 236.552 256.906Z" fill="#263238"/>
<path d="M218.325 253.746C218.117 252.778 218.217 251.769 218.612 250.86C218.91 249.915 219.499 249.089 220.295 248.5C219.757 249.28 219.293 250.109 218.911 250.976C218.631 251.88 218.435 252.807 218.325 253.746Z" fill="#FAFAFA"/>
<path d="M213.305 251.647C212.725 252.096 212.194 252.603 211.719 253.16C211.322 253.775 210.987 254.427 210.718 255.106C210.739 254.333 210.998 253.585 211.462 252.966C211.925 252.346 212.569 251.886 213.305 251.647Z" fill="#FAFAFA"/>
<path d="M232.611 263.141C231.613 263.061 230.648 262.742 229.799 262.211C228.95 261.68 228.24 260.953 227.731 260.09C229.058 261.523 230.742 262.576 232.611 263.141Z" fill="#FAFAFA"/>
<path d="M235.612 246.242C235.484 247.139 235.105 247.981 234.519 248.672C233.933 249.363 233.164 249.874 232.3 250.147C233.013 249.654 233.675 249.092 234.276 248.469C234.797 247.775 235.245 247.028 235.612 246.242Z" fill="#FAFAFA"/>
<path d="M244.146 258.84C244.073 258.779 244.878 257.76 245.622 256.357C246.366 254.954 246.763 253.716 246.842 253.746C246.497 255.686 245.549 257.469 244.134 258.84H244.146Z" fill="#FAFAFA"/>
<path d="M255.425 260.493C255.462 260.585 254.352 261.024 253.235 261.945C252.119 262.866 251.448 263.855 251.369 263.775C251.719 262.934 252.296 262.205 253.034 261.671C253.706 261.064 254.534 260.656 255.425 260.493Z" fill="#FAFAFA"/>
<path d="M246.824 246.053C246.726 246.083 246.214 244.302 245.073 242.325C243.932 240.349 242.712 238.958 242.792 238.897C243.127 239.133 243.421 239.421 243.664 239.751C244.948 241.251 245.926 242.988 246.543 244.863C246.697 245.243 246.791 245.644 246.824 246.053Z" fill="#FAFAFA"/>
<path d="M248.508 227.892C246.609 228.547 244.646 228.999 242.652 229.24C244.551 228.586 246.514 228.134 248.508 227.892Z" fill="#FAFAFA"/>
<path d="M243.317 222.462C242.62 221.815 241.994 221.095 241.45 220.315C240.829 219.596 240.287 218.813 239.833 217.979C240.537 218.618 241.163 219.336 241.7 220.12C242.327 220.836 242.869 221.622 243.317 222.462Z" fill="#FAFAFA"/>
<path d="M256.2 219.204C254.223 219.155 252.278 218.694 250.49 217.85C251.456 218.015 252.411 218.237 253.351 218.515C254.314 218.687 255.265 218.917 256.2 219.204Z" fill="#FAFAFA"/>
<path d="M265.35 219.04C265.612 218.177 265.924 217.329 266.283 216.502C266.54 215.635 266.852 214.786 267.216 213.958C267.167 214.871 266.96 215.769 266.606 216.612C266.334 217.489 265.909 218.311 265.35 219.04Z" fill="#FAFAFA"/>
<path d="M263.264 231.436C261.372 231.014 259.663 230.001 258.384 228.544C258.445 228.471 259.409 229.313 260.745 230.1C262.08 230.887 263.294 231.345 263.264 231.436Z" fill="#FAFAFA"/>
<path d="M269.205 231.058C269.327 229.833 269.552 228.621 269.876 227.434C270.097 226.228 270.419 225.042 270.84 223.89C270.497 226.324 269.944 228.725 269.187 231.064L269.205 231.058Z" fill="#FAFAFA"/>
<path d="M264.246 244.918C262.723 243.195 261.363 241.335 260.183 239.361C260.982 240.189 261.705 241.087 262.343 242.045C263.064 242.942 263.701 243.904 264.246 244.918Z" fill="#FAFAFA"/>
<path d="M272.713 239.617C272.627 239.66 272.072 238.555 271.194 237.323C270.315 236.091 269.467 235.194 269.534 235.127C270.302 235.664 270.955 236.349 271.456 237.14C272.039 237.872 272.466 238.714 272.713 239.617Z" fill="#FAFAFA"/>
<path d="M280.655 238.427C279.96 237.611 279.308 236.757 278.703 235.871C278.01 235.055 277.358 234.204 276.751 233.321C278.374 234.752 279.7 236.486 280.655 238.427Z" fill="#FAFAFA"/>
<path d="M278.77 243.692C278.661 242.959 278.415 242.253 278.044 241.612C277.597 241.019 277.045 240.514 276.415 240.123C276.415 240.086 276.696 240.123 277.08 240.312C277.576 240.576 277.996 240.963 278.3 241.435C278.61 241.905 278.797 242.447 278.843 243.009C278.904 243.411 278.825 243.692 278.77 243.692Z" fill="#FAFAFA"/>
<path d="M272.597 250.909C272.548 250.909 272.566 250.744 272.517 250.531C272.46 250.257 272.311 250.009 272.096 249.829C271.871 249.663 271.596 249.579 271.316 249.591C271.096 249.591 270.956 249.646 270.931 249.591C270.907 249.537 271.023 249.427 271.285 249.354C271.458 249.308 271.638 249.304 271.813 249.34C271.987 249.376 272.151 249.452 272.292 249.562C272.432 249.672 272.545 249.812 272.623 249.973C272.7 250.134 272.739 250.31 272.737 250.488C272.731 250.781 272.633 250.921 272.597 250.909Z" fill="#FAFAFA"/>
<path d="M209.132 262.445C207.993 262.006 206.957 261.335 206.092 260.473C205.226 259.612 204.55 258.58 204.105 257.443C205.35 259.5 207.074 261.225 209.132 262.47V262.445Z" fill="#FAFAFA"/>
<path d="M170.306 111.03C169.324 101.751 167.549 93.0209 167.067 83.925C167.086 83.6969 167.057 83.4673 166.983 83.251C166.908 83.0346 166.789 82.8361 166.634 82.6682C166.501 82.5906 166.354 82.5408 166.201 82.5218C166.048 82.5029 165.893 82.5152 165.746 82.558C165.598 82.6008 165.46 82.6732 165.341 82.7708C165.223 82.8684 165.125 82.9892 165.054 83.1258C164.788 83.6968 164.682 84.3295 164.749 84.956C164.759 89.7932 163.934 94.5958 162.309 99.1519C161.266 102.111 159.869 104.947 159.088 107.979C158.307 111.011 159.777 112.042 161.144 114.867" fill="#FFBE9D"/>
<path d="M161.162 114.855C159.954 113.928 159.016 112.693 158.449 111.279C157.881 109.866 157.704 108.326 157.935 106.82C158.246 104.99 159.155 103.331 159.875 101.623C160.595 99.9144 161.15 98.0171 160.711 96.2175C160.468 95.5495 160.304 94.8554 160.223 94.1494C160.223 93.4417 160.68 92.6487 161.388 92.6182C161.655 92.6398 161.914 92.7232 162.144 92.8619C162.373 93.0006 162.568 93.1907 162.711 93.4173C163.901 94.8876 164.853 99.1823 164.255 102.391" fill="#FFBE9D"/>
<path d="M164.254 102.392C164.254 102.392 164.315 101.897 164.352 101.007C164.39 99.7504 164.286 98.4938 164.041 97.261C163.877 96.4119 163.632 95.5805 163.309 94.7781C163.139 94.3415 162.909 93.9309 162.626 93.558C162.499 93.3579 162.332 93.1859 162.136 93.0527C161.939 92.9194 161.718 92.8277 161.485 92.7832C161.245 92.7946 161.016 92.8843 160.832 93.0386C160.648 93.1928 160.519 93.4031 160.466 93.6373C160.336 94.1574 160.37 94.7053 160.564 95.2051C160.769 95.7633 160.912 96.3422 160.991 96.9316C161.05 97.5419 161.027 98.1574 160.924 98.7617C160.497 101.239 159.179 103.24 158.484 105.222C158.141 106.149 157.958 107.126 157.941 108.114C157.937 108.974 158.065 109.83 158.319 110.652C158.689 111.851 159.313 112.956 160.149 113.891C160.759 114.544 161.156 114.831 161.137 114.861C161.028 114.806 160.926 114.738 160.832 114.66C160.557 114.45 160.298 114.22 160.058 113.97C159.166 113.051 158.498 111.938 158.106 110.719C157.828 109.878 157.684 108.999 157.679 108.114C157.684 107.094 157.863 106.084 158.209 105.125C158.88 103.099 160.18 101.098 160.582 98.7129C160.686 98.1333 160.709 97.5419 160.649 96.956C160.576 96.3833 160.439 95.8206 160.241 95.2783C160.03 94.718 160 94.1057 160.155 93.5275C160.246 93.2388 160.413 92.9798 160.637 92.7771C160.75 92.6723 160.882 92.5917 161.027 92.5403C161.172 92.4889 161.326 92.4677 161.479 92.4782C161.758 92.5152 162.027 92.6109 162.267 92.7592C162.506 92.9075 162.712 93.1049 162.87 93.3384C163.166 93.7422 163.405 94.1858 163.577 94.6561C163.9 95.4755 164.137 96.3259 164.285 97.1939C164.516 98.4447 164.588 99.7197 164.498 100.988C164.477 101.333 164.432 101.675 164.364 102.013C164.346 102.144 164.309 102.271 164.254 102.392Z" fill="#EB996E"/>
<path d="M244 151.934C244.199 152.807 244.672 153.593 245.349 154.179C246.025 154.765 246.871 155.119 247.764 155.192C248.658 155.235 249.548 155.051 250.352 154.656C251.155 154.262 251.845 153.669 252.357 152.934C253.37 151.44 253.778 149.618 253.498 147.834C253.15 145.266 251.442 142.795 248.965 142.033C246.489 141.27 243.408 142.643 242.725 145.132L239.87 149.115L244 151.934Z" fill="#263238"/>
<path d="M240.627 144.107C240.903 141.899 240.734 139.658 240.129 137.518C239.523 135.377 238.494 133.379 237.101 131.644C235.709 129.908 233.982 128.47 232.024 127.415C230.065 126.359 227.915 125.708 225.7 125.5C216.849 124.658 208.974 131.253 207.65 140.05C206.485 147.761 205.484 155.545 205.521 158.352C205.631 166.892 210.614 170.199 212.64 171.163C213.367 171.425 214.119 171.611 214.884 171.718C214.892 171.719 214.899 171.722 214.905 171.726C214.911 171.731 214.916 171.736 214.92 171.742C214.924 171.749 214.927 171.756 214.928 171.763C214.929 171.77 214.929 171.778 214.927 171.785L213.036 181.546C212.176 187.958 215.757 193.68 222.156 194.613C228.555 195.547 233.599 190.624 234.581 184.206L240.627 144.107Z" fill="#FFBE9D"/>
<path d="M209.12 145.034C209.26 145.236 210.383 144.632 211.828 144.845C213.274 145.059 214.22 145.937 214.403 145.779C214.494 145.712 214.366 145.376 213.957 144.973C213.396 144.449 212.687 144.11 211.926 144.003C211.175 143.894 210.409 144.024 209.736 144.375C209.23 144.65 209.047 144.943 209.12 145.034Z" fill="#263238"/>
<path d="M221.954 147.816C222.095 148.017 223.223 147.413 224.663 147.627C226.102 147.84 227.06 148.719 227.243 148.56C227.328 148.493 227.206 148.157 226.792 147.749C226.231 147.227 225.524 146.891 224.766 146.785C224.015 146.675 223.249 146.806 222.576 147.157C222.082 147.431 221.887 147.724 221.954 147.816Z" fill="#263238"/>
<path d="M216.964 154.636C216.238 154.289 215.472 154.032 214.683 153.874C214.317 153.782 213.982 153.654 213.957 153.398C213.981 153.013 214.121 152.645 214.36 152.343L215.86 149.695C217.953 145.919 219.52 142.795 219.374 142.71C219.228 142.624 217.398 145.62 215.305 149.42L213.847 152.086C213.555 152.501 213.413 153.002 213.445 153.508C213.483 153.642 213.551 153.766 213.643 153.872C213.734 153.977 213.848 154.061 213.975 154.118C214.171 154.201 214.376 154.261 214.585 154.295C215.361 154.509 216.16 154.624 216.964 154.636Z" fill="#263238"/>
<path d="M214.939 171.779C214.939 171.779 220.429 173.048 228.024 169.875C228.024 169.875 224.754 176.922 214.433 174.414L214.939 171.779Z" fill="#EB996E"/>
<path d="M217.068 158.205C217.392 157.908 217.784 157.696 218.211 157.59C218.637 157.483 219.083 157.485 219.508 157.595C219.822 157.673 220.118 157.812 220.377 158.005C220.637 158.198 220.856 158.44 221.021 158.718C221.18 158.986 221.251 159.296 221.226 159.606C221.201 159.917 221.08 160.212 220.881 160.45C220.613 160.677 220.282 160.818 219.933 160.854C219.583 160.89 219.231 160.819 218.923 160.652C218.275 160.314 217.702 159.85 217.239 159.285C217.09 159.147 216.97 158.982 216.885 158.797C216.843 158.71 216.829 158.611 216.844 158.515C216.859 158.419 216.903 158.33 216.971 158.26" fill="#EB996E"/>
<path d="M221.064 156.253C220.832 156.204 220.6 157.772 219.1 158.693C217.599 159.614 215.952 159.194 215.909 159.413C215.873 159.511 216.239 159.773 216.94 159.895C217.855 160.04 218.792 159.859 219.588 159.383C220.351 158.924 220.906 158.187 221.137 157.327C221.289 156.674 221.174 156.259 221.064 156.253Z" fill="#263238"/>
<path d="M222.949 143.119C223.034 143.534 224.504 143.558 226.163 144.009C227.823 144.461 229.134 145.12 229.409 144.802C229.531 144.65 229.348 144.247 228.853 143.784C228.184 143.211 227.393 142.797 226.54 142.575C225.687 142.353 224.795 142.328 223.931 142.503C223.26 142.661 222.918 142.923 222.949 143.119Z" fill="#263238"/>
<path d="M210.578 140.587C210.779 140.953 211.828 140.758 213.018 140.916C214.207 141.075 215.195 141.453 215.458 141.148C215.586 140.995 215.458 140.642 215.073 140.269C214.534 139.81 213.87 139.521 213.166 139.44C212.462 139.36 211.75 139.492 211.121 139.818C210.675 140.093 210.486 140.41 210.578 140.587Z" fill="#263238"/>
<path d="M205.979 138.141C207.742 140.831 213.341 139.166 216.721 137.317C218.486 138.443 220.621 138.836 222.672 138.412C224.722 137.989 226.526 136.782 227.701 135.048C229.634 137.488 233.569 136.695 235.021 133.919C236.473 131.143 235.631 127.318 233.679 124.89C231.727 122.462 228.835 121.23 225.993 120.712C219.252 119.491 211.914 122.078 207.882 128.172C206.021 130.985 204.905 134.773 206.009 138.141" fill="#263238"/>
<path d="M224.608 121.669C224.608 121.791 223.016 121.486 220.515 121.901C217.266 122.441 214.288 124.044 212.048 126.458C209.939 128.985 208.545 132.031 208.01 135.279C207.824 136.633 207.753 138.001 207.796 139.367C207.666 139.014 207.59 138.644 207.57 138.269C207.464 137.254 207.48 136.229 207.619 135.218C208.061 131.844 209.463 128.668 211.657 126.068C213.977 123.556 217.101 121.935 220.49 121.486C221.501 121.35 222.525 121.334 223.54 121.437C223.906 121.459 224.266 121.538 224.608 121.669Z" fill="#455A64"/>
<path d="M215.494 134.211C215.394 133.902 215.348 133.578 215.36 133.254C215.328 132.369 215.421 131.484 215.635 130.624C215.961 129.183 216.579 127.824 217.45 126.631C218.321 125.437 219.427 124.435 220.701 123.685C221.974 122.935 223.387 122.454 224.853 122.271C226.319 122.088 227.807 122.207 229.225 122.62C230.082 122.855 230.902 123.204 231.665 123.657C231.96 123.81 232.222 124.017 232.44 124.267C231.376 123.764 230.27 123.356 229.134 123.047C226.371 122.344 223.442 122.76 220.986 124.207C218.529 125.654 216.744 128.013 216.019 130.771C215.421 132.808 215.61 134.211 215.494 134.211Z" fill="#455A64"/>
<path d="M231.665 131.283C231.004 133.671 230.623 136.128 230.531 138.604C230.439 141.094 231.213 143.538 232.721 145.522C235.075 148.359 239.004 149.225 242.627 149.914C244.565 145.078 245.149 139.806 244.317 134.663C243.902 132.168 243.097 129.624 241.34 127.806C240.034 126.517 238.337 125.699 236.516 125.478C234.694 125.257 232.851 125.647 231.275 126.586" fill="#263238"/>
<path d="M233.679 143.094C232.727 145.156 232.794 147.542 233.124 149.805C233.453 152.068 234.026 154.283 234.002 156.552C233.978 158.821 233.258 161.231 231.477 162.653C230.936 163.013 230.43 163.421 229.964 163.873C229.734 164.102 229.58 164.396 229.523 164.716C229.466 165.036 229.509 165.366 229.647 165.66C229.988 166.209 231.019 166.197 231.165 165.569L231.074 165.727C230.984 165.879 230.936 166.052 230.934 166.229C230.932 166.405 230.976 166.579 231.063 166.733C231.149 166.887 231.275 167.015 231.427 167.106C231.579 167.196 231.751 167.244 231.928 167.246C232.551 167.216 233.162 167.059 233.722 166.784C234.282 166.509 234.78 166.123 235.185 165.648C236.35 164.3 236.814 162.488 237.119 160.768C238.058 155.381 237.875 149.787 239.364 144.534" fill="#263238"/>
<path d="M212.994 178.471C213.414 180.306 214.224 182.03 215.369 183.524C216.513 185.018 217.966 186.249 219.629 187.132C221.291 188.015 223.124 188.53 225.003 188.642C226.882 188.754 228.763 188.46 230.519 187.781C233.679 186.561 236.229 184.181 238.687 181.857C239.127 184.503 239.006 187.212 238.331 189.808C237.657 192.404 236.444 194.83 234.772 196.927C233.1 199.024 231.006 200.747 228.626 201.982C226.245 203.218 223.631 203.939 220.954 204.1C216.91 204.344 212.567 203.111 210.023 199.957C208.248 197.761 207.534 194.851 207.583 192.027C207.706 189.198 208.245 186.402 209.181 183.73C209.901 181.424 211.042 178.85 213.372 178.209" fill="#7900F8"/>
<path d="M241.932 150.073C244.372 151.385 245.677 154.13 246.147 156.839C246.617 159.547 246.379 162.329 246.495 165.068C246.611 167.808 247.135 170.687 248.874 172.816C250.704 175.086 253.601 176.159 256.194 177.544C261.879 180.594 266.564 185.798 268.272 192.033C269.98 198.268 268.43 205.454 263.764 209.938C259.494 214.001 253.333 215.428 247.453 215.428C243.262 215.428 238.656 214.526 236.039 211.25C233.423 207.974 233.599 203.38 234.514 199.341C235.429 195.303 237.107 191.38 237.174 187.238C236.548 189.802 235.456 192.23 233.953 194.4C233.52 195.01 232.782 195.681 232.123 195.327C231.464 194.973 231.666 193.833 232.007 193.07C237.058 181.827 235.301 159.163 238.296 146.749" fill="#263238"/>
<path d="M237.772 148.798C237.924 148.75 243.823 147.633 243.06 153.465C242.298 159.297 236.606 157.333 236.619 157.168C236.631 157.004 237.772 148.798 237.772 148.798Z" fill="#FFBE9D"/>
<path d="M238.687 155.192C238.687 155.192 238.778 155.271 238.943 155.375C239.171 155.509 239.442 155.55 239.699 155.491C240.346 155.344 240.993 154.429 241.157 153.386C241.234 152.886 241.201 152.376 241.06 151.891C241.029 151.702 240.952 151.523 240.836 151.369C240.72 151.216 240.569 151.094 240.395 151.013C240.285 150.974 240.166 150.973 240.055 151.009C239.945 151.046 239.85 151.118 239.785 151.214C239.687 151.367 239.705 151.489 239.675 151.495C239.644 151.501 239.565 151.379 239.638 151.147C239.691 151.006 239.79 150.888 239.919 150.811C240.01 150.757 240.111 150.722 240.216 150.708C240.321 150.694 240.427 150.703 240.529 150.732C240.762 150.811 240.972 150.948 241.137 151.131C241.303 151.313 241.419 151.535 241.474 151.775C241.655 152.313 241.703 152.886 241.615 153.447C241.426 154.618 240.681 155.637 239.785 155.771C239.622 155.797 239.456 155.786 239.299 155.739C239.141 155.691 238.997 155.608 238.876 155.497C238.681 155.332 238.668 155.198 238.687 155.192Z" fill="#EB996E"/>
<path d="M206.967 191.038C207.253 190.416 207.583 189.814 207.955 189.239C208.805 187.831 209.51 186.341 210.059 184.791C210.593 183.24 210.772 181.589 210.584 179.96C210.465 179.291 210.311 178.629 210.12 177.977C210.235 178.126 210.324 178.293 210.383 178.471C210.582 178.939 210.725 179.428 210.81 179.929C211.066 181.594 210.913 183.296 210.364 184.889C209.811 186.462 209.067 187.962 208.15 189.355C207.809 189.891 207.54 190.318 207.314 190.605C207.089 190.892 206.985 191.05 206.967 191.038Z" fill="#263238"/>
<path d="M209.937 184.31C209.852 184.31 209.687 183.809 209.163 183.462C208.638 183.114 208.114 183.114 208.101 183.022C208.089 182.931 208.229 182.919 208.467 182.913C208.783 182.915 209.089 183.016 209.346 183.199C209.604 183.38 209.803 183.632 209.919 183.925C209.998 184.151 209.98 184.297 209.937 184.31Z" fill="#FAFAFA"/>
<path d="M213.707 184.297C213.25 183.784 212.748 183.312 212.206 182.888C211.606 182.552 210.972 182.278 210.315 182.071C210.679 182.02 211.048 182.044 211.403 182.139C211.757 182.234 212.088 182.4 212.377 182.626C213.022 182.988 213.499 183.588 213.707 184.297Z" fill="#FAFAFA"/>
<path d="M216.074 196.675C216.088 195.834 216.207 194.998 216.428 194.186C216.546 193.348 216.769 192.528 217.093 191.746C217.079 192.589 216.96 193.427 216.739 194.241C216.621 195.077 216.397 195.895 216.074 196.675Z" fill="#FAFAFA"/>
<path d="M225.59 198.542C225.437 196.791 225.493 195.028 225.755 193.29C225.915 195.041 225.86 196.805 225.59 198.542Z" fill="#FAFAFA"/>
<path d="M31.2993 225.653L21.8931 266.618L41.7852 266.679L50.9718 230.655L31.2993 225.653Z" fill="#B78876"/>
<path d="M128.985 175.323C127.094 172.792 124.922 170.358 123.928 167.356C123.446 165.904 123.257 164.367 122.744 162.927C122.232 161.487 121.299 160.084 119.871 159.541C118.444 158.998 117.358 159.541 116.431 160.566L109.605 180.533L113.539 195.87C117.468 194.986 122.384 193.936 126.057 192.283C129.729 190.63 132.157 187.982 132.413 183.962C132.59 180.808 130.876 177.861 128.985 175.323Z" fill="#263238"/>
<path d="M66.8684 171.797C66.8684 171.797 43.1394 182.126 40.1748 186.786C37.2102 191.447 27.4502 224.677 27.4502 224.677L52.4602 231.998L52.0332 266.594H113.338L112.832 205.588L105.146 171.877C105.146 171.877 91.61 171.004 90.3534 170.388C89.0968 169.772 66.8684 171.797 66.8684 171.797Z" fill="#37C9BE"/>
<path d="M151.195 87.2376C151.39 85.8406 150.408 84.3032 151.116 83.077C151.584 82.4451 152.253 81.9912 153.013 81.7898C153.381 81.6214 153.779 81.5281 154.184 81.5153C154.386 81.512 154.584 81.5681 154.754 81.6766C154.924 81.785 155.059 81.941 155.142 82.1253C155.185 82.3586 155.165 82.5995 155.082 82.822C154.999 83.0445 154.858 83.2403 154.672 83.3881C154.3 83.6803 153.988 84.0405 153.751 84.4496C153.585 85.4538 153.662 86.483 153.976 87.4511C154.789 89.5813 155.464 91.7617 155.996 93.9787" fill="#B78876"/>
<path d="M146.187 87.7134C146.272 85.5965 148.017 77.257 148.078 75.1401C149.511 75.5794 150.341 77.1045 150.609 78.5808C150.877 80.0572 150.737 81.5762 150.993 83.0525C151.335 85.0352 152.366 86.8227 153.403 88.543C154.44 90.2634 155.526 92.0142 155.995 93.9664C156.465 95.9186 158.234 100.994 156.855 102.458" fill="#B78876"/>
<path d="M145.79 101.989L137.305 142.301C137.006 144.131 105.146 171.919 105.146 171.919L111.435 197.047L152.915 156.461C155.91 153.258 157.54 149.016 157.46 144.632L156.752 106.808L145.79 101.989Z" fill="#B78876"/>
<path d="M144.338 87.9697L145.79 102.001L156.77 106.833C156.77 106.833 156.904 105.838 157.38 100.976C157.899 95.6198 152.14 93.3199 149.572 89.385C148.474 87.6952 148.761 84.5839 147.913 80.7283C147.815 80.283 147.205 77.5866 146.876 76.1407C146.703 75.3373 146.232 74.629 145.558 74.1581C145.058 73.8286 144.497 73.6639 144.088 74.1581C143.68 74.6522 144.338 87.9697 144.338 87.9697Z" fill="#B78876"/>
<path d="M151.194 104.319C152.414 103.264 152.707 101.372 152.25 99.8045C151.69 98.2607 150.806 96.8545 149.657 95.6806C148.51 94.5096 147.546 93.1729 146.796 91.7152C146.333 90.6659 146.113 89.5068 145.576 88.4758C145.04 87.4448 144.131 86.4992 142.984 86.4565C143.905 92.2582 143.881 95.6074 145.765 101.964" fill="#B78876"/>
<path d="M144.125 93.0817C144.125 93.0817 144.082 92.9231 144.015 92.6181C143.948 92.3131 143.832 91.8067 143.722 91.2882C143.46 90.068 143.112 88.5124 142.752 86.725L142.716 86.5541H142.893C143.268 86.5404 143.643 86.6013 143.994 86.7333C144.346 86.8652 144.668 87.0656 144.942 87.3228C145.78 88.1199 146.376 89.1369 146.663 90.2572C146.906 91.1279 147.226 91.9751 147.62 92.7889C147.919 93.3234 148.279 93.821 148.694 94.2713C148.845 94.4443 148.969 94.6399 149.06 94.8509C148.893 94.6961 148.738 94.5289 148.596 94.3506C148.142 93.9217 147.748 93.4333 147.425 92.8987C146.994 92.0823 146.643 91.2263 146.376 90.3426C146.092 89.2783 145.523 88.3121 144.729 87.5485C144.234 87.0842 143.577 86.8323 142.899 86.847L143.045 86.6639C143.783 90.3365 144.259 93.0878 144.125 93.0817Z" fill="#7C5142"/>
<path d="M149.06 89.513C148.617 87.6257 148.279 85.7153 148.047 83.7907C147.708 81.8812 147.474 79.9546 147.346 78.0195C147.792 79.9082 148.13 81.8208 148.358 83.7479C148.697 85.6554 148.931 87.5799 149.06 89.513Z" fill="#7C5142"/>
<path d="M152.555 89.9892C152.555 89.9892 152.598 90.0502 152.634 90.2027H152.543C152.089 88.8975 151.718 87.5649 151.432 86.213C151.17 85.0356 150.981 83.9619 150.865 83.1627C150.771 82.7447 150.734 82.3157 150.755 81.8877C150.847 81.8877 151.219 83.785 151.744 86.1581C152.164 88.0553 152.555 89.6537 152.634 90.1905H152.543C152.537 90.0624 152.537 89.9892 152.555 89.9892Z" fill="#7C5142"/>
<path d="M154.721 97.7184C154.672 97.7184 154.452 97.4012 154.013 96.9315C152.853 95.6985 151.278 94.938 149.59 94.7963C149.238 94.7994 148.885 94.7769 148.535 94.7291C148.873 94.5982 149.235 94.544 149.597 94.5705C150.476 94.5816 151.342 94.7856 152.133 95.1683C152.925 95.551 153.623 96.1029 154.178 96.785C154.427 97.0507 154.613 97.37 154.721 97.7184Z" fill="#7C5142"/>
<path d="M146.784 103.099C146.483 102.574 146.239 102.018 146.059 101.44C145.557 100.071 145.137 98.6735 144.802 97.2548C144.461 95.848 144.204 94.422 144.033 92.9845C143.934 92.3798 143.897 91.7665 143.924 91.1543C144.077 91.7372 144.187 92.3305 144.253 92.9296C144.436 94.0216 144.717 95.5345 145.107 97.1999C145.497 98.8654 145.937 100.323 146.272 101.385C146.482 101.944 146.654 102.517 146.784 103.099Z" fill="#7C5142"/>
<path d="M97.6978 172.645C98.2412 171.813 99.0844 171.222 100.052 170.995C101.02 170.767 102.038 170.922 102.895 171.425C107.372 167.765 111.953 164.214 116.431 160.572C114.967 167.893 113.991 178.099 117.267 184.798C117.267 184.798 121.396 192.472 127.972 191.301L122.104 197.047L112.85 205.631" fill="#37C9BE"/>
<path d="M96.2461 176.061C96.253 175.079 96.5524 174.121 97.1062 173.31C97.5738 172.444 98.2868 171.735 99.1558 171.272C97.7775 172.582 96.7731 174.235 96.2461 176.061Z" fill="#263238"/>
<path d="M101.083 180.576C100.829 180.169 100.655 179.718 100.571 179.246C100.307 178.114 100.276 176.941 100.478 175.797C100.681 174.654 101.112 173.562 101.748 172.59C101.99 172.174 102.309 171.808 102.687 171.51C102.73 171.547 102.376 171.962 101.943 172.73C101.38 173.703 100.99 174.766 100.79 175.872C100.599 176.98 100.599 178.113 100.79 179.221C100.943 180.014 101.132 180.527 101.083 180.576Z" fill="#263238"/>
<path d="M123.495 196.242C123.045 196.522 122.552 196.728 122.037 196.852C120.628 197.192 119.153 197.148 117.767 196.724C115.714 196.072 113.917 194.792 112.631 193.064C111.085 190.945 110.042 188.502 109.581 185.92C108.719 181.271 108.473 176.529 108.849 171.816C108.989 169.986 109.19 168.558 109.361 167.545C109.44 167.045 109.514 166.661 109.568 166.399C109.587 166.263 109.62 166.13 109.666 166.002C109.67 166.139 109.658 166.276 109.629 166.411L109.483 167.564C109.355 168.564 109.184 170.004 109.074 171.834C108.762 176.527 109.037 181.24 109.892 185.865C110.348 188.38 111.359 190.762 112.85 192.838C114.084 194.548 115.822 195.829 117.822 196.499C119.172 196.933 120.611 197.011 122 196.724C122.509 196.597 123.008 196.436 123.495 196.242Z" fill="#FAFAFA"/>
<path d="M52.5761 242.295C52.4907 242.295 52.4175 233.62 52.4175 222.926C52.4175 212.232 52.4907 203.557 52.5761 203.557C52.6615 203.557 52.7347 212.226 52.7347 222.926C52.7347 233.626 52.6676 242.295 52.5761 242.295Z" fill="#263238"/>
<path d="M52.0883 196.864C52.0212 196.864 52.0395 195.998 51.7406 194.65C51.5625 193.862 51.3071 193.094 50.9781 192.356C50.5681 191.459 50.063 190.608 49.4714 189.818C48.8633 189.04 48.1742 188.328 47.4157 187.695C46.7912 187.185 46.1191 186.735 45.4088 186.353C44.1888 185.713 43.3409 185.499 43.3592 185.438C43.5674 185.449 43.7729 185.49 43.9692 185.56C44.2004 185.618 44.4268 185.693 44.6463 185.786C44.9455 185.889 45.237 186.013 45.5186 186.158C46.2514 186.517 46.9427 186.954 47.5804 187.463C48.3635 188.103 49.0733 188.827 49.6971 189.623C50.3059 190.433 50.8177 191.311 51.2221 192.24C51.5543 193 51.8018 193.793 51.9602 194.607C52.0228 194.917 52.0656 195.231 52.0883 195.547C52.1168 195.783 52.129 196.022 52.1249 196.26C52.136 196.462 52.1237 196.665 52.0883 196.864Z" fill="#263238"/>
<path d="M93.8669 171.529C93.9175 171.698 93.9522 171.872 93.9706 172.047C94.0528 172.542 94.1058 173.041 94.1292 173.542C94.202 175.393 93.9438 177.242 93.3667 179.002C92.5071 181.627 90.9837 183.985 88.9442 185.847C86.3861 188.082 83.1736 189.431 79.7863 189.69C76.3991 189.95 73.0187 189.106 70.15 187.287C67.8569 185.752 65.9993 183.65 64.7577 181.186C63.926 179.532 63.3951 177.743 63.1899 175.903C63.1404 175.404 63.118 174.903 63.1229 174.402C63.1081 174.228 63.1081 174.052 63.1229 173.878C63.1515 174.049 63.1658 174.222 63.1656 174.396C63.1812 174.894 63.2219 175.391 63.2875 175.885C63.5374 177.698 64.0944 179.456 64.9345 181.082C66.1791 183.497 68.0208 185.553 70.2843 187.055C73.101 188.826 76.4114 189.647 79.7294 189.398C83.0473 189.149 86.1979 187.842 88.7185 185.67C90.7357 183.846 92.252 181.536 93.1227 178.959C93.7072 177.224 93.9959 175.403 93.9767 173.572C93.9767 172.926 93.9218 172.426 93.873 172.084C93.8242 171.742 93.8608 171.535 93.8669 171.529Z" fill="#263238"/>
<path d="M52.0514 224.457C52.0514 224.543 46.9823 222.95 40.7969 220.907C34.6115 218.863 29.6156 217.137 29.6461 217.051C29.6766 216.966 34.7091 218.558 40.9006 220.602C47.0921 222.645 52.0758 224.372 52.0514 224.457Z" fill="#FAFAFA"/>
<path d="M112.24 215.99C112.24 216.081 98.7895 216.209 82.1975 216.276C65.6055 216.343 52.1489 216.331 52.1489 216.276C52.1489 216.221 65.5994 216.057 82.1975 215.99C98.7956 215.922 112.24 215.904 112.24 215.99Z" fill="#FAFAFA"/>
<path d="M112.545 221.303C112.545 221.389 99.0213 221.462 82.35 221.462C65.6787 221.462 52.1489 221.389 52.1489 221.303C52.1489 221.218 65.6665 221.145 82.35 221.145C99.0335 221.145 112.545 221.212 112.545 221.303Z" fill="#FAFAFA"/>
<path d="M104.261 227.758C104.22 227.928 104.163 228.093 104.09 228.252C103.956 228.594 103.773 229.057 103.548 229.643L103.145 230.643C102.986 231.009 102.797 231.394 102.602 231.815C102.199 232.644 101.785 233.608 101.205 234.621L100.327 236.219C100.022 236.774 99.6558 237.323 99.302 237.909C98.6066 239.087 97.7526 240.27 96.862 241.533C94.8812 244.216 92.6992 246.745 90.335 249.098C87.937 251.417 85.3655 253.55 82.6429 255.479C81.3619 256.333 80.1602 257.169 78.9829 257.84C78.3729 258.181 77.8361 258.535 77.2749 258.834L75.6401 259.676C74.6214 260.231 73.6454 260.634 72.8097 261.018C72.3888 261.201 71.9984 261.384 71.6324 261.537L70.6198 261.921L69.2229 262.439C69.0617 262.509 68.8942 262.562 68.7227 262.598C68.8749 262.512 69.0341 262.438 69.1985 262.378L70.5771 261.805L71.5714 261.396C71.9374 261.238 72.3217 261.049 72.7365 260.853C73.5661 260.457 74.5299 260.042 75.5364 259.475L77.1407 258.62C77.6958 258.315 78.2509 257.956 78.8365 257.614C80.0138 256.937 81.2033 256.095 82.4965 255.241C87.93 251.406 92.7088 246.72 96.6485 241.362C97.533 240.111 98.3931 238.922 99.0885 237.769C99.4484 237.189 99.8205 236.646 100.132 236.097L101.016 234.511C101.626 233.517 102.035 232.559 102.45 231.735C102.651 231.321 102.852 230.942 103.017 230.582C103.182 230.222 103.316 229.893 103.444 229.594C103.694 229.021 103.895 228.569 104.054 228.228C104.115 228.068 104.184 227.911 104.261 227.758Z" fill="#263238"/>
<g opacity="0.3">
<path opacity="0.3" d="M101.785 233.041C97.6856 238.031 93.3912 241.648 87.3705 243.979C84.4852 245.089 81.4657 245.852 78.6719 247.176C75.8781 248.499 73.2429 250.494 71.9619 253.319C70.992 255.503 71.4617 258.809 73.7919 259.285C74.6972 259.396 75.6155 259.255 76.4454 258.876C88.3709 254.551 96.2094 243.625 101.748 233.041" fill="black"/>
</g>
<path d="M59.1276 124.5C56.5534 126.519 56.3826 130.296 56.5107 133.565C56.6388 136.835 56.6754 140.557 54.2903 142.814C52.3383 144.674 48.9223 145.364 48.3611 148.005C48.2191 148.628 48.2759 149.279 48.5235 149.867C48.7711 150.456 49.1971 150.952 49.7414 151.285C50.2857 151.619 50.9209 151.773 51.5575 151.726C52.1941 151.68 52.8 151.434 53.2899 151.025C52.4603 153.093 52.8385 155.741 54.6014 157.126C56.3643 158.511 59.4448 157.852 60.0914 155.729C59.9915 156.08 59.9639 156.448 60.0104 156.81C60.0569 157.172 60.1764 157.521 60.3618 157.836C60.5472 158.15 60.7946 158.424 61.0889 158.64C61.3832 158.856 61.7183 159.01 62.0739 159.093C62.4296 159.176 62.7983 159.185 63.1578 159.121C63.5173 159.057 63.86 158.921 64.1651 158.72C64.4703 158.52 64.7316 158.259 64.9331 157.955C65.1346 157.65 65.2722 157.308 65.3374 156.949" fill="#263238"/>
<path d="M96.4839 148.176C96.6066 148.605 96.8161 149.003 97.0993 149.347C97.3826 149.692 97.7336 149.974 98.1305 150.177C98.5274 150.379 98.9617 150.498 99.4065 150.526C99.8514 150.554 100.297 150.49 100.716 150.338C101.135 150.187 101.519 149.95 101.843 149.644C102.167 149.338 102.424 148.969 102.599 148.559C102.774 148.149 102.863 147.707 102.861 147.262C102.858 146.816 102.764 146.375 102.584 145.968C102.078 144.699 100.754 143.741 100.723 142.381C100.644 140.733 102.376 139.641 103.895 139.001C105.414 138.36 107.195 137.506 107.433 135.877C107.671 134.249 106.311 132.998 105.176 131.882C104.042 130.765 102.95 129.069 103.749 127.69C104.158 126.989 104.969 126.611 105.494 125.995C106.677 124.628 106.201 122.334 104.835 121.169C103.468 120.004 101.51 119.735 99.723 119.949C97.9357 120.162 96.2277 120.833 94.477 121.267C91.5739 121.967 88.557 122.058 85.6171 121.533C82.6772 121.008 79.8781 119.879 77.397 118.216" fill="#263238"/>
<path d="M60.878 137.079L67.1549 173.463C67.415 174.985 67.9738 176.442 68.7993 177.747C69.6247 179.053 70.7004 180.183 71.9643 181.071C73.2283 181.959 74.6555 182.588 76.1636 182.922C77.6718 183.256 79.2312 183.288 80.7518 183.016C83.6329 182.5 86.2165 180.924 87.9936 178.598C89.7706 176.272 90.6124 173.365 90.3532 170.449C90.0665 167.222 89.8225 164.55 89.8225 164.55C89.8225 164.55 98.9359 162.207 98.149 152.959C97.7647 148.481 96.2336 139.324 94.7452 131.052C93.9735 126.77 91.6183 122.936 88.1482 120.312C84.6781 117.689 80.3476 116.468 76.0182 116.892L75.1276 116.978C72.8588 117.333 70.6842 118.14 68.7322 119.35C66.7801 120.559 65.0901 122.148 63.762 124.022C62.4338 125.895 61.4943 128.016 60.999 130.258C60.5037 132.501 60.4625 134.82 60.878 137.079Z" fill="#B78876"/>
<path d="M92.7994 137.024C92.8392 137.368 92.7417 137.714 92.5282 137.987C92.3147 138.26 92.0024 138.438 91.6587 138.482C91.4922 138.513 91.3213 138.509 91.156 138.473C90.9908 138.436 90.8347 138.366 90.697 138.267C90.5593 138.169 90.4428 138.044 90.3544 137.899C90.266 137.755 90.2076 137.594 90.1825 137.427C90.1428 137.083 90.2402 136.737 90.4537 136.464C90.6672 136.191 90.9796 136.013 91.3232 135.969C91.4898 135.938 91.6607 135.942 91.8259 135.979C91.9911 136.016 92.1472 136.085 92.2849 136.184C92.4227 136.282 92.5392 136.407 92.6276 136.552C92.7159 136.696 92.7744 136.857 92.7994 137.024Z" fill="#263238"/>
<path d="M93.2022 135.762C93.0558 135.945 91.9822 135.304 90.5609 135.444C89.1396 135.585 88.1636 136.402 87.9928 136.244C87.9135 136.17 88.0477 135.847 88.4686 135.469C89.0431 134.981 89.7553 134.685 90.506 134.621C91.2448 134.547 91.988 134.71 92.6288 135.084C93.0985 135.377 93.2754 135.676 93.2022 135.762Z" fill="#263238"/>
<path d="M78.8917 138.653C78.9264 138.997 78.8262 139.34 78.6121 139.611C78.3981 139.882 78.0871 140.059 77.7449 140.105C77.5785 140.135 77.4078 140.131 77.2429 140.094C77.078 140.056 76.9222 139.987 76.7847 139.888C76.6472 139.79 76.5307 139.665 76.4421 139.521C76.3535 139.377 76.2945 139.217 76.2687 139.05C76.2322 138.706 76.3308 138.362 76.5437 138.09C76.7566 137.818 77.0671 137.639 77.4094 137.592C77.5766 137.562 77.7481 137.566 77.9137 137.604C78.0793 137.641 78.2358 137.712 78.3739 137.811C78.512 137.91 78.6289 138.035 78.7178 138.18C78.8067 138.324 78.8659 138.485 78.8917 138.653Z" fill="#263238"/>
<path d="M79.2515 137.384C79.1051 137.573 78.0315 136.933 76.6102 137.073C75.1889 137.213 74.2191 138.031 74.0422 137.872C73.9629 137.799 74.0971 137.476 74.518 137.097C75.0937 136.612 75.8052 136.316 76.5554 136.249C77.2943 136.173 78.0384 136.335 78.6781 136.713C79.1478 137.006 79.3003 137.305 79.2515 137.384Z" fill="#263238"/>
<path d="M85.443 147.432C85.443 147.346 86.297 147.108 87.7061 146.785C88.066 146.712 88.4076 146.608 88.4442 146.352C88.4339 145.975 88.313 145.611 88.0965 145.303L86.7484 142.643C84.8757 138.848 83.4849 135.719 83.6374 135.645C83.7899 135.572 85.4308 138.586 87.2974 142.356L88.5967 145.04C88.8671 145.455 88.9816 145.952 88.92 146.443C88.8834 146.58 88.8152 146.707 88.7209 146.813C88.6267 146.919 88.5089 147.001 88.3771 147.053C88.1801 147.125 87.9754 147.175 87.7671 147.2C87.0047 147.371 86.2243 147.449 85.443 147.432Z" fill="#263238"/>
<path d="M79.0745 131.772C78.9708 132.174 77.5373 132.125 75.8902 132.492C74.2432 132.858 72.9317 133.443 72.6816 133.102C72.5657 132.949 72.7609 132.559 73.2916 132.132C73.9691 131.596 74.7633 131.229 75.6096 131.058C76.4538 130.872 77.3302 130.891 78.1655 131.113C78.7816 131.314 79.1172 131.589 79.0745 131.772Z" fill="#263238"/>
<path d="M92.2809 131.692C92.0613 132.04 91.0609 131.802 89.8409 131.9C88.6209 131.997 87.6876 132.333 87.4009 132.016C87.285 131.863 87.4009 131.522 87.8157 131.174C88.3621 130.742 89.0293 130.49 89.725 130.454C90.418 130.397 91.1114 130.559 91.7075 130.918C92.2016 131.21 92.3724 131.528 92.2809 131.692Z" fill="#263238"/>
<path d="M69.9305 125.952L69.8817 126.001C68.5223 127.305 67.7183 129.084 67.6369 130.966C67.6369 131.033 67.6369 131.101 67.6369 131.155C67.5332 133.834 67.8565 136.512 67.7284 139.184C67.6003 141.856 66.9476 144.625 65.1725 146.633C64.4466 147.456 63.0802 148.109 62.336 147.298C62.0771 146.956 61.9205 146.547 61.8846 146.12C60.7744 139.8 58.4808 134.316 57.8464 127.648C57.7554 126.756 57.879 125.855 58.2069 125.021C58.5348 124.187 59.0575 123.444 59.7313 122.853C61.0245 121.712 62.6288 120.51 64.2514 121.096C65.874 121.681 68.1615 124.384 69.4852 125.494" fill="#263238"/>
<path d="M64.404 140.959C64.2393 140.91 57.8648 139.702 58.6822 146.004C59.4996 152.306 65.6606 150.189 65.6484 150.006C65.6362 149.823 64.404 140.959 64.404 140.959Z" fill="#B78876"/>
<path d="M63.4404 147.871C63.4404 147.871 63.3428 147.962 63.1659 148.066C63.0447 148.14 62.9102 148.19 62.7699 148.212C62.6297 148.234 62.4864 148.228 62.3485 148.194C61.6531 148.036 60.9516 147.047 60.7747 145.919C60.6881 145.379 60.7235 144.826 60.8784 144.302C60.9131 144.097 60.9967 143.904 61.122 143.738C61.2472 143.573 61.4106 143.44 61.5982 143.35C61.7199 143.303 61.8544 143.298 61.9789 143.338C62.1034 143.378 62.2102 143.46 62.2814 143.57C62.3912 143.735 62.3668 143.869 62.4034 143.875C62.44 143.881 62.5254 143.753 62.44 143.497C62.3848 143.344 62.2794 143.215 62.1411 143.131C61.955 143.028 61.7371 143 61.5311 143.051C61.2783 143.137 61.0516 143.285 60.8723 143.483C60.6929 143.68 60.567 143.92 60.5063 144.18C60.3081 144.769 60.2557 145.397 60.3538 146.01C60.5612 147.273 61.3664 148.377 62.3119 148.524C62.4875 148.552 62.6674 148.54 62.8376 148.488C63.0078 148.436 63.164 148.346 63.294 148.225C63.4404 148.023 63.4404 147.877 63.4404 147.871Z" fill="#7C5142"/>
<path d="M64.1232 122.096C62.2932 119.717 66.2338 115.666 69.2594 114.379C72.285 113.092 76.5489 114.208 79.7575 114.934C81.7766 115.398 83.8201 116.112 85.8575 115.825C87.2236 115.552 88.5414 115.077 89.7676 114.416C90.9925 113.743 92.3417 113.328 93.7326 113.196C94.4292 113.143 95.1271 113.281 95.7507 113.596C96.3743 113.911 96.8999 114.391 97.2706 114.983C97.9172 116.203 97.3377 118.033 95.9835 118.369C96.4 118.082 96.8798 117.901 97.3818 117.841C97.8838 117.781 98.3929 117.843 98.8653 118.023C99.3378 118.203 99.7596 118.495 100.094 118.874C100.429 119.253 100.667 119.707 100.787 120.198C100.908 120.689 100.907 121.202 100.785 121.693C100.664 122.184 100.425 122.638 100.089 123.016C99.7536 123.394 99.3312 123.685 98.8583 123.864C98.3853 124.043 97.8761 124.104 97.3743 124.042C98.21 123.274 99.6984 124.268 99.6984 125.397C99.6984 126.525 98.7529 127.453 97.7647 128.008C95.2393 129.423 92.1283 129.35 89.3101 128.697C86.4919 128.044 83.8201 126.867 81.0141 126.135C78.2081 125.403 73.505 124.085 70.882 125.311C68.9544 126.208 67.7954 128.752 66.612 128.362C66.052 128.129 65.5544 127.768 65.1592 127.309C64.764 126.849 64.4823 126.303 64.3367 125.714C64.0642 124.531 63.9859 123.311 64.1049 122.102" fill="#263238"/>
<path d="M64.4834 142.039C64.562 145.39 64.9459 148.726 65.6302 152.007C66.3141 155.3 67.876 158.346 70.1503 160.822C73.2003 163.952 77.2019 166.923 81.5329 167.661C86.2604 168.442 92.0432 167.454 95.8923 164.611C97.7223 163.263 99.046 160.34 98.4787 158.132C99.2535 157.766 99.9165 157.2 100.399 156.492C100.882 155.785 101.166 154.961 101.224 154.106C101.321 152.398 100.278 150.262 98.9301 150.037C99.9427 149.866 100.235 148.255 99.8512 147.346C99.4669 146.437 98.131 146.163 97.1184 146.358C96.1176 146.62 95.1867 147.099 94.3917 147.761C93.6013 148.424 92.7095 148.955 91.7504 149.335C88.4808 150.397 85.1685 147.505 81.7342 147.645C78.6293 147.767 75.866 150.348 72.7855 149.915C71.9304 149.752 71.1191 149.41 70.4044 148.913C69.6898 148.416 69.0878 147.774 68.6375 147.029C67.6859 145.571 68.1007 140.184 67.7286 138.488" fill="#263238"/>
<g opacity="0.6">
<path opacity="0.6" d="M89.402 156.564C89.1449 156.504 88.8922 156.427 88.6456 156.332C88.0481 156.162 87.4194 156.13 86.808 156.242C86.1966 156.353 85.6189 156.603 85.1198 156.973C84.7294 157.254 84.5098 157.479 84.5098 157.449C84.5098 157.418 84.6318 157.15 85.0039 156.839C85.5049 156.398 86.117 156.102 86.7739 155.984C87.4308 155.865 88.1076 155.929 88.731 156.168C89.1824 156.32 89.4203 156.534 89.402 156.564Z" fill="#455A64"/>
</g>
<path d="M82.7225 149.555C82.9543 149.518 83.1068 151.062 84.5525 151.995C85.9982 152.928 87.6025 152.636 87.6391 152.849C87.6696 152.941 87.3036 153.185 86.6082 153.27C85.707 153.376 84.7975 153.16 84.0401 152.66C83.3146 152.175 82.8069 151.427 82.6249 150.574C82.4846 149.951 82.6188 149.555 82.7225 149.555Z" fill="white"/>
<path d="M78.1353 166.63C78.2732 166.661 78.4065 166.71 78.5318 166.776C78.7941 166.874 79.1784 167.008 79.6847 167.148C81.1194 167.536 82.592 167.767 84.0767 167.838C85.0933 167.898 86.1132 167.877 87.1267 167.777C88.2955 167.672 89.4504 167.447 90.5732 167.106C91.8127 166.735 92.9951 166.195 94.0868 165.501C95.2738 164.785 96.3098 163.844 97.1368 162.732C98.1192 161.421 98.5564 159.782 98.3568 158.156V158.028L98.4666 157.979C99.2253 157.626 99.8822 157.087 100.376 156.411C100.615 156.093 100.82 155.749 100.986 155.386C101.132 155.034 101.222 154.662 101.254 154.282C101.321 153.595 101.223 152.902 100.968 152.26C100.713 151.618 100.31 151.046 99.7903 150.591L99.6988 150.518L99.772 150.427C100.047 150.078 100.227 149.663 100.293 149.223C100.359 148.784 100.31 148.334 100.15 147.919C100.025 147.605 99.8353 147.32 99.5937 147.082C99.3522 146.845 99.0639 146.661 98.7472 146.541C98.3428 146.379 97.9053 146.318 97.4723 146.364C97.1734 146.4 97.027 146.455 97.0209 146.437C97.1617 146.37 97.3118 146.325 97.4662 146.303C98.0456 146.209 98.6398 146.309 99.1562 146.589C99.6726 146.868 100.082 147.31 100.321 147.846C100.502 148.293 100.563 148.78 100.499 149.258C100.434 149.736 100.247 150.189 99.955 150.573V150.408C100.512 150.884 100.948 151.486 101.226 152.164C101.504 152.842 101.616 153.577 101.553 154.307C101.522 154.726 101.425 155.138 101.266 155.527C101.09 155.909 100.875 156.273 100.626 156.613C100.107 157.337 99.4091 157.915 98.6008 158.29L98.6923 158.107C98.9371 159.816 98.4988 161.552 97.4723 162.939C96.6208 164.084 95.5537 165.052 94.3308 165.788C93.2171 166.497 92.007 167.041 90.7379 167.405C89.5954 167.748 88.4196 167.969 87.2304 168.063C86.197 168.145 85.1588 168.145 84.1255 168.063C82.6292 167.97 81.1491 167.702 79.7152 167.264C79.3264 167.143 78.9455 166.999 78.5745 166.831C78.4213 166.78 78.274 166.712 78.1353 166.63Z" fill="#455A64"/>
<path d="M50.4837 150.531C50.3669 150.499 50.2572 150.445 50.1604 150.372C49.8855 150.166 49.6741 149.887 49.5504 149.567C49.3442 149.051 49.2995 148.485 49.4223 147.944C49.6147 147.227 50.0449 146.597 50.6423 146.157C51.3441 145.628 52.1269 145.215 52.9603 144.936C53.8942 144.643 54.7972 144.259 55.6565 143.79C56.5606 143.217 57.2691 142.383 57.6878 141.398C58.147 140.338 58.3916 139.198 58.4076 138.043C58.4564 135.658 57.9074 133.394 57.8464 131.29C57.7854 129.185 58.1514 127.22 59.1091 125.903C59.8263 124.846 60.9154 124.099 62.1591 123.81C62.4963 123.743 62.8417 123.727 63.1839 123.761C63.3033 123.775 63.4215 123.798 63.5377 123.829C63.0857 123.807 62.6329 123.842 62.1896 123.932C60.9908 124.249 59.9507 124.996 59.2677 126.031C58.3771 127.312 58.005 129.215 58.1148 131.277C58.2246 133.339 58.7248 135.603 58.7248 138.055C58.6994 139.254 58.436 140.436 57.9501 141.532C57.5016 142.572 56.746 143.449 55.7846 144.046C54.9018 144.524 53.9716 144.908 53.0091 145.193C52.1994 145.449 51.4355 145.832 50.746 146.327C50.1795 146.728 49.7648 147.309 49.5687 147.975C49.4357 148.482 49.4591 149.018 49.6358 149.512C49.7965 149.937 50.0951 150.295 50.4837 150.531Z" fill="#455A64"/>
<path d="M96.2156 118.265C96.3021 118.213 96.3942 118.17 96.4901 118.137C96.606 118.085 96.7265 118.044 96.85 118.015C97.0155 117.966 97.1849 117.932 97.3563 117.911C97.9255 117.849 98.5014 117.918 99.0404 118.111C99.5794 118.304 100.067 118.618 100.467 119.028C100.867 119.564 101.157 120.175 101.319 120.824C101.481 121.473 101.513 122.148 101.413 122.81C101.293 123.631 101.01 124.419 100.58 125.128C100.151 125.838 99.5835 126.454 98.9118 126.94C97.3651 128.066 95.5168 128.704 93.6048 128.77C91.532 128.852 89.4584 128.63 87.4499 128.111C84.2592 127.328 81.2319 125.988 78.5073 124.152C77.3425 123.351 76.1191 122.64 74.8473 122.023C73.7333 121.508 72.534 121.202 71.3093 121.12C69.5252 120.997 67.7391 121.329 66.1182 122.084C64.9775 122.621 64.4346 123.085 64.4102 123.048C64.9111 122.617 65.467 122.254 66.0633 121.968C67.6937 121.162 69.5054 120.792 71.3215 120.895C72.5858 120.959 73.827 121.259 74.9815 121.779C76.2716 122.394 77.5134 123.106 78.6964 123.908C81.4017 125.708 84.3985 127.025 87.5536 127.8C89.5312 128.319 91.5735 128.55 93.617 128.484C95.4707 128.419 97.2639 127.807 98.7715 126.727C99.4186 126.264 99.9674 125.677 100.386 125.001C100.805 124.324 101.086 123.571 101.211 122.786C101.319 122.15 101.299 121.499 101.154 120.871C101.008 120.242 100.74 119.649 100.364 119.125C99.9851 118.729 99.5236 118.421 99.0121 118.223C98.5006 118.026 97.9518 117.945 97.4051 117.985C97.0019 118.047 96.6043 118.141 96.2156 118.265Z" fill="#455A64"/>
<path d="M92.9826 112.891C92.982 113.371 92.8845 113.846 92.6959 114.288C92.167 115.501 91.2482 116.504 90.0851 117.137C89.2998 117.594 88.4378 117.904 87.5414 118.052C86.5139 118.201 85.4701 118.201 84.4426 118.052C82.2649 117.777 80.014 116.923 77.6472 116.185C75.2804 115.447 72.8953 115.008 70.7969 115.459C68.9375 115.865 67.2534 116.847 65.984 118.265C65.1193 119.211 64.4571 120.324 64.0381 121.535C63.7575 122.401 63.7026 122.908 63.666 122.902C63.6511 122.78 63.6511 122.657 63.666 122.536C63.7148 122.185 63.7903 121.838 63.8917 121.498C64.2706 120.245 64.918 119.09 65.7888 118.113C67.0707 116.631 68.7941 115.601 70.7054 115.172C72.877 114.69 75.3292 115.136 77.7082 115.88C80.0872 116.624 82.3198 117.478 84.4487 117.759C85.4499 117.905 86.467 117.905 87.4682 117.759C88.338 117.627 89.1769 117.34 89.9448 116.911C91.0817 116.314 91.9953 115.366 92.5495 114.208C92.7287 113.781 92.8735 113.341 92.9826 112.891Z" fill="#455A64"/>
<path d="M139.153 74.2802C139.098 74.3473 135.67 71.5593 131.492 68.0515C127.313 64.5437 123.976 61.6155 124.037 61.5728C124.098 61.5301 127.521 64.2936 131.699 67.8075C135.878 71.3214 139.214 74.2131 139.153 74.2802Z" fill="#263238"/>
<path d="M156.551 70.1013C156.465 70.1013 156.117 64.684 155.782 57.9917C155.446 51.2994 155.239 45.8699 155.324 45.8638C155.41 45.8577 155.758 51.2811 156.099 57.9795C156.441 64.6779 156.636 70.1013 156.551 70.1013Z" fill="#263238"/>
<path d="M145.473 66.2275C145.388 66.2275 144.32 63.1772 143.082 59.3156C141.844 55.4539 140.91 52.3366 140.996 52.3122C141.081 52.2878 142.149 55.3624 143.387 59.218C144.625 63.0735 145.552 66.2031 145.473 66.2275Z" fill="#263238"/>
<path d="M135.597 80.0023C133.991 79.4372 132.42 78.7751 130.894 78.0196C129.323 77.3573 127.795 76.5973 126.319 75.7441C127.925 76.3093 129.496 76.9714 131.022 77.7268C132.592 78.3906 134.12 79.1505 135.597 80.0023Z" fill="#263238"/>
<path d="M119.56 72.9929C119.56 73.0783 119.042 73.0905 118.426 72.9929C117.81 72.8953 117.322 72.7855 117.334 72.7001C117.346 72.6146 117.852 72.6024 118.462 72.7001C119.072 72.7977 119.56 72.9075 119.56 72.9929Z" fill="#263238"/>
<path d="M141.392 48.3712C141.3 48.3712 141.233 47.8771 141.233 47.2609C141.233 46.6448 141.3 46.1445 141.392 46.1445C141.484 46.1445 141.551 46.6448 141.551 47.2609C141.551 47.8771 141.477 48.3712 141.392 48.3712Z" fill="#263238"/>
<path d="M178.12 56.9851C178.187 57.0461 175.369 60.2733 171.837 64.1959C168.305 68.1186 165.39 71.2543 165.31 71.1933C165.231 71.1322 168.061 67.9112 171.593 63.9824C175.125 60.0537 178.059 56.9302 178.12 56.9851Z" fill="#263238"/>
<path d="M182.604 52.5499C182.665 52.6109 182.341 53.0379 181.878 53.5016C181.414 53.9652 180.993 54.2824 180.932 54.2214C180.871 54.1604 181.194 53.7334 181.658 53.2759C182.122 52.8183 182.543 52.4645 182.604 52.5499Z" fill="#263238"/>
<path d="M193.474 68.1675C193.212 68.3559 192.935 68.5213 192.644 68.6616C192.102 68.9606 191.309 69.3815 190.32 69.8817C188.338 70.8822 185.562 72.1877 182.439 73.4872C179.316 74.7866 176.431 75.8237 174.32 76.5374C173.271 76.8852 172.417 77.1475 171.819 77.3244C171.517 77.4343 171.204 77.514 170.886 77.5623C171.174 77.4196 171.474 77.3012 171.782 77.2085L174.222 76.3239C176.309 75.5735 179.17 74.4938 182.293 73.2126C185.416 71.9315 188.191 70.6443 190.223 69.6987L192.59 68.5762C192.874 68.4183 193.17 68.2817 193.474 68.1675Z" fill="#263238"/>
<path d="M184.556 83.187C184.035 83.4192 183.491 83.597 182.933 83.7178C181.921 83.9984 180.493 84.3278 178.92 84.6023C177.346 84.8769 175.87 85.0294 174.839 85.1026C174.274 85.1745 173.703 85.1847 173.137 85.1331C173.691 85.0054 174.253 84.9198 174.82 84.8769C175.857 84.7488 177.291 84.5535 178.865 84.2668C180.438 83.9801 181.86 83.7056 182.885 83.4859C183.431 83.335 183.991 83.235 184.556 83.187Z" fill="#263238"/>
<path d="M192.663 81.6865C191.501 81.898 190.311 81.898 189.149 81.6865C190.311 81.475 191.501 81.475 192.663 81.6865Z" fill="#263238"/>
<path d="M146.815 233.041C147.673 233.187 148.494 233.504 149.227 233.974C149.961 234.443 150.592 235.056 151.085 235.774C152.056 237.226 152.682 238.881 152.915 240.612C153.47 243.93 152.573 247.701 151.341 250.836C147.955 249.244 146.15 245.303 145.363 243.241C144.143 239.99 143.832 233.346 146.784 233.041" fill="#FF6363"/>
<path d="M156.362 255.528C155.852 254.696 155.571 253.744 155.549 252.769C155.526 251.794 155.763 250.83 156.233 249.976C156.716 249.13 157.363 248.389 158.136 247.796C158.909 247.203 159.793 246.77 160.735 246.523C161.157 246.362 161.608 246.295 162.058 246.327C162.508 246.359 162.945 246.488 163.34 246.706C163.669 246.97 163.921 247.316 164.071 247.71C164.221 248.103 164.264 248.53 164.194 248.945C164.043 249.775 163.677 250.551 163.133 251.196C161.364 253.478 159.241 255.357 156.362 255.528Z" fill="#FF6363"/>
<path d="M155.507 266.045C155.437 265.82 155.398 265.585 155.391 265.349C155.349 264.898 155.288 264.239 155.245 263.428C155.091 261.305 155.22 259.172 155.629 257.083C156.067 254.974 157.064 253.02 158.515 251.428C158.962 250.96 159.466 250.551 160.015 250.208C160.199 250.068 160.405 249.96 160.625 249.891C159.932 250.411 159.283 250.989 158.685 251.617C157.332 253.212 156.401 255.121 155.977 257.169C155.573 259.229 155.41 261.33 155.489 263.428C155.548 264.299 155.554 265.173 155.507 266.045Z" fill="#263238"/>
<path d="M147.62 238.099C147.791 238.449 147.934 238.812 148.047 239.185C148.297 239.892 148.657 240.917 149.06 242.192C149.895 244.742 150.987 248.293 152.11 252.228C153.232 256.162 154.135 259.762 154.757 262.373C155.068 263.678 155.306 264.734 155.459 265.472C155.56 265.848 155.63 266.231 155.666 266.619C155.517 266.26 155.401 265.888 155.318 265.508C155.105 264.715 154.83 263.678 154.501 262.458C153.812 259.865 152.854 256.284 151.744 252.35C150.634 248.415 149.584 244.858 148.816 242.29L147.919 239.239C147.788 238.868 147.688 238.487 147.62 238.099Z" fill="#263238"/>
<path d="M151.853 258.664C151.002 256.798 149.72 255.162 148.112 253.889C146.504 252.616 144.617 251.743 142.606 251.343C141.581 251.148 140.318 251.172 139.745 252.051C139.171 252.929 139.666 254.1 140.282 254.942C141.596 256.688 143.399 258.005 145.462 258.726C147.525 259.447 149.756 259.54 151.872 258.993" fill="#FF6363"/>
<path d="M143.728 254.265C143.956 254.256 144.184 254.281 144.405 254.338C144.667 254.374 144.926 254.429 145.18 254.503C145.523 254.583 145.861 254.683 146.193 254.802C147.059 255.105 147.893 255.496 148.681 255.967C150.627 257.119 152.274 258.713 153.488 260.622C153.976 261.392 154.384 262.21 154.708 263.062C154.84 263.388 154.952 263.722 155.044 264.062C155.128 264.315 155.193 264.574 155.239 264.837C155.303 265.055 155.332 265.281 155.324 265.508C155.257 265.508 155.068 264.575 154.464 263.166C154.105 262.342 153.675 261.552 153.177 260.805C152.561 259.895 151.856 259.049 151.073 258.279C150.279 257.521 149.412 256.843 148.486 256.254C147.722 255.778 146.918 255.37 146.083 255.034C144.668 254.497 143.716 254.338 143.728 254.265Z" fill="#263238"/>
</svg>
